<svg width="65" height="49" viewBox="0 0 65 49" fill="none" xmlns="http://www.w3.org/2000/svg">
    <path d="M31 5.22949L16 9.26074V44.042H31V5.22949ZM35.5 44.042V48.542H31H16H14.5H11.5H7.75C6.4375 48.542 5.5 47.6045 5.5 46.292C5.5 45.0732 6.4375 44.042 7.75 44.042H11.5V9.26074C11.5 7.29199 12.8125 5.51074 14.7812 4.94824L30.4375 0.729492C30.8125 0.635742 31.0938 0.541992 31.4688 0.541992C33.7188 0.541992 35.5 2.32324 35.5 4.57324V44.042ZM26.5 27.542C25.1875 27.542 24.25 26.2295 24.25 24.542C24.25 22.9482 25.1875 21.542 26.5 21.542C27.7188 21.542 28.75 22.9482 28.75 24.542C28.75 26.2295 27.7188 27.542 26.5 27.542ZM38.5 11.042V6.54199H48.25C51.0625 6.54199 53.5 8.97949 53.5 11.792V44.042H57.25C58.4688 44.042 59.5 45.0732 59.5 46.292C59.5 47.6045 58.4688 48.542 57.25 48.542H51.25C49.9375 48.542 49 47.6045 49 46.292V11.792C49 11.417 48.625 11.042 48.25 11.042H38.5Z" fill="#508EC8"/>
</svg>
