<svg width="175" height="43" viewBox="0 0 175 43" fill="none" xmlns="http://www.w3.org/2000/svg">
    <rect y="0.541992" width="175" height="42" rx="21" fill="#34539B"/>
    <path d="M20 13.542C20.5312 13.542 21 14.0107 21 14.542V15.542H25V14.542C25 14.0107 25.4375 13.542 26 13.542C26.5312 13.542 27 14.0107 27 14.542V15.542H28.5C29.3125 15.542 30 16.2295 30 17.042V18.542H16V17.042C16 16.2295 16.6562 15.542 17.5 15.542H19V14.542C19 14.0107 19.4375 13.542 20 13.542ZM16 19.542H30V28.042C30 28.8857 29.3125 29.542 28.5 29.542H17.5C16.6562 29.542 16 28.8857 16 28.042V19.542ZM18 22.042V23.042C18 23.3232 18.2188 23.542 18.5 23.542H19.5C19.75 23.542 20 23.3232 20 23.042V22.042C20 21.792 19.75 21.542 19.5 21.542H18.5C18.2188 21.542 18 21.792 18 22.042ZM22 22.042V23.042C22 23.3232 22.2188 23.542 22.5 23.542H23.5C23.75 23.542 24 23.3232 24 23.042V22.042C24 21.792 23.75 21.542 23.5 21.542H22.5C22.2188 21.542 22 21.792 22 22.042ZM26.5 21.542C26.2188 21.542 26 21.792 26 22.042V23.042C26 23.3232 26.2188 23.542 26.5 23.542H27.5C27.75 23.542 28 23.3232 28 23.042V22.042C28 21.792 27.75 21.542 27.5 21.542H26.5ZM18 26.042V27.042C18 27.3232 18.2188 27.542 18.5 27.542H19.5C19.75 27.542 20 27.3232 20 27.042V26.042C20 25.792 19.75 25.542 19.5 25.542H18.5C18.2188 25.542 18 25.792 18 26.042ZM22.5 25.542C22.2188 25.542 22 25.792 22 26.042V27.042C22 27.3232 22.2188 27.542 22.5 27.542H23.5C23.75 27.542 24 27.3232 24 27.042V26.042C24 25.792 23.75 25.542 23.5 25.542H22.5ZM26 26.042V27.042C26 27.3232 26.2188 27.542 26.5 27.542H27.5C27.75 27.542 28 27.3232 28 27.042V26.042C28 25.792 27.75 25.542 27.5 25.542H26.5C26.2188 25.542 26 25.792 26 26.042Z" fill="white"/>
    <path d="M46.736 26.734C45.4773 26.734 44.5067 26.3393 43.824 25.55C43.152 24.75 42.816 23.6033 42.816 22.11C42.816 20.6487 43.04 19.5287 43.488 18.75C43.936 17.9607 44.624 17.566 45.552 17.566C46.0107 17.566 46.3947 17.6993 46.704 17.966C47.0133 18.222 47.2107 18.5793 47.296 19.038H47.392C47.488 18.5793 47.712 18.222 48.064 17.966C48.416 17.6993 48.848 17.566 49.36 17.566C50.0107 17.566 50.5227 17.7793 50.896 18.206C51.2693 18.622 51.456 19.214 51.456 19.982V26.542H49.712V20.126C49.712 19.7527 49.6373 19.4753 49.488 19.294C49.3387 19.1127 49.1253 19.022 48.848 19.022C48.5067 19.022 48.272 19.15 48.144 19.406C48.016 19.6513 47.9307 19.934 47.888 20.254H46.8C46.7787 20.094 46.7467 19.9393 46.704 19.79C46.672 19.6407 46.6187 19.5127 46.544 19.406C46.4693 19.2887 46.3733 19.198 46.256 19.134C46.1493 19.0593 46.0107 19.022 45.84 19.022C45.4027 19.022 45.0987 19.2353 44.928 19.662C44.7573 20.078 44.672 20.6327 44.672 21.326V22.798C44.672 23.182 44.7147 23.5287 44.8 23.838C44.8853 24.1473 45.0187 24.414 45.2 24.638C45.392 24.8513 45.632 25.0167 45.92 25.134C46.2187 25.2513 46.5813 25.31 47.008 25.31C47.1147 25.31 47.2267 25.3047 47.344 25.294C47.4613 25.2833 47.5787 25.2673 47.696 25.246L47.888 26.622C47.7173 26.6647 47.5253 26.6913 47.312 26.702C47.1093 26.7233 46.9173 26.734 46.736 26.734ZM44.5571 14.814H51.4531V16.19H44.5571V14.814ZM57.281 26.734C56.065 26.734 55.121 26.3287 54.449 25.518C53.777 24.6967 53.441 23.5713 53.441 22.142C53.441 21.4487 53.537 20.8193 53.729 20.254C53.9317 19.6887 54.2143 19.2087 54.577 18.814C54.9503 18.4087 55.3983 18.0993 55.921 17.886C56.4437 17.6727 57.0303 17.566 57.681 17.566C58.2783 17.566 58.8223 17.6567 59.313 17.838C59.8037 18.0087 60.2197 18.254 60.561 18.574C60.913 18.894 61.1797 19.2833 61.361 19.742C61.553 20.19 61.649 20.6913 61.649 21.246V26.542H59.905V21.39C59.905 20.6327 59.7023 20.046 59.297 19.63C58.8917 19.2033 58.337 18.99 57.633 18.99C56.897 18.99 56.321 19.2193 55.905 19.678C55.4997 20.1367 55.297 20.7607 55.297 21.55V22.718C55.297 23.5607 55.4783 24.206 55.841 24.654C56.2143 25.0913 56.7797 25.31 57.537 25.31C57.7717 25.31 57.9903 25.2887 58.193 25.246L58.401 26.622C58.241 26.6647 58.049 26.6913 57.825 26.702C57.6117 26.7233 57.4303 26.734 57.281 26.734ZM67.5485 26.734C66.2898 26.734 65.3192 26.3393 64.6365 25.55C63.9645 24.75 63.6285 23.6033 63.6285 22.11C63.6285 20.6487 63.8525 19.5287 64.3005 18.75C64.7485 17.9607 65.4365 17.566 66.3645 17.566C66.8232 17.566 67.2072 17.6993 67.5165 17.966C67.8258 18.222 68.0232 18.5793 68.1085 19.038H68.2045C68.3005 18.5793 68.5245 18.222 68.8765 17.966C69.2285 17.6993 69.6605 17.566 70.1725 17.566C70.8232 17.566 71.3352 17.7793 71.7085 18.206C72.0818 18.622 72.2685 19.214 72.2685 19.982V26.542H70.5245V20.126C70.5245 19.7527 70.4498 19.4753 70.3005 19.294C70.1512 19.1127 69.9378 19.022 69.6605 19.022C69.3192 19.022 69.0845 19.15 68.9565 19.406C68.8285 19.6513 68.7432 19.934 68.7005 20.254H67.6125C67.5912 20.094 67.5592 19.9393 67.5165 19.79C67.4845 19.6407 67.4312 19.5127 67.3565 19.406C67.2818 19.2887 67.1858 19.198 67.0685 19.134C66.9618 19.0593 66.8232 19.022 66.6525 19.022C66.2152 19.022 65.9112 19.2353 65.7405 19.662C65.5698 20.078 65.4845 20.6327 65.4845 21.326V22.798C65.4845 23.182 65.5272 23.5287 65.6125 23.838C65.6978 24.1473 65.8312 24.414 66.0125 24.638C66.2045 24.8513 66.4445 25.0167 66.7325 25.134C67.0312 25.2513 67.3938 25.31 67.8205 25.31C67.9272 25.31 68.0392 25.3047 68.1565 25.294C68.2738 25.2833 68.3912 25.2673 68.5085 25.246L68.7005 26.622C68.5298 26.6647 68.3378 26.6913 68.1245 26.702C67.9218 26.7233 67.7298 26.734 67.5485 26.734ZM70.5856 13.086H72.2176V16.19H70.5856V13.086ZM78.1255 26.734C77.5922 26.734 77.0908 26.6593 76.6215 26.51C76.1628 26.35 75.7628 26.1367 75.4215 25.87C75.0908 25.5927 74.8295 25.262 74.6375 24.878C74.4455 24.494 74.3495 24.0673 74.3495 23.598V22.798C74.3495 22.4247 74.4348 22.1367 74.6055 21.934C74.7762 21.7207 75.0855 21.614 75.5335 21.614H77.3255V22.99H75.9975V23.47C75.9975 24.11 76.1948 24.5793 76.5895 24.878C76.9948 25.166 77.5335 25.31 78.2055 25.31C78.8988 25.31 79.4322 25.0967 79.8055 24.67C80.1895 24.2433 80.3815 23.6407 80.3815 22.862V21.486C80.3815 20.6967 80.1682 20.0833 79.7415 19.646C79.3255 19.2087 78.7335 18.99 77.9655 18.99C77.3255 18.99 76.7762 19.1233 76.3175 19.39C75.8695 19.6567 75.5282 19.9767 75.2935 20.35L74.2055 19.374C74.5148 18.862 74.9895 18.4353 75.6295 18.094C76.2695 17.742 77.0748 17.566 78.0455 17.566C79.3682 17.566 80.3975 17.9713 81.1335 18.782C81.8695 19.582 82.2375 20.702 82.2375 22.142C82.2375 22.846 82.1468 23.486 81.9655 24.062C81.7842 24.6273 81.5175 25.1073 81.1655 25.502C80.8135 25.8967 80.3815 26.2007 79.8695 26.414C79.3575 26.6273 78.7762 26.734 78.1255 26.734ZM87.5749 26.734C87.0522 26.734 86.5722 26.67 86.1349 26.542C85.7082 26.414 85.3349 26.222 85.0149 25.966C84.7055 25.6993 84.4655 25.374 84.2949 24.99C84.1242 24.5953 84.0389 24.1313 84.0389 23.598C84.0389 22.99 84.1189 22.51 84.2789 22.158C84.4495 21.7953 84.6415 21.47 84.8549 21.182C85.0469 20.9153 85.2069 20.6433 85.3349 20.366C85.4735 20.0887 85.5429 19.806 85.5429 19.518V19.214H83.9269V17.758H85.7509C86.2309 17.758 86.5989 17.8753 86.8549 18.11C87.1215 18.334 87.2549 18.6433 87.2549 19.038V19.15C87.2549 19.502 87.1909 19.8433 87.0629 20.174C86.9455 20.494 86.7642 20.8673 86.5189 21.294C86.3269 21.6353 86.1722 21.95 86.0549 22.238C85.9482 22.5153 85.8949 22.8407 85.8949 23.214V23.678C85.8949 24.2113 86.0442 24.6167 86.3429 24.894C86.6415 25.1713 87.0415 25.31 87.5429 25.31C88.0762 25.31 88.4815 25.15 88.7589 24.83C89.0469 24.4993 89.1909 24.046 89.1909 23.47V17.758H90.9349V23.406C90.9349 24.4407 90.6469 25.2567 90.0709 25.854C89.4949 26.4407 88.6629 26.734 87.5749 26.734ZM96.6411 26.734C96.1078 26.734 95.6065 26.6593 95.1371 26.51C94.6785 26.35 94.2785 26.1367 93.9371 25.87C93.6065 25.5927 93.3451 25.262 93.1531 24.878C92.9611 24.494 92.8651 24.0673 92.8651 23.598V22.798C92.8651 22.4247 92.9505 22.1367 93.1211 21.934C93.2918 21.7207 93.6011 21.614 94.0491 21.614H95.8411V22.99H94.5131V23.47C94.5131 24.11 94.7105 24.5793 95.1051 24.878C95.5105 25.166 96.0491 25.31 96.7211 25.31C97.4145 25.31 97.9478 25.0967 98.3211 24.67C98.7051 24.2433 98.8971 23.6407 98.8971 22.862V21.486C98.8971 20.6967 98.6838 20.0833 98.2571 19.646C97.8411 19.2087 97.2491 18.99 96.4811 18.99C95.8411 18.99 95.2918 19.1233 94.8331 19.39C94.3851 19.6567 94.0438 19.9767 93.8091 20.35L92.7211 19.374C93.0305 18.862 93.5051 18.4353 94.1451 18.094C94.7851 17.742 95.5905 17.566 96.5611 17.566C97.8838 17.566 98.9131 17.9713 99.6491 18.782C100.385 19.582 100.753 20.702 100.753 22.142C100.753 22.846 100.662 23.486 100.481 24.062C100.3 24.6273 100.033 25.1073 99.6811 25.502C99.3291 25.8967 98.8971 26.2007 98.3851 26.414C97.8731 26.6273 97.2918 26.734 96.6411 26.734ZM105.611 26.734C104.693 26.734 103.984 26.4407 103.483 25.854C102.981 25.2567 102.731 24.414 102.731 23.326V17.758H104.475V23.134C104.475 23.8167 104.613 24.3393 104.891 24.702C105.179 25.054 105.637 25.23 106.266 25.23C106.501 25.23 106.736 25.2033 106.971 25.15C107.205 25.086 107.413 24.99 107.595 24.862C107.787 24.734 107.936 24.574 108.043 24.382C108.16 24.1793 108.219 23.9447 108.219 23.678V17.758H109.963V25.118H110.891V26.542H109.739C109.291 26.542 108.955 26.414 108.731 26.158C108.507 25.8913 108.384 25.5233 108.363 25.054H108.283C108.101 25.5447 107.787 25.95 107.339 26.27C106.901 26.5793 106.325 26.734 105.611 26.734ZM108.257 16.19C107.702 16.19 107.286 16.0567 107.009 15.79C106.731 15.5233 106.593 15.15 106.593 14.67V13.55H108.129V14.814H112.289V16.19H108.257ZM116.094 26.734C114.878 26.734 113.934 26.3287 113.262 25.518C112.59 24.6967 112.254 23.5713 112.254 22.142C112.254 21.4487 112.35 20.8193 112.542 20.254C112.744 19.6887 113.027 19.2087 113.39 18.814C113.763 18.4087 114.211 18.0993 114.734 17.886C115.256 17.6727 115.843 17.566 116.494 17.566C117.091 17.566 117.635 17.6567 118.126 17.838C118.616 18.0087 119.032 18.254 119.374 18.574C119.726 18.894 119.992 19.2833 120.174 19.742C120.366 20.19 120.462 20.6913 120.462 21.246V26.542H118.718V21.39C118.718 20.6327 118.515 20.046 118.11 19.63C117.704 19.2033 117.15 18.99 116.446 18.99C115.71 18.99 115.134 19.2193 114.718 19.678C114.312 20.1367 114.11 20.7607 114.11 21.55V22.718C114.11 23.5607 114.291 24.206 114.654 24.654C115.027 25.0913 115.592 25.31 116.35 25.31C116.584 25.31 116.803 25.2887 117.006 25.246L117.214 26.622C117.054 26.6647 116.862 26.6913 116.638 26.702C116.424 26.7233 116.243 26.734 116.094 26.734ZM122.873 17.758H124.617V20.414L126.857 20.094C127.262 20.03 127.577 19.9127 127.801 19.742C128.036 19.5607 128.18 19.2513 128.233 18.814L128.345 17.758H130.153L130.025 18.862C129.972 19.3633 129.78 19.7793 129.449 20.11C129.129 20.43 128.697 20.622 128.153 20.686V20.766C128.473 20.83 128.745 20.9473 128.969 21.118C129.193 21.2887 129.374 21.4913 129.513 21.726C129.662 21.9607 129.774 22.222 129.849 22.51C129.924 22.798 129.977 23.0913 130.009 23.39L130.313 26.542H128.505L128.233 23.262C128.201 22.9953 128.142 22.75 128.057 22.526C127.982 22.302 127.87 22.1153 127.721 21.966C127.572 21.806 127.385 21.694 127.161 21.63C126.937 21.5553 126.67 21.5393 126.361 21.582L124.617 21.822V26.542H122.873V17.758ZM136.913 26.734C136.54 26.734 136.209 26.686 135.921 26.59C135.644 26.5047 135.404 26.3873 135.201 26.238C134.999 26.078 134.828 25.902 134.689 25.71C134.551 25.5073 134.444 25.2993 134.369 25.086H134.289V26.542H132.545V17.758H134.289V23.678C134.289 23.9447 134.348 24.1793 134.465 24.382C134.583 24.574 134.732 24.734 134.913 24.862C135.095 24.99 135.303 25.086 135.537 25.15C135.772 25.2033 136.012 25.23 136.257 25.23C136.929 25.23 137.404 25.0487 137.681 24.686C137.969 24.3127 138.113 23.7953 138.113 23.134V17.758H139.857V23.326C139.857 24.4247 139.601 25.2673 139.089 25.854C138.577 26.4407 137.852 26.734 136.913 26.734ZM146.088 20.59C146.088 20.078 145.954 19.6833 145.688 19.406C145.421 19.1287 145 18.99 144.424 18.99C143.933 18.99 143.538 19.0967 143.24 19.31C142.941 19.5127 142.685 19.7793 142.472 20.11L141.416 19.182C141.704 18.702 142.093 18.3127 142.584 18.014C143.074 17.7153 143.725 17.566 144.536 17.566C145.602 17.566 146.418 17.8167 146.984 18.318C147.549 18.8193 147.832 19.5393 147.832 20.478V26.542H146.088V20.59ZM153.496 26.734C152.387 26.734 151.523 26.5047 150.904 26.046C150.285 25.5873 149.976 24.942 149.976 24.11C149.976 23.598 150.125 23.1607 150.424 22.798C150.733 22.4353 151.128 22.1847 151.608 22.046V21.966C151.075 21.838 150.659 21.5873 150.36 21.214C150.061 20.8407 149.912 20.382 149.912 19.838C149.912 19.1553 150.131 18.606 150.568 18.19C151.016 17.774 151.624 17.566 152.392 17.566C152.627 17.566 152.877 17.5873 153.144 17.63C153.421 17.6727 153.672 17.7527 153.896 17.87L153.528 19.15C153.283 19.0327 153.011 18.974 152.712 18.974C152.339 18.974 152.04 19.0753 151.816 19.278C151.603 19.4807 151.496 19.7527 151.496 20.094C151.496 20.254 151.517 20.4087 151.56 20.558C151.603 20.6967 151.677 20.8247 151.784 20.942C151.891 21.0487 152.035 21.134 152.216 21.198C152.397 21.262 152.627 21.294 152.904 21.294H153.784V22.478H153.032C152.68 22.478 152.376 22.5793 152.12 22.782C151.864 22.9847 151.736 23.2673 151.736 23.63V23.998C151.736 24.4247 151.875 24.75 152.152 24.974C152.429 25.198 152.888 25.31 153.528 25.31C154.2 25.31 154.728 25.134 155.112 24.782C155.507 24.4193 155.704 23.902 155.704 23.23V17.758H157.448V23.47C157.448 23.9713 157.352 24.4247 157.16 24.83C156.979 25.2247 156.712 25.566 156.36 25.854C156.019 26.1313 155.603 26.35 155.112 26.51C154.632 26.6593 154.093 26.734 153.496 26.734Z" fill="white"/>
</svg>
