<svg width="212" height="42" viewBox="0 0 212 42" fill="none" xmlns="http://www.w3.org/2000/svg">
    <rect x="0.935547" width="211" height="42" rx="21" fill="#38B52D"/>
    <path d="M26.6543 19.1562V21.7188C26.6543 21.7812 26.5918 21.8125 26.5293 21.8125H26.123C26.0918 21.8125 26.0293 21.8125 26.0293 21.7812L24.873 20.1875V21.7188C24.873 21.7812 24.8105 21.8125 24.748 21.8125H24.3418C24.2793 21.8125 24.2168 21.7812 24.2168 21.7188V19.1562C24.2168 19.0938 24.2793 19.0625 24.3418 19.0625H24.748C24.7793 19.0625 24.8105 19.0625 24.8418 19.0938L25.998 20.6875V19.1562C25.998 19.0938 26.0605 19.0625 26.123 19.0625H26.5293C26.5918 19.0625 26.6543 19.0938 26.6543 19.1562ZM23.7168 19.0625H23.3105C23.248 19.0625 23.1855 19.0938 23.1855 19.1562V21.7188C23.1855 21.7812 23.248 21.8125 23.3105 21.8125H23.7168C23.7793 21.8125 23.8418 21.7812 23.8418 21.7188V19.1562C23.8418 19.0938 23.7793 19.0625 23.7168 19.0625ZM22.7168 21.1875H21.623V19.1562C21.623 19.0938 21.5605 19.0625 21.498 19.0625H21.0918C21.0293 19.0625 20.9668 19.0938 20.9668 19.1562V21.7188C20.9668 21.75 20.998 21.75 20.998 21.7812C21.0293 21.8125 21.0605 21.8125 21.0918 21.8125H22.7168C22.7793 21.8125 22.8418 21.75 22.8418 21.6875V21.2812C22.8418 21.2188 22.7793 21.1875 22.7168 21.1875ZM28.7793 19.0625H27.1543C27.0918 19.0625 27.0293 19.0938 27.0293 19.1562V21.7188C27.0293 21.75 27.0918 21.8125 27.1543 21.8125H28.7793C28.8418 21.8125 28.9043 21.7812 28.9043 21.7188V21.2812C28.9043 21.2188 28.8418 21.1875 28.7793 21.1875H27.6855V20.75H28.7793C28.8418 20.75 28.9043 20.7188 28.9043 20.625V20.2188C28.9043 20.1562 28.8418 20.125 28.7793 20.125H27.6855V19.6875H28.7793C28.8418 19.6875 28.9043 19.625 28.9043 19.5625V19.1562C28.9043 19.0938 28.8418 19.0625 28.7793 19.0625ZM32.9355 15.9375V26.125C32.9043 27.7188 31.5918 29.0312 29.998 29H19.8105C18.2168 29 16.9043 27.6875 16.9355 26.0938V15.9062C16.9355 14.3125 18.248 13 19.8418 13H30.0293C31.623 13.0312 32.9355 14.3438 32.9355 15.9375ZM30.7168 20.3125C30.7168 17.7188 28.0918 15.5938 24.9043 15.5938C21.6855 15.5938 19.0605 17.7188 19.0605 20.3125C19.0605 22.6562 21.1543 24.5938 23.9355 24.9688C24.623 25.125 24.5605 25.375 24.4043 26.2812C24.373 26.4375 24.2793 26.875 24.9043 26.5938C25.5293 26.3438 28.248 24.625 29.4668 23.2188C30.3105 22.3125 30.7168 21.3438 30.7168 20.3125Z" fill="white"/>
    <path d="M49.8795 26.192C49.2929 26.192 48.7649 26.112 48.2955 25.952C47.8369 25.7813 47.4422 25.5467 47.1115 25.248C46.7915 24.9387 46.5409 24.5707 46.3595 24.144C46.1889 23.7067 46.1035 23.2213 46.1035 22.688V17.216H47.8475V22.56C47.8475 23.264 48.0235 23.808 48.3755 24.192C48.7382 24.576 49.2395 24.768 49.8795 24.768C50.5195 24.768 51.0155 24.576 51.3675 24.192C51.7302 23.808 51.9115 23.264 51.9115 22.56V14.272H53.6555V22.688C53.6555 23.2213 53.5649 23.7067 53.3835 24.144C53.2129 24.5707 52.9622 24.9387 52.6315 25.248C52.3115 25.5467 51.9169 25.7813 51.4475 25.952C50.9889 26.112 50.4662 26.192 49.8795 26.192ZM59.2102 26.192C58.3888 26.192 57.6902 26.0533 57.1142 25.776C56.5488 25.488 56.0528 25.088 55.6262 24.576L56.7302 23.536C57.0502 23.9413 57.4235 24.2507 57.8502 24.464C58.2768 24.6773 58.7622 24.784 59.3062 24.784C59.8822 24.784 60.3088 24.6827 60.5862 24.48C60.8742 24.2667 61.0182 23.968 61.0182 23.584C61.0182 23.2427 60.9062 22.9813 60.6822 22.8C60.4688 22.608 60.1275 22.48 59.6582 22.416L58.8422 22.304C58.4475 22.2507 58.0742 22.1653 57.7222 22.048C57.3702 21.9307 57.0608 21.7707 56.7942 21.568C56.5382 21.3653 56.3302 21.1147 56.1702 20.816C56.0208 20.5173 55.9462 20.1493 55.9462 19.712C55.9462 19.2853 56.0262 18.9067 56.1862 18.576C56.3462 18.2347 56.5702 17.952 56.8582 17.728C57.1462 17.4933 57.4875 17.3173 57.8822 17.2C58.2875 17.0827 58.7302 17.024 59.2102 17.024C60.0102 17.024 60.6662 17.1467 61.1782 17.392C61.6902 17.6267 62.1435 17.9573 62.5382 18.384L61.4822 19.44C61.2368 19.1627 60.9222 18.928 60.5382 18.736C60.1542 18.544 59.7115 18.448 59.2102 18.448C58.6875 18.448 58.2928 18.5493 58.0262 18.752C57.7595 18.9547 57.6262 19.232 57.6262 19.584C57.6262 19.9573 57.7488 20.2347 57.9942 20.416C58.2395 20.5973 58.6022 20.72 59.0822 20.784L59.8982 20.912C60.3142 20.976 60.6928 21.0667 61.0342 21.184C61.3862 21.3013 61.6848 21.4613 61.9302 21.664C62.1755 21.856 62.3622 22.096 62.4902 22.384C62.6288 22.672 62.6982 23.0187 62.6982 23.424C62.6982 23.84 62.6128 24.2187 62.4422 24.56C62.2822 24.9013 62.0475 25.1947 61.7382 25.44C61.4395 25.6747 61.0715 25.8613 60.6342 26C60.2075 26.128 59.7328 26.192 59.2102 26.192ZM55.7739 14.272H60.0299C60.0193 14.208 60.0139 14.16 60.0139 14.128C60.0139 14.096 60.0139 14.0533 60.0139 14C60.0139 13.4987 60.1739 13.104 60.4939 12.816C60.8139 12.528 61.2406 12.384 61.7739 12.384C62.3073 12.384 62.7339 12.528 63.0539 12.816C63.3739 13.104 63.5339 13.4987 63.5339 14C63.5339 14.512 63.3739 14.9173 63.0539 15.216C62.7339 15.504 62.3073 15.648 61.7739 15.648H55.7739V14.272ZM61.7739 14.752C62.0086 14.752 62.1899 14.6933 62.3179 14.576C62.4459 14.4587 62.5099 14.2987 62.5099 14.096V13.936C62.5099 13.7333 62.4459 13.5733 62.3179 13.456C62.1899 13.3387 62.0086 13.28 61.7739 13.28C61.5499 13.28 61.3739 13.3387 61.2459 13.456C61.1179 13.5733 61.0539 13.7333 61.0539 13.936V14.096C61.0539 14.2987 61.1179 14.4587 61.2459 14.576C61.3739 14.6933 61.5499 14.752 61.7739 14.752ZM65.53 21.152L64.154 20.576C64.1967 20.0533 64.3247 19.5733 64.538 19.136C64.762 18.6987 65.0554 18.3253 65.418 18.016C65.7807 17.696 66.2074 17.4507 66.698 17.28C67.1887 17.1093 67.722 17.024 68.298 17.024C69.5674 17.024 70.554 17.3493 71.258 18C71.962 18.64 72.314 19.5093 72.314 20.608V26H70.57V20.832C70.57 20.064 70.362 19.4773 69.946 19.072C69.53 18.656 68.9594 18.448 68.234 18.448C67.6474 18.448 67.13 18.5813 66.682 18.848C66.2447 19.104 65.946 19.4507 65.786 19.888L66.474 20.16C66.7727 20.2773 66.9807 20.416 67.098 20.576C67.2154 20.7253 67.274 20.9493 67.274 21.248V26H65.53V21.152ZM78.5384 26.192C77.9411 26.192 77.4024 26.112 76.9224 25.952C76.4424 25.7813 76.0318 25.5467 75.6904 25.248C75.3598 24.9387 75.1038 24.5707 74.9224 24.144C74.7411 23.7173 74.6504 23.2373 74.6504 22.704V17.216H76.3944V22.56C76.3944 23.2533 76.5811 23.7973 76.9544 24.192C77.3384 24.576 77.8664 24.768 78.5384 24.768C79.2104 24.768 79.7331 24.576 80.1064 24.192C80.4904 23.7973 80.6824 23.2533 80.6824 22.56V22H79.3064C78.3038 22 77.8024 21.5733 77.8024 20.72V19.808H79.3224V20.736H80.6824V17.216H82.4264V20.736H83.5304V22H82.4264V22.704C82.4264 23.2373 82.3358 23.7173 82.1544 24.144C81.9731 24.5707 81.7118 24.9387 81.3704 25.248C81.0398 25.5467 80.6344 25.7813 80.1544 25.952C79.6744 26.112 79.1358 26.192 78.5384 26.192ZM89.1325 20.048C89.1325 19.536 88.9992 19.1413 88.7325 18.864C88.4659 18.5867 88.0445 18.448 87.4685 18.448C86.9779 18.448 86.5832 18.5547 86.2845 18.768C85.9859 18.9707 85.7299 19.2373 85.5165 19.568L84.4605 18.64C84.7485 18.16 85.1379 17.7707 85.6285 17.472C86.1192 17.1733 86.7699 17.024 87.5805 17.024C88.6472 17.024 89.4632 17.2747 90.0285 17.776C90.5939 18.2773 90.8765 18.9973 90.8765 19.936V26H89.1325V20.048ZM92.1569 28.416L96.5889 14.16H98.0929L93.6609 28.416H92.1569ZM102.765 26.192C101.847 26.192 101.138 25.8987 100.637 25.312C100.135 24.7147 99.8848 23.872 99.8848 22.784V17.216H101.629V22.592C101.629 23.2747 101.767 23.7973 102.045 24.16C102.333 24.512 102.791 24.688 103.421 24.688C103.655 24.688 103.89 24.6613 104.125 24.608C104.359 24.544 104.567 24.448 104.749 24.32C104.941 24.192 105.09 24.032 105.197 23.84C105.314 23.6373 105.373 23.4027 105.373 23.136V17.216H107.117V24.576H108.045V26H106.893C106.445 26 106.109 25.872 105.885 25.616C105.661 25.3493 105.538 24.9813 105.517 24.512H105.437C105.255 25.0027 104.941 25.408 104.493 25.728C104.055 26.0373 103.479 26.192 102.765 26.192ZM105.411 15.648C104.856 15.648 104.44 15.5147 104.163 15.248C103.886 14.9813 103.747 14.608 103.747 14.128V13.008H105.283V14.272H109.443V15.648H105.411ZM113.248 26.192C112.032 26.192 111.088 25.7867 110.416 24.976C109.744 24.1547 109.408 23.0293 109.408 21.6C109.408 20.9067 109.504 20.2773 109.696 19.712C109.898 19.1467 110.181 18.6667 110.544 18.272C110.917 17.8667 111.365 17.5573 111.888 17.344C112.41 17.1307 112.997 17.024 113.648 17.024C114.245 17.024 114.789 17.1147 115.28 17.296C115.77 17.4667 116.186 17.712 116.528 18.032C116.88 18.352 117.146 18.7413 117.328 19.2C117.52 19.648 117.616 20.1493 117.616 20.704V26H115.872V20.848C115.872 20.0907 115.669 19.504 115.264 19.088C114.858 18.6613 114.304 18.448 113.6 18.448C112.864 18.448 112.288 18.6773 111.872 19.136C111.466 19.5947 111.264 20.2187 111.264 21.008V22.176C111.264 23.0187 111.445 23.664 111.808 24.112C112.181 24.5493 112.746 24.768 113.504 24.768C113.738 24.768 113.957 24.7467 114.16 24.704L114.368 26.08C114.208 26.1227 114.016 26.1493 113.792 26.16C113.578 26.1813 113.397 26.192 113.248 26.192ZM120.027 17.216H121.771V19.872L124.011 19.552C124.417 19.488 124.731 19.3707 124.955 19.2C125.19 19.0187 125.334 18.7093 125.387 18.272L125.499 17.216H127.307L127.179 18.32C127.126 18.8213 126.934 19.2373 126.603 19.568C126.283 19.888 125.851 20.08 125.307 20.144V20.224C125.627 20.288 125.899 20.4053 126.123 20.576C126.347 20.7467 126.529 20.9493 126.667 21.184C126.817 21.4187 126.929 21.68 127.003 21.968C127.078 22.256 127.131 22.5493 127.163 22.848L127.467 26H125.659L125.387 22.72C125.355 22.4533 125.297 22.208 125.211 21.984C125.137 21.76 125.025 21.5733 124.875 21.424C124.726 21.264 124.539 21.152 124.315 21.088C124.091 21.0133 123.825 20.9973 123.515 21.04L121.771 21.28V26H120.027V17.216ZM134.068 26.192C133.694 26.192 133.364 26.144 133.076 26.048C132.798 25.9627 132.558 25.8453 132.356 25.696C132.153 25.536 131.982 25.36 131.844 25.168C131.705 24.9653 131.598 24.7573 131.524 24.544H131.444V26H129.7V17.216H131.444V23.136C131.444 23.4027 131.502 23.6373 131.62 23.84C131.737 24.032 131.886 24.192 132.068 24.32C132.249 24.448 132.457 24.544 132.692 24.608C132.926 24.6613 133.166 24.688 133.412 24.688C134.084 24.688 134.558 24.5067 134.836 24.144C135.124 23.7707 135.268 23.2533 135.268 22.592V17.216H137.012V22.784C137.012 23.8827 136.756 24.7253 136.244 25.312C135.732 25.8987 135.006 26.192 134.068 26.192ZM143.242 20.048C143.242 19.536 143.109 19.1413 142.842 18.864C142.575 18.5867 142.154 18.448 141.578 18.448C141.087 18.448 140.693 18.5547 140.394 18.768C140.095 18.9707 139.839 19.2373 139.626 19.568L138.57 18.64C138.858 18.16 139.247 17.7707 139.738 17.472C140.229 17.1733 140.879 17.024 141.69 17.024C142.757 17.024 143.573 17.2747 144.138 17.776C144.703 18.2773 144.986 18.9973 144.986 19.936V26H143.242V20.048ZM150.65 26.192C149.541 26.192 148.677 25.9627 148.058 25.504C147.44 25.0453 147.13 24.4 147.13 23.568C147.13 23.056 147.28 22.6187 147.578 22.256C147.888 21.8933 148.282 21.6427 148.762 21.504V21.424C148.229 21.296 147.813 21.0453 147.514 20.672C147.216 20.2987 147.066 19.84 147.066 19.296C147.066 18.6133 147.285 18.064 147.722 17.648C148.17 17.232 148.778 17.024 149.546 17.024C149.781 17.024 150.032 17.0453 150.298 17.088C150.576 17.1307 150.826 17.2107 151.05 17.328L150.682 18.608C150.437 18.4907 150.165 18.432 149.866 18.432C149.493 18.432 149.194 18.5333 148.97 18.736C148.757 18.9387 148.65 19.2107 148.65 19.552C148.65 19.712 148.672 19.8667 148.714 20.016C148.757 20.1547 148.832 20.2827 148.938 20.4C149.045 20.5067 149.189 20.592 149.37 20.656C149.552 20.72 149.781 20.752 150.058 20.752H150.938V21.936H150.186C149.834 21.936 149.53 22.0373 149.274 22.24C149.018 22.4427 148.89 22.7253 148.89 23.088V23.456C148.89 23.8827 149.029 24.208 149.306 24.432C149.584 24.656 150.042 24.768 150.682 24.768C151.354 24.768 151.882 24.592 152.266 24.24C152.661 23.8773 152.858 23.36 152.858 22.688V17.216H154.602V22.928C154.602 23.4293 154.506 23.8827 154.314 24.288C154.133 24.6827 153.866 25.024 153.514 25.312C153.173 25.5893 152.757 25.808 152.266 25.968C151.786 26.1173 151.248 26.192 150.65 26.192ZM159.188 26C158.58 26 158.126 25.8453 157.828 25.536C157.54 25.2267 157.396 24.7947 157.396 24.24V15.536C157.396 15.216 157.438 14.9333 157.524 14.688C157.609 14.4427 157.721 14.2347 157.86 14.064C157.998 13.8827 158.158 13.7333 158.34 13.616C158.532 13.4987 158.729 13.408 158.932 13.344V13.28H155.46V11.888H160.804V13.28H160.612C160.142 13.28 159.78 13.4187 159.524 13.696C159.268 13.9627 159.14 14.3467 159.14 14.848V24.576H160.388V26H159.188ZM165.545 26.192C164.329 26.192 163.385 25.7867 162.713 24.976C162.041 24.1547 161.705 23.0293 161.705 21.6C161.705 20.9067 161.801 20.2773 161.993 19.712C162.195 19.1467 162.478 18.6667 162.841 18.272C163.214 17.8667 163.662 17.5573 164.185 17.344C164.707 17.1307 165.294 17.024 165.945 17.024C166.542 17.024 167.086 17.1147 167.577 17.296C168.067 17.4667 168.483 17.712 168.825 18.032C169.177 18.352 169.443 18.7413 169.625 19.2C169.817 19.648 169.913 20.1493 169.913 20.704V26H168.169V20.848C168.169 20.0907 167.966 19.504 167.561 19.088C167.155 18.6613 166.601 18.448 165.897 18.448C165.161 18.448 164.585 18.6773 164.169 19.136C163.763 19.5947 163.561 20.2187 163.561 21.008V22.176C163.561 23.0187 163.742 23.664 164.105 24.112C164.478 24.5493 165.043 24.768 165.801 24.768C166.035 24.768 166.254 24.7467 166.457 24.704L166.665 26.08C166.505 26.1227 166.313 26.1493 166.089 26.16C165.875 26.1813 165.694 26.192 165.545 26.192ZM167.04 14.272H168.176V13.712C168.176 13.4773 168.128 13.312 168.032 13.216C167.925 13.1093 167.739 13.056 167.472 13.056H167.04V11.808H168.112C168.624 11.808 169.013 11.92 169.28 12.144C169.536 12.3573 169.664 12.6507 169.664 13.024C169.664 13.248 169.605 13.472 169.488 13.696C169.36 13.9093 169.173 14.0747 168.928 14.192V14.272H171.808V15.52H167.04V14.272ZM172.324 17.216H174.068V18.672H174.148C174.223 18.4587 174.33 18.256 174.468 18.064C174.607 17.8613 174.778 17.6853 174.98 17.536C175.183 17.376 175.423 17.2533 175.7 17.168C175.988 17.072 176.319 17.024 176.692 17.024C177.631 17.024 178.356 17.3173 178.868 17.904C179.38 18.4907 179.636 19.3333 179.636 20.432V26H177.892V20.624C177.892 19.9627 177.748 19.4507 177.46 19.088C177.183 18.7147 176.708 18.528 176.036 18.528C175.791 18.528 175.551 18.56 175.316 18.624C175.082 18.6773 174.874 18.768 174.692 18.896C174.511 19.024 174.362 19.1893 174.244 19.392C174.127 19.584 174.068 19.8133 174.068 20.08V26H172.324V17.216ZM172.743 14.272H178.007V13.008H179.639V15.648H172.743V14.272ZM178.119 9.68H179.639V12.128H178.119V9.68ZM184.859 26.192C183.941 26.192 183.232 25.8987 182.731 25.312C182.229 24.7147 181.979 23.872 181.979 22.784V17.216H183.723V22.592C183.723 23.2747 183.861 23.7973 184.139 24.16C184.427 24.512 184.885 24.688 185.515 24.688C185.749 24.688 185.984 24.6613 186.219 24.608C186.453 24.544 186.661 24.448 186.843 24.32C187.035 24.192 187.184 24.032 187.291 23.84C187.408 23.6373 187.467 23.4027 187.467 23.136V17.216H189.211V24.576H190.139V26H188.987C188.539 26 188.203 25.872 187.979 25.616C187.755 25.3493 187.632 24.9813 187.611 24.512H187.531C187.349 25.0027 187.035 25.408 186.587 25.728C186.149 26.0373 185.573 26.192 184.859 26.192ZM182.321 14.272H187.585V13.008H189.217V15.648H182.321V14.272ZM187.697 9.68H189.217V12.128H187.697V9.68Z" fill="white"/>
</svg>
