<svg width="65" height="49" viewBox="0 0 65 49" fill="none" xmlns="http://www.w3.org/2000/svg">
    <path d="M32.5 5.04199C29.7812 5.04199 27.3438 6.54199 25.9375 8.79199C24.625 11.1357 24.625 14.042 25.9375 16.292C27.3438 18.6357 29.7812 20.042 32.5 20.042C35.125 20.042 37.5625 18.6357 38.9688 16.292C40.2812 14.042 40.2812 11.1357 38.9688 8.79199C37.5625 6.54199 35.125 5.04199 32.5 5.04199ZM20.5 12.542C20.5 8.32324 22.75 4.38574 26.5 2.22949C30.1562 0.0732422 34.75 0.0732422 38.5 2.22949C42.1562 4.38574 44.5 8.32324 44.5 12.542C44.5 16.8545 42.1562 20.792 38.5 22.9482C34.75 25.1045 30.1562 25.1045 26.5 22.9482C22.75 20.792 20.5 16.8545 20.5 12.542ZM26.5 33.6357V38.3232C28.6562 38.9795 30.25 40.9482 30.25 43.292C30.25 46.1982 27.8125 48.542 25 48.542C22.0938 48.542 19.75 46.1982 19.75 43.292C19.75 40.9482 21.25 38.9795 23.5 38.3232V34.4795C19.0938 36.2607 16 40.5732 16 45.542V46.292C16 47.6045 14.9688 48.542 13.75 48.542C12.4375 48.542 11.5 47.6045 11.5 46.292V45.542C11.5 36.4482 18.8125 29.042 28 29.042H37C46.0938 29.042 53.5 36.4482 53.5 45.542V46.292C53.5 47.6045 52.4688 48.542 51.25 48.542C49.9375 48.542 49 47.6045 49 46.292V45.542C49 40.5732 45.8125 36.2607 41.5 34.4795V38.2295C44.0312 38.9795 46 41.3232 46 44.042V47.042C46 47.8857 45.25 48.542 44.5 48.542H42.25C41.4062 48.542 40.75 47.8857 40.75 47.042C40.75 46.292 41.4062 45.542 42.25 45.542H43V44.042C43 42.4482 41.5938 41.042 40 41.042C38.3125 41.042 37 42.4482 37 44.042V45.542H37.75C38.5 45.542 39.25 46.292 39.25 47.042C39.25 47.8857 38.5 48.542 37.75 48.542H35.5C34.6562 48.542 34 47.8857 34 47.042V44.042C34 41.3232 35.875 38.9795 38.5 38.2295V33.6357C37.9375 33.6357 37.4688 33.542 37 33.542H28C27.4375 33.542 26.9688 33.6357 26.5 33.6357ZM25 41.042C23.6875 41.042 22.75 42.0732 22.75 43.292C22.75 44.6045 23.6875 45.542 25 45.542C26.2188 45.542 27.25 44.6045 27.25 43.292C27.25 42.0732 26.2188 41.042 25 41.042Z" fill="#508EC8"/>
</svg>
