<svg width="40" height="41" viewBox="0 0 40 41" fill="none" xmlns="http://www.w3.org/2000/svg">
    <g clip-path="url(#clip0_8119_11184)">
        <path d="M20 40.542C31.0457 40.542 40 31.5877 40 20.542C40 9.4963 31.0457 0.541992 20 0.541992C8.95431 0.541992 0 9.4963 0 20.542C0 31.5877 8.95431 40.542 20 40.542Z" fill="#4A85FF"/>
        <path d="M25.0278 21.3249H21.459V34.3992H16.052V21.3249H13.4805V16.7301H16.052V13.7567C16.052 11.6304 17.0621 8.3009 21.5071 8.3009L25.5123 8.31766V12.7777H22.6063C22.1296 12.7777 21.4594 13.0159 21.4594 14.0302V16.7344H25.5001L25.0278 21.3249Z" fill="white"/>
    </g>
    <defs>
        <clipPath id="clip0_8119_11184">
            <rect width="40" height="40" fill="white" transform="translate(0 0.541992)"/>
        </clipPath>
    </defs>
</svg>
