<svg width="40" height="41" viewBox="0 0 40 41" fill="none" xmlns="http://www.w3.org/2000/svg">
    <g clip-path="url(#clip0_8119_11196)">
        <path d="M20 40.542C31.0457 40.542 40 31.5877 40 20.542C40 9.4963 31.0457 0.541992 20 0.541992C8.9543 0.541992 0 9.4963 0 20.542C0 31.5877 8.9543 40.542 20 40.542Z" fill="#39CD00"/>
        <path d="M32.5 20.0875C32.4822 20.3414 32.4496 20.5942 32.4023 20.8443C32.2442 21.8021 31.9204 22.725 31.4455 23.5716C31.2182 23.9761 30.125 25.5125 29.7909 25.917C27.9432 28.142 24.8477 30.7102 19.675 33.2079C19.5659 33.2607 19.4447 33.2833 19.3239 33.2736C19.2031 33.2639 19.087 33.2222 18.9877 33.1527C18.8884 33.0833 18.8094 32.9886 18.7588 32.8785C18.7082 32.7683 18.6879 32.6467 18.7 32.5261L18.9614 30.1784C18.9811 29.9988 18.9288 29.8187 18.8159 29.6776C18.703 29.5366 18.5387 29.4461 18.3591 29.4261C16.6383 29.254 14.962 28.776 13.4091 28.0148C9.86364 26.2625 7.5 23.1329 7.5 19.567C7.5 14.0761 13.0955 9.63293 20 9.63293C23.4682 9.63293 26.6045 10.7693 28.8636 12.5716C30.9795 14.2648 32.3341 16.5625 32.4795 19.1125C32.5038 19.4369 32.5106 19.7623 32.5 20.0875Z" fill="white"/>
        <path d="M16.554 21.7674C16.6145 21.8266 16.6623 21.8973 16.6947 21.9754C16.7272 22.0535 16.7435 22.1374 16.7426 22.222C16.7429 22.306 16.7266 22.3893 16.6947 22.4671C16.6627 22.5448 16.6157 22.6155 16.5564 22.675C16.497 22.7346 16.4265 22.7818 16.3489 22.814C16.2713 22.8463 16.188 22.8629 16.104 22.8629H13.5472C13.3774 22.8623 13.2147 22.7946 13.0946 22.6745C12.9746 22.5544 12.9069 22.3918 12.9063 22.222V17.3924C12.9057 17.3079 12.9221 17.2241 12.9545 17.146C12.9869 17.0679 13.0346 16.9972 13.0949 16.9379C13.1844 16.8481 13.2985 16.787 13.4228 16.7624C13.547 16.7377 13.6759 16.7505 13.7928 16.7992C13.9098 16.848 14.0096 16.9304 14.0796 17.036C14.1496 17.1417 14.1865 17.2657 14.1858 17.3924V21.5811H16.104C16.1877 21.5804 16.2706 21.5966 16.3479 21.6286C16.4252 21.6606 16.4953 21.7078 16.554 21.7674Z" fill="#00C200"/>
        <path d="M18.636 17.254V22.3609C18.6354 22.4933 18.5825 22.6201 18.4889 22.7138C18.3952 22.8074 18.2684 22.8603 18.136 22.8609H17.8496C17.717 22.8609 17.5898 22.8082 17.4961 22.7144C17.4023 22.6207 17.3496 22.4935 17.3496 22.3609V17.254C17.3496 17.1214 17.4023 16.9943 17.4961 16.9005C17.5898 16.8067 17.717 16.754 17.8496 16.754H18.1292C18.1953 16.7534 18.2609 16.7659 18.3222 16.7908C18.3836 16.8156 18.4394 16.8523 18.4865 16.8987C18.5335 16.9452 18.571 17.0005 18.5967 17.0615C18.6223 17.1225 18.6357 17.1879 18.636 17.254Z" fill="#00C200"/>
        <path d="M24.5724 17.3928V22.195C24.5725 22.3678 24.5054 22.5338 24.3854 22.658C24.2654 22.7823 24.1018 22.855 23.9292 22.8609C23.7674 22.8583 23.6124 22.7951 23.4951 22.6837C23.4724 22.6655 22.6133 21.5473 21.8837 20.6064C21.3383 19.9041 20.8655 19.2905 20.8655 19.2905V22.22C20.866 22.3442 20.8302 22.4658 20.7626 22.5699C20.695 22.6741 20.5985 22.7563 20.4849 22.8064C20.3713 22.8566 20.2456 22.8726 20.123 22.8524C20.0005 22.8322 19.8866 22.7767 19.7951 22.6927C19.7291 22.633 19.6764 22.56 19.6404 22.4786C19.6044 22.3971 19.5858 22.3091 19.586 22.22V17.42C19.5839 17.2513 19.6466 17.0882 19.7612 16.9643C19.8758 16.8404 20.0335 16.7652 20.2019 16.7541C20.2972 16.7526 20.3917 16.7721 20.4785 16.8114C20.5654 16.8507 20.6424 16.9088 20.7042 16.9814C20.7314 17.0132 22.0519 18.7314 22.7951 19.7087C23.0905 20.0905 23.2951 20.3587 23.2951 20.3587V17.4041C23.2963 17.2351 23.3639 17.0734 23.4834 16.9538C23.603 16.8343 23.7647 16.7667 23.9337 16.7655C24.1011 16.7655 24.2619 16.8312 24.3813 16.9485C24.5008 17.0658 24.5694 17.2254 24.5724 17.3928Z" fill="#00C200"/>
        <path d="M26.8176 20.4451V21.5815H28.7335C28.8207 21.5763 28.9081 21.5889 28.9903 21.6187C29.0724 21.6485 29.1476 21.6948 29.2112 21.7548C29.2748 21.8147 29.3254 21.887 29.3601 21.9672C29.3947 22.0474 29.4126 22.1339 29.4126 22.2212C29.4126 22.3086 29.3947 22.3951 29.3601 22.4753C29.3254 22.5555 29.2748 22.6278 29.2112 22.6877C29.1476 22.7476 29.0724 22.7939 28.9903 22.8237C28.9081 22.8535 28.8207 22.8662 28.7335 22.861H26.1699C26.0003 22.8604 25.8379 22.7926 25.7182 22.6725C25.5985 22.5524 25.5312 22.3897 25.5313 22.2201V17.3928C25.5318 17.2236 25.5993 17.0615 25.719 16.9419C25.8386 16.8223 26.0007 16.7548 26.1699 16.7542H28.7267C28.8139 16.749 28.9013 16.7617 28.9834 16.7915C29.0656 16.8213 29.1408 16.8676 29.2043 16.9275C29.2679 16.9874 29.3186 17.0597 29.3533 17.1399C29.3879 17.2201 29.4058 17.3066 29.4058 17.394C29.4058 17.4813 29.3879 17.5678 29.3533 17.648C29.3186 17.7282 29.2679 17.8005 29.2043 17.8604C29.1408 17.9204 29.0656 17.9666 28.9834 17.9964C28.9013 18.0262 28.8139 18.0389 28.7267 18.0337H26.8176V19.1701H28.7335C28.9029 19.1701 29.0653 19.2374 29.1851 19.3571C29.3049 19.4769 29.3722 19.6394 29.3722 19.8087C29.3722 19.9781 29.3049 20.1406 29.1851 20.2603C29.0653 20.3801 28.9029 20.4474 28.7335 20.4474L26.8176 20.4451Z" fill="#00C200"/>
    </g>
    <defs>
        <clipPath id="clip0_8119_11196">
            <rect width="40" height="40" fill="white" transform="translate(0 0.541992)"/>
        </clipPath>
    </defs>
</svg>
