<svg width="138" height="42" viewBox="0 0 138 42" fill="none" xmlns="http://www.w3.org/2000/svg">
    <rect width="138" height="42" rx="21" fill="#34539B"/>
    <path d="M20.688 26.192C20.1547 26.192 19.6533 26.1173 19.184 25.968C18.7253 25.808 18.3253 25.5947 17.984 25.328C17.6533 25.0507 17.392 24.72 17.2 24.336C17.008 23.952 16.912 23.5253 16.912 23.056V22.256C16.912 21.8827 16.9973 21.5947 17.168 21.392C17.3387 21.1787 17.648 21.072 18.096 21.072H19.888V22.448H18.56V22.928C18.56 23.568 18.7573 24.0373 19.152 24.336C19.5573 24.624 20.096 24.768 20.768 24.768C21.4613 24.768 21.9947 24.5547 22.368 24.128C22.752 23.7013 22.944 23.0987 22.944 22.32V20.944C22.944 20.1547 22.7307 19.5413 22.304 19.104C21.888 18.6667 21.296 18.448 20.528 18.448C19.888 18.448 19.3387 18.5813 18.88 18.848C18.432 19.1147 18.0907 19.4347 17.856 19.808L16.768 18.832C17.0773 18.32 17.552 17.8933 18.192 17.552C18.832 17.2 19.6373 17.024 20.608 17.024C21.9307 17.024 22.96 17.4293 23.696 18.24C24.432 19.04 24.8 20.16 24.8 21.6C24.8 22.304 24.7093 22.944 24.528 23.52C24.3467 24.0853 24.08 24.5653 23.728 24.96C23.376 25.3547 22.944 25.6587 22.432 25.872C21.92 26.0853 21.3387 26.192 20.688 26.192ZM22.6012 12.544H24.2332V15.648H22.6012V12.544ZM30.5251 20.048C30.5251 19.536 30.3918 19.1413 30.1251 18.864C29.8585 18.5867 29.4371 18.448 28.8611 18.448C28.3705 18.448 27.9758 18.5547 27.6771 18.768C27.3785 18.9707 27.1225 19.2373 26.9091 19.568L25.8531 18.64C26.1411 18.16 26.5305 17.7707 27.0211 17.472C27.5118 17.1733 28.1625 17.024 28.9731 17.024C30.0398 17.024 30.8558 17.2747 31.4211 17.776C31.9865 18.2773 32.2691 18.9973 32.2691 19.936V26H30.5251V20.048ZM37.4855 26.192C36.5682 26.192 35.8588 25.8987 35.3575 25.312C34.8562 24.7147 34.6055 23.872 34.6055 22.784V17.216H36.3495V22.592C36.3495 23.2747 36.4882 23.7973 36.7655 24.16C37.0535 24.512 37.5122 24.688 38.1415 24.688C38.3762 24.688 38.6108 24.6613 38.8455 24.608C39.0802 24.544 39.2882 24.448 39.4695 24.32C39.6615 24.192 39.8108 24.032 39.9175 23.84C40.0348 23.6373 40.0935 23.4027 40.0935 23.136V17.216H41.8375V24.576H42.7655V26H41.6135C41.1655 26 40.8295 25.872 40.6055 25.616C40.3815 25.3493 40.2588 24.9813 40.2375 24.512H40.1575C39.9762 25.0027 39.6615 25.408 39.2135 25.728C38.7762 26.0373 38.2002 26.192 37.4855 26.192ZM46.7205 26C46.1125 26 45.6645 25.8453 45.3765 25.536C45.0885 25.2267 44.9445 24.7947 44.9445 24.24V17.216H46.6885V24.576H47.9365V26H46.7205ZM49.3815 17.216H51.0295L51.5575 21.552L51.7495 24.016H51.8455L52.4535 21.552L53.6375 17.216H54.9655L56.1495 21.552L56.7575 24.016H56.8535L57.0455 21.552L57.5735 17.216H59.1895L57.9415 26H56.0855L54.7895 21.008L54.3255 19.072H54.2455L53.7815 21.008L52.4855 26H50.6295L49.3815 17.216ZM52.3071 14.272H59.2031V15.648H52.3071V14.272ZM57.6831 9.68H59.2031V12.128H57.6831V9.68ZM65.7726 26.192C65.3993 26.192 65.0686 26.144 64.7806 26.048C64.5033 25.9627 64.2633 25.8453 64.0606 25.696C63.858 25.536 63.6873 25.36 63.5486 25.168C63.41 24.9653 63.3033 24.7573 63.2286 24.544H63.1486V26H61.4046V17.216H63.1486V23.136C63.1486 23.4027 63.2073 23.6373 63.3246 23.84C63.442 24.032 63.5913 24.192 63.7726 24.32C63.954 24.448 64.162 24.544 64.3966 24.608C64.6313 24.6613 64.8713 24.688 65.1166 24.688C65.7886 24.688 66.2633 24.5067 66.5406 24.144C66.8286 23.7707 66.9726 23.2533 66.9726 22.592V17.216H68.7166V22.784C68.7166 23.8827 68.4606 24.7253 67.9486 25.312C67.4366 25.8987 66.7113 26.192 65.7726 26.192ZM73.283 26C72.675 26 72.227 25.8453 71.939 25.536C71.651 25.2267 71.507 24.7947 71.507 24.24V17.216H73.251V24.576H74.499V26H73.283ZM79.736 26.192C78.4773 26.192 77.5067 25.7973 76.824 25.008C76.152 24.208 75.816 23.0613 75.816 21.568C75.816 20.1067 76.04 18.9867 76.488 18.208C76.936 17.4187 77.624 17.024 78.552 17.024C79.0107 17.024 79.3947 17.1573 79.704 17.424C80.0133 17.68 80.2107 18.0373 80.296 18.496H80.392C80.488 18.0373 80.712 17.68 81.064 17.424C81.416 17.1573 81.848 17.024 82.36 17.024C83.0107 17.024 83.5227 17.2373 83.896 17.664C84.2693 18.08 84.456 18.672 84.456 19.44V26H82.712V19.584C82.712 19.2107 82.6373 18.9333 82.488 18.752C82.3387 18.5707 82.1253 18.48 81.848 18.48C81.5067 18.48 81.272 18.608 81.144 18.864C81.016 19.1093 80.9307 19.392 80.888 19.712H79.8C79.7787 19.552 79.7467 19.3973 79.704 19.248C79.672 19.0987 79.6187 18.9707 79.544 18.864C79.4693 18.7467 79.3733 18.656 79.256 18.592C79.1493 18.5173 79.0107 18.48 78.84 18.48C78.4027 18.48 78.0987 18.6933 77.928 19.12C77.7573 19.536 77.672 20.0907 77.672 20.784V22.256C77.672 22.64 77.7147 22.9867 77.8 23.296C77.8853 23.6053 78.0187 23.872 78.2 24.096C78.392 24.3093 78.632 24.4747 78.92 24.592C79.2187 24.7093 79.5813 24.768 80.008 24.768C80.1147 24.768 80.2267 24.7627 80.344 24.752C80.4613 24.7413 80.5787 24.7253 80.696 24.704L80.888 26.08C80.7173 26.1227 80.5253 26.1493 80.312 26.16C80.1093 26.1813 79.9173 26.192 79.736 26.192ZM77.5571 14.272H84.4531V15.648H77.5571V14.272ZM91.257 26.192C90.8837 26.192 90.553 26.144 90.265 26.048C89.9877 25.9627 89.7477 25.8453 89.545 25.696C89.3423 25.536 89.1717 25.36 89.033 25.168C88.8943 24.9653 88.7877 24.7573 88.713 24.544H88.633V26H86.889V17.216H88.633V23.136C88.633 23.4027 88.6917 23.6373 88.809 23.84C88.9263 24.032 89.0757 24.192 89.257 24.32C89.4383 24.448 89.6463 24.544 89.881 24.608C90.1157 24.6613 90.3557 24.688 90.601 24.688C91.273 24.688 91.7477 24.5067 92.025 24.144C92.313 23.7707 92.457 23.2533 92.457 22.592V17.216H94.201V22.784C94.201 23.8827 93.945 24.7253 93.433 25.312C92.921 25.8987 92.1957 26.192 91.257 26.192Z" fill="white"/>
    <path d="M121.688 21.7188L116.688 26.7188C116.312 27.125 115.656 27.125 115.281 26.7188C114.875 26.3438 114.875 25.6875 115.281 25.3125L118.562 22H109C108.438 22 108 21.5625 108 21C108 20.4688 108.438 20 109 20H118.562L115.281 16.7188C114.875 16.3438 114.875 15.6875 115.281 15.3125C115.656 14.9062 116.312 14.9062 116.688 15.3125L121.688 20.3125C122.094 20.6875 122.094 21.3438 121.688 21.7188Z" fill="white"/>
</svg>
