<svg width="49" height="49" viewBox="0 0 49 49" fill="none" xmlns="http://www.w3.org/2000/svg">
    <path d="M35.6562 26.417L46.1562 30.917C47.8438 31.5732 48.7812 33.3545 48.4062 35.1357L46.1562 45.6357C45.7812 47.3232 44.1875 48.6357 42.5 48.6357C41.8438 48.6357 41.2812 48.542 40.7188 48.542C39.7812 48.542 38.8438 48.4482 38 48.3545C16.9062 46.1045 0.5 28.292 0.5 6.54199C0.5 4.85449 1.71875 3.26074 3.40625 2.88574L13.9062 0.635742C15.6875 0.260742 17.4688 1.19824 18.125 2.88574L22.625 13.3857C23.2812 14.8857 22.9062 16.667 21.5938 17.6982L17.75 20.8857C20.2812 25.1982 23.8438 28.7607 28.1562 31.292L31.3438 27.4482C32.375 26.1357 34.1562 25.7607 35.6562 26.417ZM41.8438 44.042L43.8125 34.7607L34.4375 30.7295L31.7188 34.1045C30.3125 35.792 27.875 36.2607 25.9062 35.1357C20.9375 32.2295 16.8125 28.1045 13.9062 23.1357C12.7812 21.167 13.25 18.7295 14.9375 17.3232L18.3125 14.6045L14.2812 5.22949L5 7.19824C5.28125 27.4482 21.5938 43.7607 41.8438 44.042Z" fill="#508EC8"/>
</svg>
