<svg width="40" height="41" viewBox="0 0 40 41" fill="none" xmlns="http://www.w3.org/2000/svg">
    <g clip-path="url(#clip0_8119_11194)">
        <path d="M20 0.541992C8.95601 0.541992 0 9.49801 0 20.542C0 31.586 8.95601 40.542 20 40.542C31.044 40.542 40 31.586 40 20.542C40 9.49801 31.044 0.541992 20 0.541992ZM30.0336 15.8446V18.5526C28.7566 18.5531 27.5159 18.3029 26.3458 17.8092C25.5934 17.4915 24.8923 17.0822 24.2512 16.5876L24.2704 24.923C24.2623 26.8 23.5198 28.5635 22.1758 29.8918C21.082 30.9731 19.6961 31.6607 18.1939 31.8832C17.8409 31.9355 17.4817 31.9623 17.1184 31.9623C15.5104 31.9623 13.9838 31.4414 12.7349 30.4803C12.4999 30.2993 12.2752 30.1032 12.0612 29.8918C10.6046 28.4522 9.85352 26.5011 9.98 24.4486C10.0765 22.8861 10.702 21.3961 11.7448 20.2282C13.1245 18.6827 15.0547 17.8249 17.1184 17.8249C17.4817 17.8249 17.8409 17.8521 18.1939 17.9044V18.9057V21.691C17.8592 21.5806 17.5018 21.5199 17.1296 21.5199C15.2441 21.5199 13.7188 23.0582 13.747 24.945C13.7648 26.1523 14.4243 27.2076 15.397 27.7893C15.8541 28.0628 16.3799 28.2321 16.9411 28.2629C17.3808 28.2871 17.803 28.2258 18.1939 28.0968C19.541 27.6518 20.5128 26.3864 20.5128 24.8941L20.5173 19.3123V9.12168H24.2466C24.2502 9.49121 24.2877 9.85176 24.3574 10.2011C24.6389 11.6153 25.436 12.8421 26.5454 13.6786C27.5127 14.4082 28.7173 14.8407 30.0228 14.8407C30.0237 14.8407 30.0345 14.8407 30.0335 14.8398L30.0336 15.8446Z" fill="black"/>
        <path d="M30.0336 18.5526V15.8446L30.0335 14.8398C30.0327 14.8405 30.0236 14.8407 30.0228 14.8407C28.7173 14.8407 27.5127 14.4082 26.5454 13.6786C25.436 12.8421 24.6389 11.6153 24.3574 10.2011C24.2877 9.85176 24.2502 9.49121 24.2466 9.12168H20.5173V19.3123L20.5128 24.8941C20.5128 26.3864 19.541 27.6518 18.1939 28.0968C17.803 28.2258 17.3808 28.2871 16.9411 28.2629C16.3799 28.2321 15.8541 28.0628 15.397 27.7893C14.4243 27.2076 13.7648 26.1523 13.747 24.945C13.7188 23.0582 15.2441 21.5199 17.1296 21.5199C17.5018 21.5199 17.8592 21.5806 18.1939 21.691V18.9057V17.9044C17.8409 17.8521 17.4817 17.8249 17.1184 17.8249C15.0547 17.8249 13.1245 18.6827 11.7448 20.2282C10.702 21.3961 10.0765 22.8861 9.98 24.4486C9.85352 26.5011 10.6046 28.4522 12.0612 29.8918C12.2752 30.1032 12.4999 30.2993 12.7349 30.4803C13.9838 31.4414 15.5104 31.9623 17.1184 31.9623C17.4817 31.9623 17.8409 31.9355 18.1939 31.8832C19.6961 31.6607 21.082 30.9731 22.1758 29.8918C23.5198 28.5635 24.2623 26.8 24.2704 24.923L24.2512 16.5876C24.8923 17.0822 25.5934 17.4915 26.3458 17.8092C27.5159 18.3029 28.7566 18.5531 30.0336 18.5526Z" fill="white"/>
    </g>
    <defs>
        <clipPath id="clip0_8119_11194">
            <rect width="40" height="40" fill="white" transform="translate(0 0.541992)"/>
        </clipPath>
    </defs>
</svg>
