<svg width="40" height="41" viewBox="0 0 40 41" fill="none" xmlns="http://www.w3.org/2000/svg">
    <g clip-path="url(#clip0_8119_11188)">
        <path d="M20 40.542C31.0457 40.542 40 31.5877 40 20.542C40 9.4963 31.0457 0.541992 20 0.541992C8.95431 0.541992 0 9.4963 0 20.542C0 31.5877 8.95431 40.542 20 40.542Z" fill="#FF0000"/>
        <path d="M26.5437 13.0186H13.4542C12.9311 13.0186 12.4132 13.1216 11.9299 13.3219C11.4467 13.5221 11.0077 13.8157 10.6379 14.1857C10.2681 14.5557 9.97492 14.9949 9.77498 15.4783C9.57504 15.9616 9.47231 16.4797 9.47266 17.0028V24.0817C9.47231 24.6048 9.57504 25.1228 9.77498 25.6062C9.97492 26.0896 10.2681 26.5288 10.6379 26.8988C11.0077 27.2688 11.4467 27.5623 11.9299 27.7626C12.4132 27.9628 12.9311 28.0659 13.4542 28.0659H26.5437C27.0668 28.0659 27.5848 27.9628 28.068 27.7626C28.5512 27.5623 28.9903 27.2688 29.36 26.8988C29.7298 26.5288 30.023 26.0896 30.223 25.6062C30.4229 25.1228 30.5256 24.6048 30.5253 24.0817V17.0028C30.5256 16.4797 30.4229 15.9616 30.223 15.4783C30.023 14.9949 29.7298 14.5557 29.36 14.1857C28.9903 13.8157 28.5512 13.5221 28.068 13.3219C27.5848 13.1216 27.0668 13.0186 26.5437 13.0186ZM17.2253 23.7686V17.3159L22.7727 20.5422L17.2253 23.7686Z" fill="white"/>
    </g>
    <defs>
        <clipPath id="clip0_8119_11188">
            <rect width="40" height="40" fill="white" transform="translate(0 0.541992)"/>
        </clipPath>
    </defs>
</svg>
