<svg width="275" height="276" viewBox="0 0 275 276" fill="none" xmlns="http://www.w3.org/2000/svg">
    <path d="M138 238C193.228 238 238 193.228 238 138C238 82.7715 193.228 38 138 38C82.7715 38 38 82.7715 38 138C38 193.228 82.7715 238 138 238Z" fill="#F1F5FF"/>
    <path d="M176.55 97.7672C176.143 98.343 175.323 99.1998 174.082 100.497C169.489 105.299 159.931 115.292 157.43 126.184C155.527 134.473 157.026 143.181 158.12 149.539C158.902 154.077 159.466 157.358 158.736 159.401C157.137 163.88 153.569 175.571 151.918 182.544C150.354 189.15 152.502 193.504 158.303 195.484C159.641 195.943 160.936 195.588 162.083 194.855C161.838 194.883 161.589 194.901 161.333 194.901C160.698 194.901 160.035 194.805 159.373 194.566C156.443 193.507 153.292 190.346 152.987 188.669C152.736 187.29 153.923 181.623 154.163 180.502C154.227 180.202 154.453 179.962 154.749 179.881C155.381 179.705 161.005 178.212 163.718 179.474C165.441 180.275 167.119 182.148 168.138 183.443C169.848 177.476 171.813 169.618 171.875 167.426C172.015 162.53 174.037 156.526 179.274 155.712C183.505 155.055 187.964 162.423 190.416 167.285C192.704 166.115 195.681 164.344 196.569 163.122C197.151 162.323 198.092 161.744 199.284 161.011C202.298 159.158 206.425 156.62 206.496 149.153C206.544 144.083 206.285 137.099 206.036 130.346C205.741 122.376 205.486 115.494 205.777 112.934C205.915 111.717 205.97 109.948 206.033 107.9C206.208 102.24 206.427 95.1952 208.527 91.2361C209.787 88.8617 211.765 83.5033 214.056 77.2989C216.536 70.5815 219.347 62.9677 222.006 57.1072C222.832 55.2866 224.346 52.0876 226.496 47.6228C223.213 44.1439 211.836 32.9687 197.535 28.6992C194.669 41.0786 189.83 61.3444 187.84 65.9576C186.219 70.9817 178.34 95.2401 176.55 97.7672ZM161.432 167.872C161.468 167.902 165.035 170.814 168.841 171.162L168.691 172.803C164.368 172.407 160.543 169.274 160.382 169.141L161.432 167.872ZM168.761 176.424C162.386 175.497 158.778 172.75 158.628 172.634L159.132 171.983L159.635 171.331C159.635 171.331 159.636 171.331 159.636 171.331C159.681 171.366 163.089 173.935 168.998 174.794L168.761 176.424ZM170.326 165.258C168.677 163.289 164 163.22 162.337 163.358L162.198 161.717C162.478 161.693 169.054 161.173 171.589 164.201L170.326 165.258Z" fill="white"/>
    <path d="M50.1309 242.259C51.9438 241.471 53.5986 240.541 53.8289 240.161C53.928 239.907 53.911 239.303 53.83 238.618C51.9792 239.841 50.6214 241.15 50.041 241.749C50.0497 241.891 50.0756 242.068 50.1309 242.259Z" fill="white"/>
    <path d="M109.004 101.168C111.58 121.401 110.947 135.753 109.958 144.253C113.528 143.649 126.036 141.91 134.409 145.499L133.76 147.013C125.46 143.456 112.285 145.519 109.743 145.965C109.637 146.763 109.529 147.498 109.422 148.169C114.154 147.446 126.008 146.058 132.559 149.078L131.87 150.574C125.535 147.653 113.272 149.236 109.13 149.887C108.724 152.111 108.39 153.315 108.339 153.495C108.332 153.521 108.323 153.547 108.314 153.572C108.024 154.399 101.07 173.881 88.0832 185.235C84.9512 189.668 78.8809 198.501 77.7023 201.095C75.6018 205.715 65.8124 207.765 61.7009 208.432C58.2562 208.991 54.1869 210.144 50.9168 211.071C48.7774 211.677 47.0878 212.157 46.1166 212.312C45.9764 212.334 45.8094 212.345 45.6425 212.356C45.3049 213.486 44.5909 215.129 43.2179 215.579C41.1187 216.266 37.7434 217.275 36.0424 217.275C35.6778 217.275 35.3902 217.229 35.2086 217.123C35.1324 217.079 35.0524 217.031 34.9714 216.982C35.2557 217.392 35.5692 217.799 35.8963 218.18H41.0665C43.3182 216.52 46.8965 214.001 48.2159 213.737C49.0409 213.572 52.441 213.383 57.1548 213.135C59.0291 213.036 60.9671 212.934 61.2599 212.897L61.3688 213.746L61.7787 215.59C61.52 215.648 60.9758 215.683 57.2992 215.877C54.3625 216.031 49.4477 216.289 48.7547 216.428C48.0396 216.629 44.861 218.78 42.3379 220.655C42.1013 220.83 41.8141 220.925 41.5192 220.925H36.5837C36.5927 222.12 36.4176 223.778 35.4442 224.356C34.5612 224.88 31.4057 225.439 29.4493 225.439C29.2817 225.439 29.1272 225.433 28.9795 225.424C28.8949 226.36 28.9262 227.325 29.3339 227.815C29.563 228.09 29.9784 228.248 30.5542 228.297C31.8213 227.206 35.6085 224.512 43.0486 223.495C45.5121 223.159 46.8817 222.273 48.3317 221.335C49.8998 220.322 51.5214 219.274 54.3142 218.968L54.6125 221.697C52.4658 221.932 51.2405 222.724 49.822 223.641C48.2597 224.651 46.4892 225.796 43.4203 226.215C41.5994 226.464 40.0401 226.823 38.6959 227.227C38.8366 227.927 38.9103 228.932 38.4797 229.821C38.1319 230.54 37.5068 231.057 36.6728 231.315C35.0774 231.809 33.6484 232.306 32.8572 232.588C33.0275 233.098 33.2497 233.504 33.5236 233.679C34.9633 234.596 36.3706 235.08 38.5073 234.486C40.3923 233.404 48.0162 229.107 50.4732 228.944C51.1266 228.9 52.3917 227.764 53.4085 226.851C54.9721 225.446 56.7443 223.854 58.7489 223.503L59.2227 226.207C57.9932 226.423 56.5321 227.735 55.2429 228.893C53.7067 230.273 52.2553 231.577 50.6558 231.683C49.9153 231.732 47.7896 232.67 45.2762 233.943C45.7281 236.588 45.3454 237.078 45.1917 237.27C44.8907 237.646 43.8554 238.29 42.904 238.837C44.0564 239.574 45.7103 240.066 48.0505 239.855C48.8375 239.039 50.7682 237.183 53.4231 235.637C57.229 233.423 62.295 231.327 65.3221 230.074C65.991 229.797 66.5687 229.559 67.0228 229.364L68.1039 231.888C67.6414 232.085 67.0526 232.329 66.3713 232.611C63.5565 233.776 58.9421 235.686 55.3619 237.693C55.5235 238.66 55.6586 240.005 55.348 240.791C54.9725 241.74 52.9218 242.822 51.2333 243.576C52.0057 243.999 53.1439 244.201 54.5872 244.173C57.2266 244.109 61.192 244.333 65.3877 244.567C71.9175 244.931 79.3191 245.344 83.1049 244.76C89.695 243.742 105.511 237.604 108.879 233.59C108.958 233.495 109.05 233.412 109.152 233.341C110.46 232.441 141.352 211.235 154.665 207.319C170.087 202.784 186.935 194.142 189.297 186.402C191.911 177.833 189.368 171.486 189.342 171.422C186.445 164.887 181.856 158.094 179.696 158.425C175.876 159.019 174.707 164.411 174.619 167.504C174.511 171.283 169.887 188.152 168.469 191.315C166.822 194.99 162.517 199.826 157.416 198.083C153.27 196.668 146.696 192.685 149.246 181.912C150.917 174.854 154.531 163.015 156.151 158.478C156.638 157.113 156.071 153.819 155.415 150.005C154.281 143.418 152.727 134.396 154.754 125.57C156.644 117.341 162.158 109.749 166.909 104.247L166.829 104.243C166.975 101.684 170.163 46.1262 171.155 33.4111C163.254 32.2195 128.786 27.9451 97.6478 38.4452C99.9709 53.3051 102.405 65.532 104.562 76.3647C106.473 85.9529 108.122 94.2333 109.004 101.168Z" fill="white"/>
    <path d="M29.2957 223.415C29.2734 223.524 29.2461 223.658 29.2178 223.803C30.6778 223.862 33.9433 223.331 34.603 222.939C34.7914 222.762 34.9248 221.9 34.9299 220.967C32.5879 221.243 29.5493 222.179 29.2957 223.415Z" fill="white"/>
    <path d="M41.5784 237.694C42.5337 237.158 43.5194 236.56 43.8417 236.295C43.8716 236.03 43.8261 235.436 43.7303 234.743C42.7356 235.268 41.7156 235.825 40.7197 236.386C40.9092 236.774 41.1829 237.233 41.5784 237.694Z" fill="white"/>
    <path d="M42.7957 212.317C39.9623 212.193 34.6883 211.96 33.7298 213.714C33.7058 213.758 33.6895 213.809 33.6768 213.863C34.0953 214.362 34.8841 215.018 35.966 215.658C36.709 215.737 40.09 214.869 42.7052 214.014C43.2102 213.849 43.618 213.108 43.8968 212.362C43.5516 212.35 43.1874 212.335 42.7957 212.317Z" fill="white"/>
    <path d="M32.5143 230.961C33.3511 230.665 34.6976 230.201 36.1851 229.741C36.5873 229.616 36.8446 229.415 36.9951 229.107C37.1877 228.712 37.1797 228.195 37.1135 227.753C34.5764 228.703 33.0949 229.758 32.4551 230.286C32.4667 230.504 32.4869 230.731 32.5143 230.961Z" fill="white"/>
    <path d="M110.804 235.801C113.145 234.195 142.924 213.88 155.365 210.214C167.412 206.663 188.648 197.87 191.827 187.432C194.743 177.853 191.902 170.863 191.769 170.544C191.692 170.371 191.603 170.173 191.508 169.964C193.523 168.938 197.302 166.845 198.69 164.934C198.951 164.573 199.8 164.05 200.621 163.544C203.773 161.602 209.05 158.351 209.135 149.353C209.183 144.212 208.924 137.186 208.673 130.391C208.395 122.848 208.132 115.724 208.399 113.366C208.55 112.036 208.606 110.212 208.672 108.1C208.829 103 209.045 96.0159 210.845 92.616C212.191 90.0748 214.198 84.6285 216.521 78.3223C218.984 71.6389 221.775 64.0639 224.391 58.2853C225.248 56.3915 226.855 52.9946 229.167 48.1886L226.695 46.9952C226.586 47.2224 226.486 47.4309 226.38 47.6518C224.232 52.1229 222.718 55.3265 221.892 57.1497C219.235 63.0186 216.426 70.6433 213.947 77.3703C211.658 83.5835 209.681 88.9497 208.422 91.3274C206.322 95.2921 206.104 102.347 205.929 108.015C205.866 110.066 205.811 111.838 205.673 113.057C205.382 115.619 205.637 122.512 205.931 130.493C206.181 137.256 206.439 144.25 206.391 149.327C206.321 156.805 202.196 159.346 199.184 161.202C197.993 161.936 197.052 162.515 196.47 163.316C195.583 164.54 192.608 166.313 190.321 167.485C187.87 162.616 183.414 155.237 179.186 155.895C173.951 156.71 171.93 162.724 171.791 167.626C171.728 169.822 169.765 177.691 168.056 183.666C167.037 182.369 165.36 180.493 163.638 179.691C160.927 178.427 155.306 179.923 154.674 180.099C154.378 180.18 154.153 180.42 154.088 180.721C153.848 181.844 152.662 187.519 152.913 188.899C153.218 190.579 156.367 193.744 159.295 194.805C159.958 195.045 160.62 195.14 161.254 195.14C161.51 195.14 161.759 195.122 162.004 195.095C160.858 195.828 159.564 196.184 158.226 195.725C152.429 193.741 150.281 189.381 151.844 182.766C153.495 175.783 157.061 164.075 158.659 159.59C159.389 157.543 158.824 154.259 158.044 149.713C156.95 143.346 155.452 134.627 157.354 126.326C159.853 115.417 169.406 105.411 173.997 100.602C175.236 99.3025 176.056 98.4443 176.463 97.8678C178.252 95.3371 186.126 71.0441 187.747 66.0128C189.735 61.393 194.571 41.0983 197.436 28.7012C197.51 28.379 197.584 28.0581 197.656 27.7469L194.983 27.1279C190.251 47.6606 186.596 61.808 185.206 64.9723C185.187 65.0153 185.171 65.0593 185.156 65.1039C181.566 76.2574 175.422 94.5836 174.224 96.2787C173.933 96.6904 173.044 97.6221 172.014 98.701C171.33 99.4174 170.537 100.248 169.678 101.175C170.469 87.4401 173.467 35.7404 173.999 31.4776L171.276 31.1366C171.227 31.5337 171.157 32.3174 171.071 33.4193C170.08 46.1526 166.894 101.79 166.747 104.352L166.828 104.357C162.079 109.866 156.568 117.469 154.679 125.71C152.654 134.549 154.206 143.583 155.34 150.18C155.996 153.999 156.563 157.298 156.076 158.665C154.456 163.208 150.845 175.064 149.174 182.132C146.626 192.92 153.196 196.909 157.34 198.326C162.438 200.072 166.74 195.229 168.387 191.549C169.804 188.381 174.425 171.488 174.533 167.704C174.621 164.607 175.789 159.206 179.607 158.612C181.766 158.281 186.352 165.083 189.247 171.627C189.273 171.691 191.815 178.047 189.202 186.629C186.842 194.38 170.004 203.034 154.59 207.576C141.285 211.497 110.411 232.733 109.103 233.635C109.002 233.706 108.91 233.789 108.83 233.884C105.465 237.903 89.6576 244.051 83.0714 245.07C79.2877 245.655 71.8902 245.242 65.3643 244.877C61.171 244.642 57.2079 244.418 54.57 244.483C53.1274 244.51 51.9899 244.308 51.218 243.884C52.9055 243.13 54.955 242.046 55.3303 241.096C55.6407 240.308 55.5057 238.962 55.3442 237.993C58.9223 235.983 63.5341 234.07 66.3473 232.904C67.0283 232.622 67.6167 232.378 68.0789 232.18L66.9984 229.652C66.5446 229.847 65.9672 230.086 65.2987 230.363C62.2734 231.618 57.2103 233.717 53.4066 235.934C50.7532 237.482 48.8235 239.341 48.037 240.158C45.6981 240.37 44.0452 239.877 42.8934 239.139C43.8443 238.591 44.879 237.946 45.1798 237.569C45.3335 237.377 45.716 236.887 45.2643 234.238C47.7762 232.962 49.9007 232.024 50.6408 231.974C52.2395 231.868 53.69 230.563 55.2253 229.181C56.5137 228.021 57.974 226.707 59.2028 226.491L58.7293 223.783C56.7257 224.135 54.9547 225.729 53.3919 227.135C52.3758 228.05 51.1114 229.188 50.4583 229.232C48.0028 229.395 40.3832 233.698 38.4993 234.782C36.3639 235.376 34.9573 234.892 33.5185 233.973C33.2447 233.798 33.0226 233.392 32.8524 232.881C33.6432 232.598 35.0714 232.101 36.6658 231.606C37.4994 231.347 38.1241 230.83 38.4717 230.11C38.9021 229.22 38.8284 228.214 38.6878 227.512C40.0312 227.108 41.5896 226.748 43.4095 226.499C46.4767 226.079 48.2461 224.933 49.8075 223.921C51.2252 223.003 52.4498 222.21 54.5953 221.975L54.2972 219.242C51.5059 219.548 49.8852 220.597 48.3181 221.612C46.8689 222.551 45.5 223.438 43.038 223.775C35.6021 224.793 31.8171 227.491 30.5507 228.584C29.9753 228.534 29.5601 228.377 29.3312 228.101C28.9237 227.61 28.8924 226.644 28.9769 225.707C29.1246 225.715 29.279 225.721 29.4464 225.721C31.4017 225.721 34.5553 225.162 35.4379 224.637C36.4108 224.058 36.5858 222.398 36.5768 221.201H41.5095C41.8042 221.201 42.0912 221.106 42.3277 220.93C44.8494 219.053 48.0261 216.899 48.7408 216.698C49.4335 216.559 54.3454 216.3 57.2804 216.145C60.9548 215.952 61.4988 215.917 61.7573 215.859L61.3477 214.012L61.2389 213.161C60.9461 213.199 59.0093 213.301 57.1361 213.4C52.425 213.648 49.0269 213.837 48.2023 214.002C46.8837 214.267 43.3074 216.79 41.057 218.452H35.8897C35.563 218.071 35.2496 217.663 34.9655 217.252C35.0464 217.301 35.1264 217.349 35.2025 217.394C35.384 217.5 35.6714 217.546 36.0358 217.546C37.7358 217.546 41.1092 216.535 43.2072 215.847C44.5795 215.397 45.2931 213.752 45.6304 212.62C45.7972 212.609 45.9641 212.598 46.1043 212.575C47.0748 212.42 48.7636 211.94 50.9017 211.333C54.1698 210.405 58.2368 209.25 61.6796 208.69C65.7887 208.022 75.5726 205.97 77.6718 201.342C78.8498 198.746 84.9166 189.899 88.0468 185.46C101.026 174.09 107.976 154.58 108.266 153.752C108.275 153.727 108.284 153.701 108.291 153.674C108.342 153.495 108.675 152.289 109.081 150.062C113.221 149.41 125.478 147.825 131.808 150.749L132.498 149.251C125.95 146.227 114.103 147.617 109.373 148.342C109.48 147.669 109.588 146.933 109.694 146.134C112.235 145.687 125.402 143.621 133.698 147.183L134.346 145.667C125.977 142.073 113.477 143.815 109.909 144.42C110.897 135.908 111.53 121.535 108.956 101.273C108.074 94.3284 106.426 86.0363 104.517 76.4342C102.36 65.5861 99.9278 53.3417 97.606 38.4606C97.5068 37.8248 97.4075 37.1919 97.3087 36.5463L94.5965 36.9631C97.0163 52.7783 99.683 66.1928 101.826 76.9714C103.725 86.5224 105.364 94.771 106.234 101.62C110.408 134.477 105.912 151.954 105.663 152.882C105.293 153.91 98.3456 172.868 86.1226 183.493C86.0392 183.566 85.9651 183.648 85.9015 183.738C85.5294 184.265 76.7678 196.691 75.1739 200.205C74.1467 202.469 68.5471 204.789 61.24 205.976C57.6409 206.561 53.4892 207.741 50.1533 208.689C48.1836 209.248 46.4829 209.731 45.6727 209.86C45.1988 209.936 44.0852 209.886 42.9063 209.834C38.7669 209.652 33.096 209.401 31.3176 212.66C30.2599 214.598 31.4961 217.09 32.7058 218.826C30.3262 219.339 27.1441 220.512 26.6055 223.143C26.096 225.631 25.8181 228.168 27.2214 229.859C27.8326 230.596 28.6783 231.063 29.745 231.255C29.883 232.814 30.3726 235.225 32.0436 236.291C33.4627 237.198 35.3973 238.122 38.1359 237.679C39.2485 240.106 42.0625 243.14 47.3865 242.964C47.5254 243.635 47.8282 244.414 48.4529 245.139C49.7041 246.594 51.7904 247.313 54.6335 247.23C57.1662 247.175 61.0731 247.39 65.2111 247.621C69.398 247.856 73.9359 248.11 77.7396 248.11C79.9873 248.11 81.9794 248.021 83.4899 247.787C89.9605 246.786 106.512 240.646 110.804 235.801ZM155.593 181.563C157.439 181.108 161.273 180.407 162.945 181.187C164.818 182.06 166.795 184.685 167.446 185.602C166.691 187.927 165.386 191.483 164.641 192.465C164.16 192.757 161.917 194.002 159.855 193.253C157.329 192.338 154.702 189.538 154.533 188.604C154.411 187.934 154.962 184.593 155.593 181.563ZM53.8121 238.919C53.8931 239.604 53.9102 240.21 53.8111 240.463C53.5809 240.844 51.927 241.776 50.1152 242.565C50.0599 242.374 50.0341 242.196 50.0254 242.054C50.6053 241.455 51.9625 240.143 53.8121 238.919ZM43.8297 236.594C43.5075 236.859 42.5224 237.459 41.5677 237.995C41.1723 237.533 40.8988 237.073 40.7095 236.685C41.7049 236.123 42.7243 235.565 43.7183 235.04C43.8141 235.733 43.8596 236.328 43.8297 236.594ZM36.9882 229.396C36.8378 229.704 36.5806 229.906 36.1787 230.03C34.692 230.492 33.3461 230.956 32.5099 231.252C32.4825 231.022 32.4624 230.794 32.4508 230.576C33.0902 230.048 34.5709 228.991 37.1066 228.04C37.1726 228.483 37.1807 229 36.9882 229.396ZM34.5972 223.219C33.9379 223.612 30.6743 224.144 29.2151 224.085C29.2434 223.939 29.2707 223.805 29.293 223.696C29.5465 222.458 32.5833 221.521 34.924 221.244C34.9188 222.178 34.7854 223.042 34.5972 223.219ZM42.6953 214.28C40.0816 215.136 36.7025 216.006 35.96 215.927C34.8787 215.286 34.0903 214.629 33.672 214.129C33.6848 214.075 33.701 214.024 33.725 213.98C34.6829 212.223 39.954 212.456 42.7858 212.581C43.1772 212.598 43.5412 212.613 43.8863 212.626C43.6076 213.373 43.2 214.114 42.6953 214.28Z" fill="#34539B"/>
    <path d="M163.058 193.887C165.397 194.734 167.94 193.324 168.486 192.994C169.331 191.882 170.811 187.857 171.667 185.226C170.929 184.189 168.687 181.217 166.562 180.228C164.666 179.346 160.318 180.139 158.224 180.654C157.508 184.084 156.883 187.866 157.021 188.624C157.213 189.682 160.193 192.851 163.058 193.887Z" fill="white"/>
    <path d="M162.72 169.306L162.15 170.045L161.578 170.783C161.749 170.915 165.838 174.029 173.064 175.08L173.333 173.232C166.635 172.258 162.772 169.346 162.721 169.307C162.721 169.307 162.72 169.306 162.72 169.306Z" fill="#34539B"/>
    <path d="M173.155 169.113C168.841 168.718 164.798 165.417 164.758 165.384L163.567 166.822C163.75 166.973 168.086 170.524 172.985 170.973L173.155 169.113Z" fill="#34539B"/>
    <path d="M165.624 158.408L165.782 160.268C167.666 160.111 172.968 160.189 174.837 162.422L176.268 161.223C173.395 157.79 165.941 158.38 165.624 158.408Z" fill="#34539B"/>
    <path opacity="0.2" d="M166.964 210.462C194.989 210.462 217.708 187.743 217.708 159.718C217.708 131.693 194.989 108.974 166.964 108.974C138.939 108.974 116.22 131.693 116.22 159.718C116.22 187.743 138.939 210.462 166.964 210.462Z" fill="#0075FF"/>
</svg>
