<svg width="272" height="273" viewBox="0 0 272 273" fill="none" xmlns="http://www.w3.org/2000/svg">
    <path d="M134 235C189.228 235 234 190.228 234 135C234 79.7715 189.228 35 134 35C78.7715 35 34 79.7715 34 135C34 190.228 78.7715 235 134 235Z" fill="#F1F5FF"/>
    <path d="M160.813 234.593C160.48 230.401 163.689 221.484 166.519 213.617C167.75 210.196 168.913 206.965 169.518 204.805C171.799 196.659 183.117 152.086 182.945 146.833C182.807 142.633 185.463 136.386 187.401 131.825C188.162 130.036 188.818 128.492 189.072 127.602C189.851 124.878 188.288 119.826 186.929 117.109C186.387 116.024 185.882 113.853 185.297 111.339C184.731 108.904 183.799 104.896 183.102 104.047C183.095 104.047 183.089 104.047 183.082 104.047C181.585 104.047 177.556 102.965 173.25 92.696C170.332 85.7376 162.638 80.1806 160.374 78.6572C159.207 79.4753 156.484 80.7286 150.711 80.7963C147.918 80.8291 144.745 80.724 141.676 80.6215C136.765 80.458 131.2 80.2734 129.94 80.8773C129.007 81.3252 124.695 84.8221 120.525 88.2037C114.83 92.8211 108.942 97.5953 106.731 98.7538C104.966 99.6785 101.963 102.211 99.0594 104.661C96.2858 107.001 93.6395 109.233 91.7734 110.345C97.884 121.307 104.622 128.126 111.032 133.818C112.544 133.375 116.857 129.279 118.996 127.249C121.501 124.87 122.963 123.503 123.868 123.07C124.713 122.666 127.4 120.438 129.77 118.472C133.866 115.074 136.651 112.811 137.984 112.331L138.696 114.306C137.609 114.698 133.853 117.813 131.11 120.088C127.839 122.801 125.781 124.483 124.774 124.965C124.124 125.275 122.168 127.133 120.441 128.771C115.735 133.24 112.501 136.153 110.559 135.944C110.507 135.939 110.46 135.917 110.41 135.905C108.567 144.003 100.376 179.308 95.5793 188.754C95.7012 190.071 95.7965 191.322 95.8819 192.445C96.0267 194.352 96.1518 195.998 96.3322 197.001C96.794 199.566 97.9586 201.373 100.226 203.044C101.663 204.103 102.273 206.969 102.602 209.711C105.998 211.519 118.906 214.611 125.898 216.285C128.424 216.889 130.092 217.289 130.634 217.461C133.234 218.288 143.762 230.264 145.449 233.467C146.414 235.301 154.662 237.709 159.028 236.448C160.916 235.901 160.841 234.951 160.813 234.593Z" fill="white"/>
    <path d="M156.141 238.875C151.282 238.875 144.965 237.059 143.589 234.444C141.714 230.881 131.657 220.056 129.993 219.46C129.527 219.312 127.709 218.877 125.408 218.326C116.572 216.21 107.013 213.852 102.764 212.094C102.651 212.919 102.237 214.957 100.866 220.378C100.81 220.6 100.682 220.797 100.504 220.94C99.8258 221.483 98.8973 221.35 98.0794 221.231C97.923 221.209 97.7106 221.179 97.5609 221.166C96.586 221.94 94.163 222.776 93.077 222.638C93.0716 222.638 93.066 222.637 93.0601 222.637C92.7086 222.637 91.6661 223.143 90.9701 223.485C90.3525 225.289 87.9741 232.782 87.7539 241.675C94.0036 243.354 126.083 251.364 162.215 249.403C161.201 245.534 159.712 240.399 159.177 238.567C158.291 238.772 157.259 238.875 156.141 238.875Z" fill="white"/>
    <path d="M218.248 32.8596C213.207 27.0268 205.589 18.2144 184.348 21.6636C166.726 24.5264 169.432 48.4751 170.886 61.3411C171.149 63.6697 171.377 65.6801 171.425 67.1072C171.66 74.0658 167.453 77.862 165.015 79.4695C168.408 82.2064 172.975 86.6097 175.186 91.8847C177.925 98.4157 180.542 100.99 182.131 101.715C182.824 99.8719 184.775 97.756 186.761 95.7188C187.193 95.2749 187.681 94.7747 187.818 94.5916C188.093 94.0063 188.764 93.7048 189.753 93.2594C190.342 92.9949 191.905 92.2916 192.021 91.8734C192.232 89.7097 194.764 88.7579 195.052 88.6564C195.218 88.5974 195.396 88.5815 195.57 88.6108C195.875 88.6605 203.042 89.8368 204.725 90.2577C205.924 90.5576 206.821 90.6078 209.177 88.7855C211.062 87.3272 210.737 85.2281 210.722 85.14C210.675 84.8545 210.746 84.5577 210.921 84.3271C211.097 84.0969 211.358 83.9447 211.646 83.9144C212.184 83.8529 214.167 82.7816 214.681 82.2926C214.678 81.9774 214.486 81.247 214.243 80.6518C214.129 80.3714 214.141 80.0552 214.277 79.7846C214.412 79.5139 214.658 79.315 214.951 79.2387C215.367 79.1305 216.013 78.2437 216.101 77.7932C215.452 76.8505 215.715 75.099 215.944 74.0954C216.023 73.7488 216.272 73.4654 216.606 73.3429C216.939 73.2204 217.313 73.2752 217.597 73.489C217.966 73.7657 218.456 73.8426 219.055 73.716C219.966 73.5248 220.731 72.9497 220.952 72.6457C221.055 71.8871 220.256 68.9105 219.723 66.9257C219.385 65.6653 219.036 64.3623 218.787 63.2525C218.146 60.3959 219.939 56.449 221.126 53.8373C221.499 53.0146 221.923 52.0822 221.973 51.7828C222.29 49.8781 222.969 38.3197 218.34 32.9657L218.248 32.8596ZM188.222 51.8474C188.393 52.3764 189.139 53.5251 189.797 54.538C191.243 56.7647 192.125 58.1835 192.052 59.2523C192.036 59.4834 192.341 60.0601 192.933 60.4994C193.411 60.8531 193.907 60.9961 194.227 60.8741C194.867 60.6291 194.811 59.2866 194.762 58.9678L196.838 58.6541C197.022 59.872 196.837 62.1233 194.976 62.8353C194.657 62.9572 194.319 63.0172 193.973 63.0172C193.219 63.0172 192.423 62.7338 191.684 62.1869C190.563 61.3565 189.885 60.1483 189.957 59.1077C189.926 58.591 188.743 56.7698 188.036 55.6816C187.202 54.3966 186.481 53.2868 186.224 52.4933C185.858 51.361 184.855 46.4576 186.64 43.1535C187.389 41.769 188.516 40.8622 189.989 40.4593C194.562 39.2086 197.39 42.785 198.246 44.8512L196.308 45.658C196.234 45.4847 194.461 41.4148 190.544 42.484C189.632 42.7337 188.959 43.279 188.488 44.152C187.188 46.5559 187.848 50.692 188.222 51.8474Z" fill="white"/>
    <path d="M98.9796 204.735C96.2772 202.743 94.8233 200.473 94.2651 197.374C94.0654 196.265 93.9368 194.569 93.7876 192.605C93.5121 188.979 93.135 184.013 92.0681 179.864C90.3589 173.217 89.7071 159.862 89.823 157.717C89.9529 155.316 89.8673 143.048 89.7141 142.091C89.4832 140.781 90.2592 139.078 90.4171 138.75C90.5353 138.504 90.7441 138.315 90.9994 138.22C94.1375 137.062 101.967 132.611 104.861 130.942C100.016 126.173 95.1154 120.392 90.5301 112.407C87.4691 114.63 75.3487 123.574 72.5672 127.849C71.3975 129.647 70.4381 130.872 69.7377 131.767C68.3761 133.506 68.1254 133.873 68.2999 135.125C68.4083 135.902 68.7225 137.236 69.0862 138.78C69.9263 142.347 71.0768 147.232 71.0768 150.949C71.0768 156.132 74.7764 170.565 76.4088 174.529C76.6517 175.12 76.9416 175.812 77.2615 176.576C79.2744 181.385 82.3161 188.652 82.8102 192.056C83.3252 195.605 83.7413 202.059 82.7774 205.296C82.3317 206.791 83.8385 211.225 84.7386 213.874C85.6049 216.422 85.9834 217.579 85.8855 218.296C85.7851 219.035 85.5436 219.582 85.3499 220.022C85.1461 220.485 85.0792 220.664 85.1261 220.852C85.3462 221.4 87.3249 222.762 88.1791 222.455C88.6876 222.272 89.3157 221.961 89.9232 221.662C91.2541 221.006 92.4069 220.441 93.3381 220.556C93.8542 220.616 95.75 219.928 96.2204 219.563C96.7445 218.92 97.6113 219.044 98.3791 219.155C98.5408 219.178 98.7848 219.213 98.9904 219.23C99.8224 215.911 100.646 212.394 100.705 211.741C100.692 211.635 100.677 211.475 100.657 211.272C100.187 206.313 99.4045 205.048 98.9796 204.735Z" fill="white"/>
    <path d="M219.836 31.4865C214.814 25.6768 206.409 15.9494 184.01 19.5919C175.483 20.9769 170.246 26.8717 168.446 37.1122C166.978 45.4638 168.074 55.1604 168.799 61.577C169.057 63.8611 169.28 65.8341 169.325 67.1781C169.553 73.9157 165.052 77.1069 163.251 78.1102C161.899 77.1143 160.966 76.5321 160.841 76.4554C160.382 76.1724 159.805 76.255 159.478 76.6851C159.461 76.7045 157.701 78.6154 150.687 78.6975C147.939 78.7303 144.791 78.6247 141.746 78.5237C134.931 78.2976 130.671 78.1977 129.031 78.9855C127.931 79.5135 124.58 82.2128 119.202 86.5734C113.849 90.914 107.782 95.8333 105.757 96.8949C103.788 97.9258 100.833 100.418 97.7054 103.057C94.6344 105.647 91.4589 108.326 89.944 108.932C89.6657 109.044 89.4483 109.268 89.3466 109.55C89.2446 109.832 89.2682 110.144 89.4111 110.407C89.4398 110.46 89.4691 110.509 89.4977 110.562C86.709 112.575 73.8897 121.967 70.808 126.705C69.6883 128.425 68.7992 129.561 68.0849 130.474C66.6876 132.258 65.9177 133.242 66.2208 135.415C66.3428 136.289 66.6519 137.601 67.043 139.262C67.8596 142.729 68.9778 147.477 68.9778 150.949C68.9778 156.451 72.742 171.138 74.4679 175.329C74.7121 175.923 75.0035 176.619 75.3252 177.387C77.1774 181.812 80.277 189.217 80.7327 192.358C81.3217 196.416 81.5334 202.119 80.7655 204.697C80.176 206.677 81.2655 210.178 82.7513 214.55C83.219 215.926 83.8008 217.638 83.8059 218.013C83.7449 218.459 83.5914 218.808 83.4289 219.177C83.1775 219.748 82.8643 220.459 83.0896 221.361C83.3335 222.336 84.5358 223.356 85.6189 223.933C86.4324 224.368 87.2243 224.59 87.9299 224.589C88.099 224.589 88.2629 224.576 88.4211 224.55C87.4172 227.874 85.7292 234.583 85.6407 242.369L87.7403 242.393C87.743 242.153 87.7491 241.915 87.7549 241.677C87.9752 232.784 90.3536 225.291 90.9711 223.487C91.6671 223.145 92.7096 222.639 93.0612 222.639C93.0671 222.639 93.0727 222.64 93.0781 222.64C94.164 222.777 96.587 221.941 97.562 221.168C97.7117 221.18 97.9241 221.211 98.0804 221.233C98.8983 221.351 99.8268 221.484 100.505 220.942C100.683 220.799 100.811 220.602 100.867 220.38C102.238 214.958 102.652 212.92 102.765 212.095C107.014 213.854 116.573 216.212 125.409 218.327C127.71 218.878 129.528 219.313 129.995 219.462C131.658 220.057 141.715 230.883 143.59 234.446C144.966 237.061 151.283 238.876 156.142 238.876C157.261 238.876 158.292 238.774 159.178 238.569C159.713 240.4 161.202 245.536 162.216 249.405C162.375 250.013 162.523 250.591 162.653 251.118L164.692 250.615C163.696 246.581 161.706 239.732 161.143 237.808C162.789 236.799 162.977 235.328 162.905 234.428C162.608 230.687 165.872 221.617 168.495 214.328C169.739 210.871 170.914 207.605 171.539 205.372C173.016 200.096 185.242 152.829 185.043 146.765C184.921 143.028 187.471 137.028 189.333 132.647C190.153 130.718 190.801 129.194 191.09 128.18C192.083 124.705 190.269 119.094 188.807 116.17C188.375 115.308 187.85 113.049 187.342 110.864C186.218 106.031 185.476 103.074 184.188 102.207C184.896 100.642 187.108 98.369 188.263 97.184C189.078 96.3479 189.448 95.962 189.634 95.6483C189.826 95.5288 190.275 95.3269 190.614 95.1747C192.101 94.5052 193.952 93.6728 194.108 92.0858C194.165 91.504 194.977 90.9786 195.521 90.731C196.904 90.9596 202.798 91.9407 204.214 92.2949C206.393 92.8393 207.97 92.3733 210.461 90.4465C212.448 88.9092 212.819 86.8958 212.846 85.7245C214.173 85.213 216.064 84.1165 216.532 83.3261C216.925 82.6639 216.787 81.6643 216.505 80.7452C217.271 80.1553 217.873 79.2234 218.104 78.4058C218.371 77.4601 218.074 76.886 217.831 76.5979C217.787 76.4518 217.781 76.1607 217.806 75.8106C218.33 75.9085 218.895 75.8947 219.486 75.7711C220.858 75.4825 222.289 74.5584 222.815 73.6213C223.359 72.6556 222.955 70.8692 221.75 66.3815C221.417 65.1421 221.073 63.8606 220.834 62.7934C220.348 60.6236 221.966 57.0626 223.036 54.7058C223.635 53.3874 223.952 52.6739 224.043 52.128C224.405 49.9526 225.149 37.632 219.928 31.5932L219.836 31.4865ZM221.972 51.7829C221.922 52.0823 221.498 53.0147 221.125 53.8374C219.938 56.449 218.145 60.396 218.786 63.2526C219.034 64.3624 219.384 65.6654 219.722 66.9258C220.255 68.9105 221.054 71.8871 220.951 72.6458C220.73 72.9498 219.965 73.5249 219.054 73.7161C218.455 73.8427 217.965 73.7658 217.596 73.4891C217.312 73.2753 216.938 73.2205 216.605 73.343C216.271 73.4655 216.022 73.7489 215.943 74.0955C215.714 75.0991 215.451 76.8506 216.1 77.7933C216.012 78.2438 215.366 79.1306 214.95 79.2388C214.657 79.3151 214.411 79.514 214.276 79.7846C214.14 80.0553 214.128 80.3716 214.242 80.6519C214.485 81.247 214.677 81.9775 214.68 82.2927C214.166 82.7817 212.183 83.8531 211.645 83.9145C211.357 83.9448 211.096 84.097 210.92 84.3271C210.745 84.5578 210.674 84.8546 210.721 85.1401C210.736 85.2283 211.061 87.3273 209.176 88.7856C206.82 90.6079 205.923 90.5577 204.724 90.2578C203.041 89.8369 195.874 88.6605 195.57 88.6108C195.396 88.5816 195.217 88.5975 195.051 88.6565C194.763 88.758 192.231 89.7098 192.02 91.8735C191.904 92.2917 190.341 92.995 189.752 93.2595C188.763 93.7049 188.092 94.0063 187.817 94.5917C187.68 94.7747 187.192 95.275 186.76 95.7189C184.774 97.7561 182.823 99.8721 182.13 101.715C180.541 100.99 177.924 98.4157 175.185 91.8847C172.974 86.6097 168.407 82.2065 165.014 79.4696C167.452 77.8621 171.659 74.0659 171.424 67.1073C171.376 65.6802 171.148 63.6699 170.885 61.3411C169.431 48.4752 166.725 24.5265 184.347 21.6637C205.588 18.2145 213.206 27.0269 218.247 32.8597L218.339 32.9657C222.968 38.3198 222.289 49.8781 221.972 51.7829ZM98.9909 219.23C98.7854 219.213 98.5414 219.179 98.3796 219.155C97.6118 219.044 96.745 218.92 96.2209 219.563C95.7506 219.928 93.8548 220.617 93.3386 220.556C92.4075 220.441 91.2547 221.006 89.9237 221.662C89.3163 221.962 88.6881 222.272 88.1796 222.455C87.3254 222.762 85.3467 221.4 85.1266 220.852C85.0797 220.664 85.1466 220.485 85.3504 220.023C85.5441 219.582 85.7856 219.035 85.886 218.297C85.9839 217.579 85.6054 216.422 84.7391 213.874C83.839 211.225 82.3322 206.792 82.7779 205.297C83.7418 202.059 83.3257 195.605 82.8107 192.056C82.3166 188.652 79.2749 181.385 77.262 176.577C76.9421 175.812 76.6522 175.12 76.4093 174.529C74.7769 170.566 71.0773 156.132 71.0773 150.949C71.0773 147.233 69.9268 142.348 69.0867 138.78C68.723 137.236 68.4088 135.902 68.3004 135.125C68.1259 133.873 68.3765 133.506 69.7382 131.768C70.4387 130.873 71.398 129.647 72.5677 127.85C75.3492 123.574 87.4695 114.63 90.5306 112.408C95.1159 120.392 100.016 126.173 104.862 130.942C101.968 132.611 94.138 137.062 90.9999 138.221C90.7447 138.315 90.5358 138.505 90.4176 138.75C90.2597 139.078 89.4837 140.782 89.7146 142.091C89.8678 143.049 89.9535 155.316 89.8235 157.718C89.7076 159.862 90.3594 173.218 92.0686 179.864C93.1356 184.013 93.5126 188.979 93.7881 192.605C93.9373 194.569 94.0659 196.265 94.2656 197.374C94.8238 200.473 96.2778 202.743 98.9801 204.735C99.4051 205.048 100.188 206.313 100.658 211.272C100.677 211.476 100.693 211.635 100.706 211.741C100.647 212.394 99.8228 215.911 98.9909 219.23ZM108.587 134.447C107.493 139.274 100.08 171.629 95.1028 184.579C94.8539 182.803 94.533 181.017 94.1021 179.341C92.4413 172.883 91.8075 159.913 91.9201 157.831C92.0362 155.685 91.9982 142.95 91.7827 141.728C91.7143 141.34 91.9285 140.59 92.1515 140.026C95.934 138.503 104.153 133.783 106.436 132.458C107.156 133.138 107.873 133.802 108.587 134.447ZM145.448 233.468C143.762 230.265 133.234 218.289 130.634 217.462C130.092 217.29 128.423 216.89 125.898 216.285C118.906 214.611 105.998 211.52 102.602 209.711C102.272 206.97 101.662 204.104 100.226 203.045C97.9584 201.374 96.7938 199.566 96.3319 197.002C96.1515 195.999 96.0264 194.353 95.8816 192.446C95.7963 191.322 95.701 190.071 95.5791 188.754C100.376 179.309 108.567 144.004 110.41 135.905C110.46 135.918 110.507 135.939 110.559 135.945C112.501 136.154 115.735 133.24 120.441 128.772C122.167 127.133 124.124 125.276 124.774 124.965C125.78 124.484 127.839 122.802 131.11 120.088C133.853 117.814 137.609 114.699 138.696 114.307L137.984 112.331C136.651 112.812 133.866 115.075 129.77 118.472C127.399 120.439 124.713 122.667 123.868 123.071C122.963 123.504 121.501 124.871 118.995 127.25C116.857 129.28 112.543 133.376 111.032 133.819C104.622 128.126 97.8838 121.307 91.7732 110.346C93.6393 109.234 96.2855 107.002 99.0592 104.662C101.963 102.212 104.966 99.6792 106.731 98.7545C108.942 97.5961 114.83 92.8218 120.524 88.2044C124.694 84.8229 129.006 81.326 129.94 80.878C131.199 80.2742 136.765 80.4587 141.676 80.6222C144.745 80.7247 147.918 80.8298 150.711 80.797C156.484 80.7293 159.207 79.4761 160.374 78.658C162.638 80.1814 170.332 85.7384 173.249 92.6967C177.556 102.966 181.585 104.048 183.081 104.048H183.102C183.798 104.897 184.73 108.904 185.297 111.34C185.882 113.854 186.387 116.025 186.929 117.109C188.287 119.827 189.85 124.879 189.072 127.603C188.818 128.492 188.161 130.037 187.401 131.826C185.462 136.387 182.807 142.634 182.945 146.833C183.117 152.086 171.799 196.659 169.518 204.806C168.913 206.966 167.75 210.197 166.519 213.617C163.688 221.485 160.48 230.402 160.812 234.594C160.841 234.951 160.916 235.902 159.028 236.449C154.662 237.71 146.413 235.302 145.448 233.468Z" fill="#34539B"/>
    <path d="M190.543 42.4839C194.46 41.4146 196.233 45.4846 196.307 45.6578L198.245 44.851C197.389 42.7848 194.561 39.2084 189.988 40.4592C188.514 40.8621 187.388 41.7688 186.639 43.1533C184.854 46.4575 185.857 51.3609 186.223 52.4932C186.48 53.2866 187.201 54.3964 188.035 55.6815C188.742 56.7697 189.925 58.5909 189.956 59.1076C189.884 60.1481 190.562 61.3563 191.683 62.1867C192.422 62.7336 193.218 63.0171 193.971 63.0171C194.318 63.0171 194.656 62.9571 194.975 62.8351C196.836 62.1231 197.021 59.8718 196.837 58.6539L194.761 58.9676C194.81 59.2865 194.866 60.6289 194.226 60.8739C193.906 60.9959 193.41 60.8529 192.932 60.4992C192.34 60.0599 192.035 59.4833 192.05 59.2521C192.124 58.1834 191.242 56.7645 189.796 54.5378C189.138 53.5249 188.392 52.3762 188.221 51.8472C187.847 50.6918 187.187 46.5558 188.486 44.1518C188.958 43.2789 189.631 42.7335 190.543 42.4839Z" fill="#34539B"/>
    <path opacity="0.2" d="M95.5235 185.559C123.243 185.559 145.714 163.088 145.714 135.368C145.714 107.649 123.243 85.1777 95.5235 85.1777C67.804 85.1777 45.333 107.649 45.333 135.368C45.333 163.088 67.804 185.559 95.5235 185.559Z" fill="#0075FF"/>
</svg>
