<svg width="277" height="278" viewBox="0 0 277 278" fill="none" xmlns="http://www.w3.org/2000/svg">
    <path d="M139 239C194.228 239 239 194.228 239 139C239 83.7715 194.228 39 139 39C83.7715 39 39 83.7715 39 139C39 194.228 83.7715 239 139 239Z" fill="#F1F5FF"/>
    <path d="M136.628 166.414L136.627 166.413C128.06 159.714 123.802 149.966 123.809 140.218C120.467 138.696 117.371 136.455 114.799 133.421L114.797 133.419C111.748 129.794 109.889 125.477 109.182 121.015C102.348 121.037 95.5133 123.21 89.9209 127.556C82.3006 133.492 78.2078 141.921 77.6487 150.546L77.6487 150.547C76.2401 172.201 67.3458 192.679 51.9743 208.038L35.6861 224.312L60.8555 249.46L83.3565 226.978L136.628 166.414ZM136.628 166.414C142.207 170.77 148.947 173.069 155.748 173.317M136.628 166.414L155.748 173.317M155.748 173.317C156.464 180.101 154.409 187.118 149.602 192.348C145.65 196.639 140.524 199.151 135.216 199.901C115.415 202.703 97.4253 212.888 83.3571 226.978L155.748 173.317Z" fill="white" stroke="#34539B" stroke-width="1.5"/>
    <path d="M138.506 85.1434L138.506 85.1434C158.301 82.3412 176.267 72.1569 190.363 58.068L212.856 35.5869L238.017 60.7502L221.734 77.0238C206.368 92.3651 197.477 112.859 196.069 134.479L196.069 134.479C195.51 143.104 191.419 151.532 183.802 157.469C172.512 166.255 156.282 166.207 145.023 157.402C136.718 150.893 132.658 141.38 132.789 131.914L132.796 131.412L132.335 131.214C129.021 129.795 125.953 127.609 123.423 124.623C115.69 115.458 115.984 101.519 124.125 92.6976L124.126 92.6969C128.076 88.406 133.2 85.894 138.506 85.1434Z" fill="white" stroke="#34539B" stroke-width="1.5"/>
    <path opacity="0.2" d="M158.286 206.003C186.515 206.003 209.399 183.118 209.399 154.889C209.399 126.66 186.515 103.776 158.286 103.776C130.057 103.776 107.173 126.66 107.173 154.889C107.173 183.118 130.057 206.003 158.286 206.003Z" fill="#0075FF"/>
</svg>
