<svg width="278" height="279" viewBox="0 0 278 279" fill="none" xmlns="http://www.w3.org/2000/svg">
    <path d="M139 238C194.228 238 239 193.228 239 138C239 82.7715 194.228 38 139 38C83.7715 38 39 82.7715 39 138C39 193.228 83.7715 238 139 238Z" fill="#F1F5FF"/>
    <path d="M77.8697 176.213C75.0742 174.932 71.0655 170.158 70.5001 168.319C70.455 168.174 70.4028 167.988 70.3411 167.769C69.825 165.933 68.6158 161.634 65.2337 158.892C63.1324 157.188 57.1281 153.306 54.4363 152.475C52.292 151.812 50.8862 150.486 49.9563 149.609C49.6638 149.334 49.2637 148.956 49.113 148.888L48.9689 148.849C48.2069 148.632 45.889 147.974 45.2822 148.9C44.1537 150.619 44.061 151.249 44.0618 151.412C44.2914 151.672 44.5251 152.065 44.926 152.75C45.3364 153.452 46.4265 155.316 46.9472 155.543C47.954 155.793 48.7852 156.839 49.1434 158.333C49.4453 159.591 49.3759 161.277 48.2757 162.234L46.7328 160.46C46.8493 160.358 46.9991 159.974 46.9337 159.33C46.8504 158.51 46.4842 157.899 46.3114 157.802C45.4792 157.596 44.758 156.828 44.023 155.751C42.4587 159.898 41.8247 169.104 41.9864 171.029C42.5608 171.476 44.3127 172.614 45.8009 173.526C46.1289 173.727 46.3376 174.076 46.36 174.46C46.4395 175.827 46.6034 177.527 46.7208 177.881C47.4702 179.027 54.96 180.731 58.5598 181.55C60.944 182.092 63.003 182.561 64.2452 182.974C67.2807 183.986 73.6036 190.767 80.9436 198.859C82.5959 200.68 84.023 202.254 84.9994 203.264C89.2791 207.691 119.359 234.958 122.713 236.97C126.052 238.974 133.066 245.735 137.256 249.775L138.566 251.036C141.754 254.091 147.386 251.345 150.46 249.437C151.655 248.696 152.848 247.688 154.358 246.412C157.894 243.425 163.239 238.91 174.576 232.884C188.268 225.606 201.746 207.777 205 203.291C204.082 202.735 203.096 202.135 202.026 201.484C190.077 194.207 172.185 183.315 162.273 181.341C160.904 183.808 156.5 191.85 155.531 194.845C155.445 195.11 155.267 195.337 155.031 195.484C154.949 195.533 146.87 200.543 144.396 203.12C144.171 203.355 143.863 203.482 143.548 203.482C143.442 203.482 143.336 203.468 143.231 203.439C143.018 203.379 121.75 197.445 113.286 195.409C106.773 193.842 92.2333 184.926 83.5463 179.599C80.7209 177.866 78.4891 176.497 77.8697 176.213Z" fill="white"/>
    <path d="M50.2793 146.85C50.6519 147.06 51.0063 147.373 51.3998 147.742C51.7075 147.077 52.2381 145.899 52.8394 144.435C51.9348 145.24 51.0126 146.096 50.2793 146.85Z" fill="white"/>
    <path d="M84.2387 138.185C83.1022 151.864 75.7181 157.466 75.3612 157.729L74.6646 156.782L73.9649 155.837C74.0542 155.77 82.8924 148.97 81.9651 132.075C81.4359 122.429 85.9486 107.473 89.8276 96.6262C93.3539 86.7653 98.0526 75.7936 99.551 73.8421C98.4018 71.0322 97.5356 68.0735 97.4997 65.3176C97.4391 60.6454 98.3748 53.5418 100.456 46.3122C99.223 45.878 96.7097 45.9907 94.9835 46.0689C93.5186 46.1349 92.3617 46.1877 91.591 46.0275C91.587 46.0275 91.5832 46.027 91.5792 46.027C91.1341 46.027 89.8353 47.2284 88.7774 48.7989C88.8285 51.2311 88.9797 64.3797 86.5232 71.0327C84.9214 75.3712 79.3249 85.8942 74.8283 94.3496C71.9418 99.777 69.4488 104.465 68.9138 105.823C68.6868 106.399 68.287 107.377 67.7709 108.639C65.2128 114.894 59.222 129.541 58.3311 134.709C57.2641 140.897 53.637 148.525 53.2588 149.31C53.7947 149.674 54.4054 150.002 55.1297 150.226C58.4378 151.249 64.8296 155.536 66.7135 157.064C70.6757 160.276 72.0267 165.08 72.6033 167.131C72.659 167.328 72.7058 167.495 72.7463 167.627C72.8698 168.029 73.4425 168.896 74.2306 169.877C85.9602 168.88 102.551 161.455 106.616 159.565C105.598 158.297 104.139 156.722 103.02 155.515C100.533 152.833 98.1842 150.299 97.4753 148.527C96.7268 146.656 91.5048 141.391 87.3767 137.532L84.2387 138.185Z" fill="white"/>
    <path d="M108.035 165.244C108.222 164.554 107.963 162.5 107.845 161.591C107.013 161.983 105.521 162.67 103.577 163.512C105.039 164.795 107.251 165.291 108.035 165.244Z" fill="white"/>
    <path d="M230.49 212.325C229.662 204.963 232.594 194.929 235.43 185.226C236.043 183.126 236.678 180.954 237.262 178.851C240.575 166.925 244.109 144.446 241.175 134.071C238.607 124.992 224.57 116.996 213.33 112.909C206.079 110.272 192.758 103.37 188.932 101.362C186.745 105.314 178.617 119.289 170.062 125.056C159.771 131.994 149.885 130.98 142.423 129.321C140.028 128.789 138.583 127.694 138.126 126.065C137.652 124.372 138.44 122.517 139.4 121.033C135.495 121.948 132.105 122.58 130.18 122.58C129.864 122.58 129.588 122.563 129.355 122.528C124.688 121.817 121.806 117.125 120.924 115.469C120.443 115.37 119.748 115.188 119.009 114.893C118.751 115.035 114.026 117.685 112.78 121.049C111.858 123.538 106.45 126.129 97.6528 130.101C93.967 131.765 89.8765 133.612 87.9707 134.879C90.862 137.538 98.4888 144.732 99.6588 147.656C100.206 149.023 102.617 151.624 104.745 153.919C107.969 157.396 109.956 159.608 110.163 161.195C110.336 162.524 110.51 163.872 110.427 164.988L111.721 164.866C112.941 156.602 114.178 149.848 114.288 149.256L116.6 149.682C116.542 149.993 110.88 180.901 111.683 192.438C112.48 192.737 113.206 192.973 113.835 193.124C121.497 194.967 139.548 199.974 143.21 200.993C145.931 198.466 151.897 194.672 153.436 193.707C154.911 189.646 160.389 179.886 160.63 179.458L160.638 179.463C160.66 179.424 160.674 179.383 160.7 179.347C161.343 178.455 176.527 157.418 184.38 151.02L185.865 152.843C179.424 158.091 167.349 174.256 163.687 179.242C174.101 181.728 190.835 191.917 203.248 199.477C208.844 202.884 214.618 206.4 216.293 206.92C218.755 203.603 228.258 176.144 233.837 159.098L236.072 159.83C236.032 159.949 232.108 171.931 227.915 183.865C219.25 208.527 217.992 208.947 217.074 209.253C216.925 209.302 216.763 209.329 216.577 209.329C215.354 209.329 213.098 208.16 207.022 204.512C203.892 208.879 190.166 227.26 175.678 234.96C164.564 240.869 159.335 245.286 155.875 248.209C154.291 249.547 153.041 250.603 151.7 251.436C148.149 253.639 144.937 254.749 142.234 254.749C140.135 254.749 138.343 254.08 136.939 252.735L135.624 251.468C131.775 247.758 124.612 240.853 121.502 238.987C119.961 238.062 113.922 232.848 107.061 226.737C106.133 238.238 104.979 254.132 104.948 258.96C153.565 268.263 220.382 259.237 229.688 257.899C230.396 247.144 231.44 220.763 230.49 212.325Z" fill="white"/>
    <path d="M175.954 85.7749C175.314 80.9708 177.491 75.424 179.597 70.0597C181.248 65.8573 182.806 61.8885 182.898 58.6418C183.074 52.3895 178.821 18.2183 155.781 17.3693C131.741 16.4819 117.282 20.6085 110.278 30.3527C102.988 40.4957 99.747 57.1953 99.8521 65.2873C99.9181 70.3611 103.313 76.5715 105.559 80.6804C107.293 83.8519 108.052 85.2984 107.876 86.3558C107.816 86.7134 107.693 87.288 107.537 88.0148C105.75 96.3393 105.978 98.7261 106.485 99.2622C107.591 100.433 110.975 100.991 112.849 101.068C113.432 101.091 113.909 101.539 113.97 102.119L114.343 105.665L117.099 107.319C117.645 107.646 117.831 108.349 117.519 108.903C117.468 109.003 116.966 110.064 117.882 111.332C118.789 112.588 121.063 113.139 121.862 113.245C122.264 113.298 122.611 113.555 122.779 113.923C122.804 113.977 125.411 119.548 129.709 120.202C133.178 120.73 151.435 115.578 162.86 111.986L163.565 114.229C161.814 114.779 151.968 117.85 143.151 120.109C141.963 121.316 139.968 123.921 140.392 125.43C140.647 126.338 141.915 126.798 142.933 127.025C150.372 128.678 159.256 129.505 168.748 123.106C175.832 118.33 182.884 107.11 185.895 101.935C184.775 100.944 177.027 93.824 175.954 85.7749ZM170.142 90.1748C169.233 90.7964 166.951 93.9949 165.977 95.3605C165.631 95.8462 165.355 96.2313 165.194 96.4403C164.407 97.4643 162.693 98.73 160.382 98.7306C159.028 98.7306 157.471 98.2967 155.773 97.1256L157.108 95.19C161.036 97.9011 163.239 95.1263 163.331 95.0069C163.481 94.8106 163.739 94.4496 164.063 93.9949C165.833 91.514 167.658 89.025 168.814 88.2345C169.621 87.6674 172.638 81.7498 170.293 76.6593C169.933 75.8763 169.362 75.3643 168.549 75.0928C165.784 74.1709 161.052 76.1984 159.461 77.0565L158.344 74.9878C158.614 74.842 165.008 71.4323 169.293 72.8627C170.736 73.3438 171.791 74.2903 172.429 75.6755C175.153 81.5914 172.108 88.8299 170.142 90.1748Z" fill="white"/>
    <path d="M214.134 110.696C205.942 107.718 189.174 98.8289 189.005 98.7394C188.73 98.5936 188.407 98.562 188.108 98.6545C187.81 98.7463 187.56 98.953 187.414 99.2291C187.404 99.2476 187.287 99.467 187.085 99.8348C185.325 98.1881 179.156 92.0012 178.284 85.4622C177.724 81.262 179.789 76.0034 181.786 70.9175C183.513 66.5188 185.144 62.364 185.247 58.7069C185.371 54.315 184.042 43.8321 179.949 34.3986C174.615 22.1035 166.288 15.4023 155.867 15.0177C130.965 14.101 115.874 18.5365 108.369 28.9792C105.261 33.3025 102.872 38.6575 101.135 44.0748C99.4432 43.5222 97.0449 43.622 94.8773 43.7191C93.7339 43.7719 92.5511 43.8258 92.0712 43.7249C89.7151 43.2358 87.2893 46.7442 86.6008 47.8326C86.4757 48.03 86.4122 48.2608 86.4191 48.495C86.4234 48.6437 86.8166 63.4513 84.3185 70.2179C82.7715 74.4066 77.2166 84.8522 72.753 93.245C69.7123 98.9623 67.3109 103.478 66.7268 104.96C66.5021 105.531 66.1063 106.499 65.5951 107.748C62.789 114.61 56.9494 128.888 56.0149 134.309C55.7077 136.091 55.1606 138.03 54.5411 139.882C53.6413 140.622 49.5144 144.049 47.725 146.159C46.2092 145.939 44.3477 146.035 43.316 147.608C42.5035 148.846 40.8127 151.421 42.298 152.965C42.3495 153.026 42.4479 153.181 42.5611 153.369C41.1961 155.628 40.4414 160.233 40.0475 163.758C39.6595 167.23 39.3355 171.54 39.9944 172.364C40.4164 172.892 42.3319 174.142 44.0511 175.208C44.1355 176.45 44.2879 178.11 44.525 178.719C45.2767 180.653 49.1244 181.812 58.0376 183.84C60.2648 184.346 62.3686 184.825 63.5014 185.203C66.1996 186.102 74.3388 195.075 79.2016 200.436C80.8675 202.273 82.3062 203.859 83.3085 204.895C85.4988 207.161 95.625 216.499 104.952 224.851L104.856 224.843C104.585 228.156 102.22 257.303 102.659 260.525L104.988 260.207C104.957 259.975 104.945 259.543 104.949 258.958C104.98 254.129 106.133 238.235 107.061 226.734C113.922 232.846 119.961 238.06 121.502 238.984C124.613 240.85 131.776 247.756 135.624 251.466L136.939 252.732C138.343 254.077 140.135 254.746 142.234 254.746C144.937 254.746 148.15 253.637 151.7 251.433C153.041 250.601 154.291 249.544 155.875 248.206C159.335 245.283 164.564 240.866 175.678 234.958C190.167 227.257 203.892 208.876 207.023 204.509C213.098 208.157 215.354 209.326 216.577 209.326C216.763 209.326 216.926 209.299 217.074 209.25C217.992 208.944 219.25 208.524 227.915 183.862C232.108 171.928 236.033 159.946 236.072 159.827L233.837 159.096C228.259 176.141 218.756 203.601 216.294 206.918C214.618 206.397 208.844 202.881 203.248 199.474C190.835 191.914 174.102 181.725 163.688 179.239C167.349 174.253 179.424 158.088 185.865 152.84L184.38 151.017C176.527 157.416 161.343 178.452 160.701 179.344C160.675 179.381 160.66 179.422 160.638 179.46L160.63 179.455C160.389 179.884 154.911 189.643 153.436 193.704C151.897 194.669 145.931 198.463 143.21 200.99C139.548 199.972 121.497 194.964 113.836 193.122C113.206 192.97 112.48 192.735 111.684 192.435C110.88 180.899 116.542 149.991 116.6 149.679L114.288 149.253C114.178 149.846 112.941 156.599 111.721 164.863L110.427 164.986C110.51 163.87 110.336 162.521 110.163 161.193C109.956 159.606 107.969 157.394 104.745 153.916C102.617 151.621 100.206 149.021 99.6589 147.653C98.489 144.729 90.8622 137.535 87.9708 134.876C89.8766 133.61 93.9671 131.762 97.6529 130.098C106.45 126.126 111.858 123.535 112.78 121.047C114.026 117.682 118.751 115.032 119.009 114.89C119.749 115.185 120.443 115.367 120.925 115.466C121.806 117.122 124.688 121.815 129.355 122.525C129.588 122.56 129.864 122.577 130.18 122.577C132.105 122.577 135.495 121.946 139.4 121.03C138.44 122.514 137.652 124.369 138.127 126.062C138.583 127.691 140.028 128.787 142.423 129.319C149.885 130.977 159.771 131.991 170.062 125.054C178.617 119.287 186.745 105.311 188.933 101.36C192.758 103.368 206.079 110.27 213.33 112.907C224.57 116.994 238.607 124.989 241.175 134.068C244.109 144.443 240.575 166.922 237.262 178.848C236.678 180.952 236.043 183.123 235.43 185.223C232.594 194.926 229.663 204.96 230.491 212.322C231.44 220.761 230.396 247.141 229.688 257.896C229.664 258.26 229.64 258.608 229.617 258.935L231.962 259.1C232.769 247.695 233.805 220.753 232.827 212.059C232.052 205.166 234.916 195.363 237.687 185.883C238.302 183.775 238.939 181.596 239.528 179.477C242.911 167.296 246.494 144.236 243.437 133.429C239.814 120.618 218.392 112.245 214.134 110.696ZM51.3992 147.739C51.0056 147.37 50.6513 147.057 50.2787 146.847C51.012 146.093 51.9342 145.237 52.8388 144.432C52.2376 145.897 51.707 147.074 51.3992 147.739ZM143.231 203.437C143.335 203.465 143.442 203.48 143.547 203.48C143.863 203.48 144.17 203.352 144.395 203.118C146.869 200.541 154.949 195.531 155.03 195.481C155.267 195.334 155.444 195.108 155.53 194.843C156.499 191.847 160.904 183.806 162.272 181.338C172.185 183.312 190.077 194.205 202.025 201.481C203.095 202.133 204.081 202.732 204.999 203.288C201.745 207.775 188.268 225.603 174.575 232.882C163.238 238.907 157.894 243.423 154.357 246.41C152.847 247.686 151.655 248.693 150.46 249.435C147.386 251.343 141.753 254.089 138.566 251.034L137.256 249.773C133.065 245.733 126.052 238.972 122.712 236.968C119.359 234.956 89.2786 207.688 84.9989 203.261C84.0225 202.251 82.5954 200.678 80.9431 198.856C73.6031 190.764 67.2802 183.984 64.2447 182.972C63.0025 182.558 60.9435 182.09 58.5593 181.547C54.9595 180.728 47.4697 179.024 46.7203 177.878C46.6029 177.524 46.439 175.824 46.3595 174.458C46.3371 174.074 46.1284 173.725 45.8003 173.524C44.3122 172.612 42.5603 171.474 41.9859 171.027C41.8242 169.102 42.4582 159.896 44.0225 155.748C44.7575 156.826 45.4787 157.594 46.3109 157.799C46.4837 157.897 46.8499 158.508 46.9332 159.327C46.9986 159.971 46.8488 160.356 46.7323 160.458L48.2752 162.231C49.3754 161.274 49.4448 159.589 49.1429 158.331C48.7847 156.837 47.9535 155.791 46.9467 155.54C46.4261 155.313 45.336 153.449 44.9255 152.748C44.5246 152.062 44.2909 151.67 44.0613 151.41C44.0605 151.246 44.1532 150.616 45.2817 148.897C45.8885 147.971 48.2064 148.629 48.9684 148.847L49.1125 148.885C49.2632 148.954 49.6633 149.331 49.9558 149.607C50.8857 150.484 52.2915 151.809 54.4358 152.472C57.1277 153.304 63.1319 157.186 65.2332 158.889C68.6153 161.631 69.8245 165.931 70.3406 167.767C70.4023 167.986 70.4545 168.171 70.4996 168.317C71.065 170.156 75.0737 174.93 77.8692 176.211C78.4886 176.495 80.7204 177.864 83.5457 179.596C92.2328 184.924 106.772 193.84 113.286 195.407C121.75 197.443 143.017 203.377 143.231 203.437ZM107.844 161.589C107.962 162.498 108.221 164.552 108.033 165.241C107.25 165.289 105.037 164.793 103.576 163.51C105.52 162.668 107.012 161.981 107.844 161.589ZM109.279 191.434C102.058 188.19 91.1986 181.531 84.7751 177.592C81.3725 175.505 79.5638 174.401 78.8491 174.073C78.0396 173.703 77.0863 172.924 76.1749 172.028C84.5807 170.951 94.6043 167.264 101.261 164.494C103.012 166.581 106.086 167.588 107.95 167.588C108.232 167.588 108.474 167.556 108.692 167.511L111.374 167.257C110.162 175.808 109.076 185.436 109.279 191.434ZM97.476 148.526C98.1849 150.298 100.534 152.832 103.021 155.515C104.14 156.722 105.599 158.296 106.617 159.565C102.551 161.454 85.9609 168.879 74.2313 169.876C73.4431 168.895 72.8705 168.028 72.7469 167.626C72.7065 167.494 72.6597 167.327 72.604 167.13C72.0273 165.079 70.6764 160.276 66.7142 157.063C64.8302 155.535 58.4385 151.248 55.1304 150.226C54.406 150.002 53.7954 149.674 53.2594 149.309C53.6376 148.525 57.2647 140.896 58.3317 134.708C59.2226 129.541 65.2134 114.893 67.7716 108.638C68.2876 107.376 68.6874 106.398 68.9145 105.822C69.4495 104.464 71.9425 99.7762 74.8289 94.3488C79.3256 85.8933 84.922 75.3703 86.5238 71.0318C88.9804 64.3788 88.8292 51.2302 88.7781 48.7981C89.836 47.2275 91.1348 46.0261 91.5799 46.0261C91.5839 46.0261 91.5876 46.0267 91.5916 46.0267C92.3623 46.1869 93.5192 46.134 94.9841 46.068C96.7104 45.99 99.2236 45.8772 100.456 46.3113C98.3755 53.5409 97.4398 60.6445 97.5004 65.3168C97.5363 68.0726 98.4025 71.0313 99.5516 73.8412C98.0532 75.7928 93.3546 86.7644 89.8282 96.6253C85.9493 107.472 81.4365 122.428 81.9658 132.074C82.8931 148.97 74.0548 155.77 73.9656 155.836L74.6653 156.781L75.3619 157.728C75.7188 157.465 83.1029 151.863 84.2394 138.184L87.3773 137.531C91.5055 141.39 96.7275 146.655 97.476 148.526ZM96.6855 127.955C90.4703 130.761 86.595 132.558 85.292 134.066C84.916 134.502 84.9182 135.134 85.2677 135.568L84.3661 135.756C84.3976 134.541 84.3866 133.276 84.3136 131.946C83.4463 116.145 97.098 83.1811 100.697 76.4252C101.64 78.409 102.646 80.2523 103.496 81.8068C104.382 83.4284 105.482 85.4398 105.547 86.019C105.491 86.3438 105.378 86.8656 105.238 87.52C103.743 94.4841 103.144 99.1475 104.775 100.875C106.414 102.611 109.951 103.167 111.734 103.341L112.065 106.492C112.104 106.86 112.313 107.187 112.63 107.377L115.087 108.851C114.894 109.787 114.894 111.21 115.975 112.707C116.196 113.013 116.458 113.277 116.733 113.523C114.967 114.671 111.729 117.113 110.575 120.23C109.928 121.975 101.959 125.574 96.6855 127.955ZM168.748 123.104C159.255 129.503 150.372 128.676 142.933 127.023C141.914 126.797 140.646 126.337 140.391 125.429C139.967 123.92 141.963 121.314 143.15 120.107C151.967 117.848 161.813 114.778 163.564 114.227L162.86 111.984C151.434 115.576 133.177 120.729 129.708 120.2C125.41 119.546 122.804 113.976 122.779 113.921C122.611 113.553 122.263 113.297 121.862 113.243C121.062 113.137 118.788 112.586 117.882 111.331C116.965 110.062 117.468 109.001 117.519 108.901C117.831 108.347 117.645 107.644 117.099 107.317L114.342 105.663L113.969 102.118C113.908 101.537 113.431 101.09 112.848 101.066C110.974 100.99 107.59 100.432 106.484 99.2607C105.978 98.7245 105.749 96.3377 107.536 88.0132C107.692 87.2865 107.816 86.7119 107.875 86.3542C108.051 85.2969 107.292 83.8503 105.559 80.6788C103.312 76.57 99.9174 70.3595 99.8514 65.2857C99.7464 57.1937 102.988 40.4941 110.278 30.3511C117.282 20.607 131.741 16.4803 155.78 17.3678C178.82 18.2167 183.073 52.3879 182.897 58.6402C182.805 61.8869 181.247 65.8557 179.597 70.0582C177.491 75.4225 175.313 80.9693 175.953 85.7733C177.026 93.8224 184.775 100.943 185.894 101.934C182.883 107.108 175.831 118.328 168.748 123.104Z" fill="#34539B"/>
    <path d="M169.292 72.8615C165.008 71.431 158.614 74.8408 158.344 74.9865L159.461 77.0553C161.052 76.1971 165.784 74.1697 168.549 75.0916C169.362 75.3631 169.933 75.8751 170.293 76.6581C172.638 81.7486 169.621 87.6661 168.814 88.2333C167.658 89.0237 165.833 91.5127 164.063 93.9937C163.738 94.4483 163.481 94.8094 163.331 95.0057C163.239 95.1251 161.036 97.8999 157.108 95.1888L155.772 97.1244C157.47 98.2954 159.028 98.7294 160.382 98.7294C162.693 98.7288 164.407 97.4631 165.194 96.439C165.355 96.2301 165.631 95.8449 165.977 95.3593C166.951 93.9937 169.233 90.7952 170.141 90.1735C172.107 88.8286 175.153 81.5901 172.429 75.6742C171.791 74.2891 170.736 73.3426 169.292 72.8615Z" fill="#34539B"/>
    <path opacity="0.2" d="M61.2263 211.555C89.5572 211.555 112.524 188.588 112.524 160.258C112.524 131.927 89.5572 108.96 61.2263 108.96C32.8954 108.96 9.92871 131.927 9.92871 160.258C9.92871 188.588 32.8954 211.555 61.2263 211.555Z" fill="#0075FF"/>
</svg>
