<svg width="273" height="274" viewBox="0 0 273 274" fill="none" xmlns="http://www.w3.org/2000/svg">
    <path d="M137 237C192.228 237 237 192.228 237 137C237 81.7715 192.228 37 137 37C81.7715 37 37 81.7715 37 137C37 192.228 81.7715 237 137 237Z" fill="#F1F5FF"/>
    <path d="M210.378 243.212C210.142 243.111 209.041 242.853 208.157 242.646C208.034 242.617 207.915 242.589 207.794 242.56C207.885 243.289 208.001 243.935 208.11 244.207C208.265 244.269 208.571 244.38 209.16 244.558C209.427 244.64 209.718 244.544 209.885 244.32C210.202 243.894 210.437 243.576 210.62 243.325C210.541 243.288 210.467 243.25 210.378 243.212Z" fill="white"/>
    <path d="M197.562 250.752C197.843 250.524 198.265 249.964 198.412 249.648C198.175 249.197 197.456 248.164 196.966 247.605C196.783 248.057 196.556 248.746 196.37 249.394C196.798 249.992 197.29 250.553 197.562 250.752Z" fill="white"/>
    <path d="M167.365 168.874C167.078 169.161 166.742 169.63 166.381 170.213C166.626 171.359 167.103 172.819 167.716 174.428C170.286 169.7 176.327 158.629 178.159 155.652C180.415 151.986 185.452 139.017 184.529 128.677C184.002 122.777 184.212 116.232 184.398 110.458C184.55 105.726 184.681 101.64 184.343 99.3167C183.821 95.7232 181.641 86.5797 180.346 81.2803C174.519 102.346 168.679 122.845 166.124 129.932C166.068 130.075 161.886 140.688 162.442 151.252C162.462 151.636 162.293 152.006 161.989 152.241C153.333 158.938 153.929 172.607 154.562 175.901C154.788 176.535 156.655 177.688 158.235 178.349C157.39 177.586 156.837 176.643 156.516 175.966C156.215 175.328 156.238 174.571 156.58 173.94L158.987 169.51C159.482 168.6 160.572 168.224 161.522 168.635L163.975 169.695C164.594 168.622 165.195 167.73 165.708 167.217C167.27 165.653 169.042 163.882 172.065 155.254C175.09 146.62 178.463 143.628 178.606 143.504L179.373 144.39L180.146 145.271C180.115 145.298 177.065 148.072 174.277 156.029C171.312 164.489 169.468 166.77 167.365 168.874Z" fill="white"/>
    <path d="M219.736 228.57C219.815 228.473 219.905 228.244 219.982 227.967C219.928 227.897 219.866 227.837 219.787 227.798C219.215 227.512 217.457 227.261 215.905 227.039C214.941 226.901 213.967 226.761 213.048 226.594C213.131 227.368 213.261 228.008 213.397 228.221C214.24 228.584 218.88 228.736 219.736 228.57Z" fill="white"/>
    <path d="M219.499 231.346C219.489 231.346 219.345 231.34 219.105 231.328C219.328 231.754 219.583 232.167 219.724 232.297C220.088 232.518 222.423 233.046 223.036 232.973C223.055 232.971 223.072 232.964 223.091 232.961C222.467 232.033 220.388 231.379 219.499 231.346Z" fill="white"/>
    <path d="M215.203 236.523C215.263 236.862 215.322 237.166 215.372 237.376C216.197 237.434 218.27 237.425 218.89 237.351C219.029 237.186 219.268 236.838 219.528 236.438C218.795 236.474 216.991 236.5 215.203 236.523Z" fill="white"/>
    <path d="M160.963 169.925C160.683 169.804 160.367 169.915 160.222 170.181L157.816 174.611C157.687 174.848 157.676 175.129 157.787 175.363C158.162 176.156 158.927 177.411 160.18 177.963C160.813 176.167 162.036 173.318 163.293 170.932L160.963 169.925Z" fill="white"/>
    <path d="M120.785 70.1229C121.411 71.0251 121.918 71.8317 122.231 72.4883C122.4 72.8436 122.607 73.2857 122.844 73.793C124.397 77.1155 128.033 84.8959 129.995 86.5113C130.576 86.99 131.441 87.5771 132.443 88.2567C135.527 90.3505 139.754 93.2186 141.287 96.758C143.154 101.067 148.141 114.999 148.306 120.846C148.39 123.789 148.368 126.352 148.348 128.613C148.319 131.925 148.296 134.54 148.676 135.642C149.125 136.945 151.379 143.626 151.622 147.195C151.839 150.383 152.148 159.392 150.982 162.734C149.657 166.533 146.401 167.107 145.176 167.324C145.136 167.331 145.096 167.336 145.056 167.339C140.616 167.66 137.325 165.313 136.468 161.217C136.308 160.451 136.028 159.358 135.703 158.094C134.713 154.245 133.359 148.975 133.415 145.381C133.494 140.311 132.135 135.865 130.321 135.261C129.036 134.832 126.682 138.924 125.89 141.299C125.355 142.905 118.968 147.881 115.296 149.856C113.922 152.392 107.681 157.362 104.645 159.689C104.501 160.038 104.234 160.631 103.817 161.383C104.515 162.057 106.474 163.752 109.594 164.935L109.095 166.25C106.021 165.084 104.008 163.479 103.074 162.619C102.731 163.15 102.328 163.725 101.858 164.329C103.288 165.396 107.112 168.071 111.256 169.463L110.808 170.797C106.381 169.309 102.417 166.515 100.96 165.416C99.6768 166.886 98.0143 168.455 95.8722 169.924C92.1446 172.481 89.788 177.756 90.0084 183.049C90.2424 188.666 93.2942 193.426 98.6024 196.451C108.751 202.234 139.316 221.361 146.405 232.991C152.342 242.73 168.02 251.757 183.076 251.034C181.858 250.251 180.932 249.659 180.908 249.644L182.169 247.669C182.42 247.829 188.335 251.606 189.994 252.76C190.912 253.4 194.739 252.794 196.781 251.916C196.336 251.608 195.757 251.016 195.02 249.914C194.907 249.746 194.873 249.536 194.926 249.34C195.622 246.763 196.065 246.222 196.319 246.047C195.249 244.431 194.168 242.965 193.589 242.587C191.902 241.488 187.045 238.88 185.614 238.568L186.112 236.278C187.999 236.688 193.248 239.568 194.869 240.624C196.66 241.793 199.915 247.324 200.799 248.864C203.169 249.603 206.31 248.808 208.226 248.32C208.747 248.187 209.196 248.072 209.564 248.003C210.608 247.806 211.784 245.66 211.784 244.635C211.784 244.494 211.76 244.358 211.704 244.224C211.522 244.474 211.296 244.779 211.012 245.16C210.615 245.692 209.993 245.993 209.351 245.993C209.15 245.993 208.948 245.964 208.75 245.903C207.708 245.587 207.44 245.452 207.351 245.407C207.086 245.275 206.611 245.028 206.334 242.209C203.808 241.586 201.983 241.025 201.2 240.305C200.429 239.596 197.096 237.993 195.175 237.15L196.118 235.004C197.007 235.394 201.506 237.402 202.787 238.579C203.396 239.122 207.107 239.992 208.692 240.363C210.128 240.7 210.895 240.883 211.301 241.057C211.825 241.282 213.146 241.849 213.779 243.11C216.092 243.352 219.131 242.581 220.124 242.025C220.82 241.636 221.489 239.876 221.402 238.661C221.368 238.185 221.059 237.65 220.701 237.222C219.899 238.456 219.65 238.574 219.517 238.637C219.331 238.724 218.013 238.822 216.756 238.822C215.688 238.822 214.663 238.752 214.41 238.545C214.237 238.403 214.06 238.252 213.776 236.54C212.774 236.553 211.938 236.564 211.574 236.575C209.966 236.642 205.518 234.518 204.199 233.529C203.503 233.007 201.414 232.676 200.152 232.607L200.277 230.267C200.903 230.3 204.099 230.523 205.606 231.654C206.884 232.613 210.72 234.232 211.504 234.233C211.942 234.219 213.058 234.205 214.336 234.189C216.358 234.164 218.876 234.133 219.539 234.09C221.148 233.979 222.887 235.753 223.508 237.473C223.922 237.163 223.924 236.861 223.924 236.666C223.924 235.648 223.809 234.864 223.647 234.261C223.503 234.313 223.352 234.354 223.187 234.372C223.131 234.378 223.064 234.381 222.987 234.381C221.971 234.381 219.386 233.853 218.813 233.369C218.555 233.152 217.876 232.165 217.515 231.244C215.422 231.121 212.269 230.895 211.096 230.588C210.279 230.374 209.201 229.869 208.06 229.335C207.08 228.876 205.859 228.304 205.381 228.234C204.593 228.119 202.304 228.265 201.047 228.385L200.824 226.052C201.185 226.018 204.392 225.72 205.722 225.915C206.54 226.035 207.706 226.58 209.054 227.212C210.05 227.679 211.08 228.161 211.69 228.321C211.766 228.341 211.858 228.36 211.958 228.38C211.758 227.769 211.654 226.995 211.602 226.288C210.584 226.04 209.696 225.734 209.079 225.318C207.236 224.074 201.564 222.318 199.469 222.531C196.915 222.793 192.946 221.674 192.778 221.627C192.042 221.45 188.077 220.36 186.743 217.427C185.831 215.419 174.691 193.486 173.229 191.292C171.934 189.351 166.873 179.48 164.784 173.167C163.45 175.893 162.213 178.968 162.063 179.794C161.941 180.463 161.373 181.18 160.144 181.186C160.14 181.186 160.135 181.186 160.131 181.186C158.051 181.187 152.705 178.665 152.259 176.344C152.229 176.188 149.95 161.821 157.976 152.805C156.569 153.083 154.995 153.324 153.774 153.324C153.627 153.324 153.484 153.321 153.347 153.313L153.424 151.909C155.172 152.002 158.203 151.347 159.88 150.941C159.946 150.885 160.006 150.826 160.073 150.77C159.669 139.896 163.756 129.542 163.932 129.098C169.452 113.785 190.578 34.809 193.23 24.8736C156.743 18.8416 128.571 19.7014 122.225 20.0024C121.676 24.6799 119.303 46.9063 120.785 70.1229ZM159.226 234.39C160.226 234.646 183.834 240.714 191.548 245.916L190.238 247.859C182.857 242.882 158.887 236.722 158.645 236.66L159.226 234.39Z" fill="white"/>
    <path d="M94.5068 93.2465C94.5057 93.3349 94.4943 93.4231 94.4737 93.5089C93.4081 97.8875 95.8482 105.619 96.65 108.16C96.7747 108.555 96.868 108.851 96.9161 109.027C97.1478 109.865 97.1839 111.957 97.2165 115.303C97.236 117.278 97.2577 119.515 97.375 120.199C97.5306 121.107 97.7704 123.145 98.0485 125.505C98.2935 127.588 98.5716 129.948 98.8228 131.776C99.236 134.782 102.312 135.673 102.442 135.709C103.051 135.879 103.421 136.501 103.273 137.115C103.154 137.607 103.78 138.935 104.419 139.794C104.756 140.246 104.723 140.873 104.342 141.288C104.092 141.559 98.2237 147.935 97.5078 148.699C96.987 149.254 95.91 151.154 96.3324 152.562C96.7737 154.034 99.3845 157.505 103.304 157.76C107.881 154.24 112.899 149.86 113.26 148.704C113.354 148.402 113.581 148.101 113.864 147.958C117.724 146.005 123.125 141.441 123.685 140.502C123.953 139.753 126.958 131.669 131.063 133.035C134.902 134.316 135.821 141.42 135.759 145.416C135.707 148.695 137.016 153.79 137.973 157.509C138.305 158.801 138.591 159.917 138.763 160.736C139.123 162.459 140.389 165.299 144.828 165.003C146.432 164.713 148.012 164.132 148.769 161.96C149.724 159.224 149.528 150.937 149.284 147.352C149.11 144.814 147.655 139.868 146.46 136.405C145.949 134.922 145.97 132.403 146.004 128.591C146.023 126.35 146.045 123.81 145.964 120.911C145.814 115.638 141.11 102.243 139.137 97.6886C137.874 94.7739 133.974 92.1272 131.126 90.1944C130.077 89.482 129.17 88.8671 128.505 88.3192C126.318 86.5177 123.34 80.388 120.72 74.784C120.486 74.2827 120.281 73.8455 120.114 73.4944C119.422 72.0418 117.36 69.3774 115.365 66.8008C113.36 64.2108 111.287 61.5327 110.064 59.4479C107.907 55.7676 102.038 39.1827 100.333 34.3125C90.0031 39.1742 80.2575 50.9237 77.1973 54.8401C78.5269 56.9085 83.6834 64.9377 88.6264 72.723C90.9475 76.3786 94.5812 87.2551 94.5068 93.2465ZM140.878 156.183C142.216 156.07 143.265 155.906 143.831 155.721C144.38 155.541 145.258 155.148 146.371 154.583C146.788 154.371 147.279 154.381 147.685 154.608C148.091 154.835 148.357 155.248 148.395 155.712C148.767 160.16 148.751 160.29 148.737 160.394C148.668 160.955 146.958 163.473 145.007 164.014C144.709 164.097 144.397 164.134 144.079 164.134C142.19 164.134 140.103 162.839 139.797 162.123C139.722 161.949 139.567 161.586 139.441 157.798C139.414 156.962 140.045 156.253 140.878 156.183Z" fill="white"/>
    <path d="M144.631 162.66C145.871 162.316 147.066 160.644 147.334 160.167C147.309 159.697 147.181 158.063 146.994 155.829C146.188 156.254 145.047 156.804 144.269 157.058C143.414 157.338 142.018 157.499 140.997 157.584C140.909 157.592 140.844 157.664 140.847 157.753C140.925 160.095 141.024 161.241 141.089 161.55C141.447 161.949 143.368 163.011 144.631 162.66Z" fill="white"/>
    <path d="M222.518 229.755C222.691 228.321 222.447 226.507 220.834 225.701C219.966 225.267 218.521 225.045 216.235 224.718C214.057 224.407 211.345 224.02 210.387 223.374C208.144 221.86 201.884 219.92 199.229 220.199C197.483 220.372 194.442 219.661 193.372 219.359C192.138 219.062 189.61 218.071 188.875 216.456C188.034 214.606 176.787 192.406 175.177 189.991C174.252 188.604 171.153 182.649 168.852 177.243C170.323 174.53 178.094 160.223 180.152 156.879C182.221 153.517 187.889 139.994 186.861 128.467C186.346 122.709 186.554 116.239 186.737 110.532C186.894 105.689 187.028 101.507 186.66 98.9783C185.891 93.6913 181.81 77.4342 181.637 76.7446L181.592 76.756C188.808 50.5678 195.641 24.9222 195.768 24.4449L193.503 23.8418C193.489 23.8937 193.393 24.2554 193.228 24.8731C190.576 34.8085 169.45 113.785 163.93 129.098C163.754 129.541 159.667 139.896 160.071 150.77C160.004 150.825 159.944 150.885 159.878 150.941C158.201 151.346 155.17 152.001 153.422 151.909L153.345 153.313C153.482 153.32 153.625 153.324 153.772 153.324C154.993 153.324 156.568 153.082 157.974 152.804C149.948 161.821 152.227 176.188 152.257 176.343C152.703 178.665 158.049 181.186 160.13 181.186H160.142C161.371 181.179 161.939 180.462 162.061 179.793C162.211 178.968 163.448 175.892 164.782 173.167C166.871 179.48 171.932 189.35 173.227 191.292C174.689 193.486 185.829 215.419 186.742 217.426C188.075 220.36 192.041 221.449 192.776 221.626C192.944 221.674 196.913 222.792 199.467 222.53C201.562 222.318 207.234 224.074 209.077 225.317C209.695 225.734 210.582 226.039 211.6 226.288C211.652 226.994 211.756 227.768 211.957 228.379C211.856 228.36 211.764 228.34 211.688 228.32C211.078 228.161 210.048 227.678 209.052 227.212C207.704 226.58 206.539 226.035 205.72 225.914C204.39 225.719 201.183 226.017 200.822 226.051L201.046 228.385C202.302 228.265 204.591 228.118 205.379 228.233C205.857 228.304 207.078 228.875 208.058 229.334C209.2 229.869 210.277 230.373 211.094 230.587C212.267 230.895 215.42 231.121 217.513 231.243C217.874 232.164 218.554 233.151 218.811 233.369C219.384 233.852 221.969 234.381 222.986 234.381C223.062 234.381 223.129 234.377 223.185 234.372C223.35 234.354 223.501 234.312 223.645 234.261C223.807 234.864 223.922 235.648 223.922 236.665C223.922 236.86 223.92 237.163 223.506 237.472C222.885 235.752 221.146 233.978 219.537 234.09C218.874 234.132 216.357 234.163 214.334 234.189C213.056 234.205 211.94 234.218 211.502 234.232C210.718 234.231 206.882 232.612 205.604 231.653C204.097 230.523 200.901 230.3 200.275 230.266L200.15 232.607C201.412 232.676 203.501 233.006 204.197 233.528C205.516 234.517 209.964 236.641 211.572 236.575C211.937 236.563 212.772 236.552 213.774 236.54C214.058 238.252 214.235 238.403 214.408 238.544C214.662 238.751 215.686 238.821 216.754 238.821C218.011 238.821 219.329 238.724 219.515 238.636C219.648 238.574 219.897 238.456 220.699 237.221C221.058 237.649 221.366 238.184 221.4 238.66C221.487 239.875 220.818 241.636 220.122 242.025C219.129 242.58 216.091 243.351 213.777 243.109C213.144 241.849 211.823 241.281 211.3 241.057C210.893 240.883 210.126 240.699 208.69 240.363C207.106 239.991 203.395 239.121 202.785 238.579C201.504 237.401 197.005 235.394 196.117 235.003L195.174 237.149C197.094 237.993 200.427 239.595 201.198 240.304C201.981 241.024 203.806 241.585 206.332 242.208C206.609 245.027 207.084 245.274 207.349 245.407C207.438 245.452 207.706 245.586 208.748 245.902C208.946 245.963 209.148 245.992 209.349 245.992C209.991 245.992 210.613 245.692 211.01 245.16C211.295 244.778 211.52 244.473 211.703 244.224C211.758 244.358 211.782 244.493 211.782 244.634C211.782 245.659 210.606 247.805 209.562 248.003C209.194 248.072 208.745 248.186 208.224 248.319C206.308 248.807 203.167 249.603 200.797 248.864C199.913 247.324 196.658 241.792 194.867 240.623C193.246 239.567 187.997 236.687 186.11 236.278L185.612 238.568C187.043 238.879 191.9 241.487 193.587 242.587C194.166 242.965 195.247 244.43 196.317 246.046C196.064 246.222 195.62 246.763 194.924 249.339C194.871 249.536 194.905 249.745 195.018 249.914C195.755 251.016 196.334 251.608 196.779 251.915C194.737 252.794 190.91 253.399 189.992 252.76C188.333 251.605 182.419 247.829 182.167 247.668L180.906 249.644C180.93 249.659 181.856 250.25 183.074 251.033C168.018 251.756 152.34 242.729 146.403 232.99C139.314 221.361 108.749 202.234 98.6005 196.451C93.2923 193.425 90.2405 188.666 90.0065 183.049C89.7862 177.755 92.1427 172.481 95.8703 169.924C98.0124 168.455 99.6749 166.886 100.958 165.416C102.416 166.514 106.38 169.309 110.807 170.796L111.254 169.463C107.11 168.07 103.286 165.395 101.856 164.328C102.326 163.724 102.729 163.15 103.073 162.618C104.006 163.478 106.019 165.084 109.093 166.25L109.592 164.935C106.472 163.751 104.514 162.057 103.815 161.383C104.232 160.63 104.5 160.037 104.643 159.688C107.679 157.361 113.92 152.391 115.294 149.855C118.966 147.881 125.353 142.904 125.888 141.298C126.68 138.923 129.034 134.831 130.319 135.26C132.133 135.865 133.492 140.311 133.413 145.381C133.357 148.974 134.711 154.245 135.701 158.093C136.026 159.358 136.306 160.45 136.466 161.216C137.323 165.312 140.615 167.66 145.054 167.338C145.094 167.335 145.134 167.33 145.174 167.323C146.4 167.107 149.655 166.532 150.98 162.733C152.147 159.391 151.838 150.383 151.62 147.194C151.377 143.626 149.123 136.945 148.674 135.641C148.294 134.54 148.317 131.924 148.346 128.613C148.366 126.351 148.388 123.788 148.305 120.845C148.139 114.999 143.153 101.067 141.285 96.7575C139.752 93.2181 135.526 90.35 132.441 88.2561C131.439 87.5766 130.575 86.9895 129.993 86.5108C128.031 84.8953 124.395 77.115 122.842 73.7925C122.605 73.2852 122.398 72.8432 122.229 72.4878C121.916 71.8312 121.409 71.0245 120.783 70.1224C119.301 46.9058 121.674 24.6794 122.223 20.0019C122.29 19.4399 122.329 19.1291 122.333 19.1024L120.009 18.7988C119.977 19.0377 117.054 41.8075 118.244 66.6983C117.907 66.2599 117.565 65.817 117.217 65.3672C115.257 62.8358 113.231 60.2183 112.085 58.2641C109.719 54.228 102.161 32.4413 102.084 32.2215L99.8699 32.9889C99.9108 33.1073 100.075 33.5814 100.332 34.3138C102.036 39.184 107.905 55.769 110.063 59.4492C111.285 61.5339 113.358 64.2121 115.364 66.8021C117.358 69.3787 119.421 72.0431 120.113 73.4958C120.28 73.8468 120.484 74.284 120.719 74.7853C123.338 80.3894 126.316 86.519 128.503 88.3205C129.169 88.8684 130.075 89.4833 131.124 90.1957C133.972 92.1285 137.872 94.7752 139.135 97.69C141.109 102.245 145.812 115.64 145.962 120.912C146.044 123.811 146.021 126.351 146.002 128.592C145.969 132.405 145.947 134.923 146.459 136.406C147.653 139.87 149.109 144.816 149.282 147.354C149.526 150.938 149.722 159.226 148.767 161.961C148.01 164.133 146.431 164.714 144.827 165.004C140.387 165.3 139.122 162.46 138.761 160.737C138.59 159.919 138.303 158.803 137.971 157.51C137.015 153.791 135.705 148.697 135.757 145.418C135.819 141.422 134.9 134.317 131.061 133.037C126.956 131.67 123.951 139.755 123.684 140.503C123.123 141.442 117.722 146.006 113.862 147.96C113.579 148.103 113.353 148.403 113.258 148.705C112.898 149.861 107.879 154.242 103.303 157.761C99.3827 157.507 96.7719 154.035 96.3307 152.563C95.9084 151.156 96.9853 149.256 97.5061 148.701C98.222 147.936 104.09 141.56 104.34 141.289C104.722 140.875 104.754 140.247 104.418 139.795C103.779 138.937 103.152 137.608 103.271 137.116C103.419 136.502 103.049 135.88 102.441 135.711C102.31 135.674 99.2343 134.783 98.8211 131.778C98.5699 129.949 98.2918 127.589 98.0469 125.507C97.7687 123.147 97.529 121.108 97.3733 120.2C97.256 119.517 97.2343 117.279 97.2148 115.305C97.1822 111.958 97.1461 109.866 96.9144 109.028C96.8663 108.853 96.773 108.556 96.6483 108.161C95.8465 105.621 93.4065 97.8888 94.472 93.5103C94.4926 93.4244 94.504 93.3363 94.5052 93.2478C94.5796 87.2564 90.9458 76.3799 88.6247 72.7244C83.6816 64.939 78.525 56.9098 77.1954 54.8413C76.9903 54.5223 76.8733 54.3406 76.8654 54.3281L74.8945 55.5963C74.9541 55.6893 80.9444 65.0009 86.6457 73.9807C88.7556 77.3037 92.1771 87.5493 92.1622 93.0927C91.0194 98.113 93.4813 105.913 94.4129 108.867C94.5256 109.224 94.6109 109.492 94.6549 109.652C94.8215 110.256 94.8501 113.187 94.8712 115.327C94.8941 117.688 94.9136 119.727 95.0624 120.596C95.2077 121.443 95.4561 123.55 95.7187 125.781C95.9648 127.874 96.2441 130.246 96.4987 132.097C96.9628 135.472 99.5488 137.04 100.943 137.649C101.062 138.656 101.571 139.677 101.992 140.378C100.419 142.087 96.3677 146.487 95.7954 147.098C94.9176 148.034 93.3445 150.767 94.085 153.236C94.7172 155.344 97.5754 159.084 101.923 159.944C100.948 161.772 98.747 165.109 94.5451 167.991C90.1771 170.987 87.4119 177.077 87.6649 183.147C87.9333 189.599 91.4051 195.048 97.4401 198.487C110.032 205.663 138.078 223.837 144.402 234.21C150.467 244.16 166.082 253.416 181.444 253.416C183.057 253.416 184.666 253.309 186.262 253.095C187.272 253.754 188.165 254.344 188.654 254.684C189.358 255.174 190.387 255.364 191.525 255.364C194.062 255.364 197.142 254.419 198.391 253.742C199.692 253.038 200.608 252.192 201.023 251.326C201.68 251.451 202.351 251.512 203.022 251.512C205.185 251.512 207.318 250.969 208.803 250.59C209.285 250.468 209.702 250.361 209.998 250.305C212.191 249.891 213.651 247.295 214.027 245.474C214.255 245.487 214.483 245.5 214.715 245.5C217.375 245.5 220.178 244.679 221.266 244.071C222.594 243.329 223.372 241.569 223.641 240.017C225.38 239.354 226.266 238.231 226.266 236.665C226.266 234.594 225.862 232.923 225.067 231.7C224.489 230.811 223.509 230.182 222.518 229.755ZM218.888 237.35C218.268 237.424 216.195 237.433 215.371 237.375C215.321 237.165 215.261 236.86 215.202 236.522C216.989 236.499 218.794 236.473 219.527 236.437C219.267 236.837 219.027 237.185 218.888 237.35ZM160.177 177.962C158.925 177.41 158.16 176.156 157.785 175.363C157.674 175.129 157.685 174.847 157.814 174.61L160.22 170.181C160.365 169.914 160.681 169.804 160.961 169.925L163.29 170.932C162.034 173.318 160.811 176.167 160.177 177.962ZM180.143 145.27L179.37 144.389L178.603 143.503C178.46 143.627 175.087 146.619 172.062 155.253C169.039 163.881 167.267 165.652 165.705 167.216C165.192 167.729 164.591 168.621 163.972 169.694L161.519 168.634C160.569 168.223 159.48 168.599 158.985 169.509L156.578 173.939C156.235 174.57 156.212 175.327 156.514 175.965C156.834 176.642 157.388 177.585 158.232 178.348C156.652 177.687 154.785 176.534 154.559 175.9C153.926 172.606 153.33 158.937 161.986 152.24C162.29 152.005 162.459 151.635 162.439 151.251C161.883 140.687 166.065 130.074 166.122 129.931C168.676 122.844 174.516 102.345 180.343 81.2793C181.638 86.5787 183.818 95.7222 184.34 99.3157C184.679 101.639 184.548 105.725 184.395 110.457C184.209 116.231 183.999 122.776 184.526 128.676C185.449 139.016 180.412 151.985 178.156 155.651C176.324 158.628 170.283 169.699 167.713 174.427C167.101 172.818 166.623 171.358 166.378 170.212C166.739 169.629 167.076 169.16 167.362 168.873C169.465 166.77 171.31 164.488 174.275 156.028C177.062 148.071 180.113 145.297 180.143 145.27ZM215.904 227.038C217.455 227.26 219.214 227.512 219.786 227.798C219.864 227.837 219.927 227.897 219.981 227.967C219.904 228.244 219.814 228.473 219.735 228.57C218.879 228.736 214.239 228.584 213.395 228.221C213.26 228.008 213.129 227.368 213.047 226.594C213.966 226.761 214.94 226.901 215.904 227.038ZM219.722 232.297C219.582 232.167 219.327 231.754 219.104 231.328C219.344 231.34 219.488 231.346 219.497 231.346C220.387 231.379 222.466 232.033 223.089 232.961C223.071 232.964 223.053 232.971 223.035 232.973C222.421 233.046 220.087 232.518 219.722 232.297ZM209.158 244.557C208.569 244.379 208.263 244.268 208.108 244.206C207.999 243.934 207.884 243.288 207.792 242.559C207.913 242.588 208.032 242.616 208.155 242.645C209.039 242.852 210.14 243.11 210.376 243.211C210.465 243.25 210.539 243.287 210.618 243.324C210.435 243.575 210.2 243.893 209.883 244.319C209.716 244.543 209.426 244.639 209.158 244.557ZM196.965 247.604C197.454 248.164 198.173 249.196 198.411 249.648C198.264 249.964 197.841 250.523 197.56 250.752C197.289 250.552 196.796 249.991 196.369 249.394C196.554 248.745 196.781 248.057 196.965 247.604Z" fill="#34539B"/>
    <path d="M144.076 164.136C144.395 164.136 144.707 164.099 145.005 164.016C146.956 163.474 148.665 160.957 148.735 160.396C148.748 160.292 148.764 160.162 148.393 155.714C148.355 155.25 148.089 154.837 147.683 154.61C147.276 154.383 146.786 154.373 146.369 154.585C145.256 155.15 144.377 155.543 143.829 155.723C143.263 155.908 142.214 156.072 140.876 156.185C140.043 156.255 139.411 156.964 139.438 157.8C139.565 161.588 139.72 161.951 139.795 162.125C140.101 162.84 142.188 164.136 144.076 164.136ZM140.994 157.585C142.015 157.5 143.411 157.339 144.266 157.06C145.044 156.805 146.185 156.255 146.991 155.83C147.178 158.064 147.306 159.698 147.331 160.169C147.063 160.645 145.868 162.317 144.628 162.661C143.365 163.013 141.444 161.951 141.086 161.551C141.021 161.242 140.922 160.096 140.844 157.754C140.841 157.666 140.906 157.593 140.994 157.585Z" fill="#34539B"/>
    <path d="M191.544 245.915C183.83 240.713 160.223 234.644 159.222 234.389L158.642 236.659C158.883 236.721 182.853 242.881 190.234 247.858L191.544 245.915Z" fill="#34539B"/>
    <path opacity="0.2" d="M141.375 195.24C169.196 195.24 191.75 172.686 191.75 144.865C191.75 117.043 169.196 94.4897 141.375 94.4897C113.554 94.4897 91 117.043 91 144.865C91 172.686 113.554 195.24 141.375 195.24Z" fill="#0075FF"/>
</svg>
