<svg width="273" height="274" viewBox="0 0 273 274" fill="none" xmlns="http://www.w3.org/2000/svg">
    <path d="M133 237C188.228 237 233 192.228 233 137C233 81.7715 188.228 37 133 37C77.7715 37 33 81.7715 33 137C33 192.228 77.7715 237 133 237Z" fill="#F1F5FF"/>
    <path d="M211.929 132.545C214.26 127.376 216.902 120.561 219.232 114.548C221.641 108.332 223.545 103.422 224.479 101.937C226.058 99.4292 227.534 91.5192 225.208 86.121C222.547 79.9492 220.392 66.9515 220.337 65.2299C220.205 61.0616 218.177 56.7391 216.11 52.6688C215.164 50.8057 214.479 47.9125 213.754 44.8491C212.938 41.4044 211.706 36.1982 210.366 35.6853C209.433 35.3272 208.124 35.4856 206.776 36.1178C203.665 37.5768 200.942 41.1662 199.308 45.9667C196.457 54.3357 199.434 63.2413 200.897 65.5475C202.973 64.2343 207.917 61.4629 212.958 61.2463L213.021 62.7301C208.267 62.9344 203.428 65.7045 201.557 66.8928C201.95 76.3081 201.599 81.8285 200.515 83.3305C201.317 84.0768 202.677 85.0963 204.076 85.0259C206.767 84.8811 214.532 86.215 217.781 90.3509L216.613 91.2683C213.784 87.6676 206.466 86.3884 204.154 86.5091C202.051 86.6234 200.186 85.1035 199.256 84.1832C196.643 85.2965 191.407 85.5094 190.012 84.0265C189.663 83.6558 188.39 82.2173 186.627 80.2264C183.031 76.1659 177.013 69.3691 175.834 68.2806C174.783 67.3105 172.163 61.9928 166.844 50.9315C164.081 45.1838 161.224 39.2402 160.313 37.8733C159.625 36.8416 158.425 34.6819 156.906 31.9473C153.681 26.14 148.807 17.3642 146.357 15.2258C143.175 12.4489 139.859 13.0325 138.517 14.0524C137.669 14.6963 136.31 15.9281 135.956 17.4068C137.448 18.2841 138.3 19.4813 138.716 20.2377C139.168 21.059 143.872 31.2141 143.717 35.9942C143.906 36.5598 144.407 38.0836 145.03 40.1058C146.113 39.6723 152.197 37.1577 155.669 34.0448L156.66 35.1508C152.813 38.6002 146.243 41.2274 145.463 41.5321C146.645 45.4668 148.074 50.6516 148.697 54.5732C149.672 56.2012 155.502 66.138 155.9 71.7114L153.431 71.8879C153.14 67.8136 149.303 60.6211 147.447 57.3523C144.201 59.6712 140.331 61.2446 140.158 61.3141L139.602 59.9367C139.643 59.9199 143.572 58.32 146.699 56.0585C146.551 55.8084 146.461 55.6602 146.454 55.6482C146.369 55.5083 146.312 55.3527 146.288 55.1904C146.197 54.5961 146.084 53.9641 145.955 53.3087C142.275 54.7458 138.847 57.4634 138.811 57.492L137.883 56.3322C138.04 56.2071 141.664 53.3324 145.647 51.837C144.473 46.5208 142.469 40.1602 141.656 37.6536C140.312 38.5823 138.06 40.0655 135.71 41.2897C135.653 42.7313 135.546 43.9626 135.456 44.8133C134.937 49.6787 137.306 59.7536 138.389 62.8001C139.482 65.8755 142.644 77.5225 142.778 78.0169L140.389 78.6648C140.367 78.5823 138.83 72.921 137.526 68.4191C136.356 69.1564 134.418 70.2215 132.202 70.8137L131.818 69.3789C134.084 68.7731 136.08 67.5948 137.091 66.9294C136.792 65.9203 136.519 65.0251 136.297 64.3417C135.186 64.8002 133.3 65.7018 130.857 67.3406L130.03 66.107C132.638 64.3575 134.639 63.4084 135.822 62.9282C134.963 60.2207 133.672 54.7871 133.146 50.0552C131.764 50.8726 129.46 52.1707 127.051 53.2502C127.809 57.0329 128.211 61.2348 127.469 64.7148C128.554 67.9314 134.196 85.0088 133.16 89.1507L131.15 88.6483C128.838 90.7183 123.966 94.9721 121.625 96.2024L120.934 94.8876C123.347 93.6194 128.956 88.6295 130.802 86.9617C130.665 85.2515 130.119 82.644 129.37 79.7035C126.353 81.8743 123.735 83.2864 121.583 83.893L121.18 82.4636C123.273 81.8731 125.894 80.4186 128.967 78.158C128.805 77.5534 128.637 76.9405 128.464 76.322C126.705 77.106 122.663 78.9963 120.193 80.8583L119.299 79.6725C122.013 77.6265 126.356 75.6248 128.053 74.8774C127.175 71.834 126.212 68.7646 125.351 66.1859C123.454 67.3329 119.639 69.4414 115.547 70.5574L115.156 69.1244C119.327 67.9866 123.312 65.6975 124.964 64.6788C124.969 64.6169 124.967 64.5545 124.981 64.4936C126.556 57.9141 123.143 47.1967 121.789 44.2437C121.425 43.4489 120.146 42.6859 118.68 42.3876C117.145 42.0764 115.72 42.3127 114.96 43.0068C113.386 44.4435 112.968 47.286 112.276 51.995C112.099 53.2011 111.904 54.5274 111.667 55.9861C110.515 63.0911 114.455 81.794 116.303 86.6195C117.738 90.3655 118.784 97.8718 119.221 101.414C122.323 99.4831 126.615 96.5267 130.179 94.071C133.446 91.8206 136.266 89.8768 137.528 89.1558C137.832 88.982 138.147 88.795 138.47 88.6027C141.277 86.9346 145.12 84.6512 149.491 86.652C150.874 87.2852 153.634 88.4728 156.765 89.8049C158.583 83.7532 156.887 77.149 156.868 77.079L158.663 76.604C158.745 76.9144 160.553 83.9249 158.483 90.5342C159.433 90.937 160.397 91.345 161.355 91.75L166.863 93.4818C169.8 85.1621 175.762 80.6797 176.02 80.4891L177.123 81.9832C177.064 82.0268 171.39 86.3116 168.635 94.0391L169.623 94.3496C170.452 94.6101 171.122 95.2281 171.441 96.0108C171.919 96.2148 172.276 96.3692 172.477 96.4592C172.859 96.6297 174.027 97.3579 173.057 99.567C172.236 101.436 170.227 103.985 167.36 106.114C168.345 114.028 172.697 122.36 180.329 130.902L178.945 132.139C171.35 123.639 166.889 115.284 165.646 107.27C162.797 108.997 159.305 110.21 155.406 110.129C154.318 112.913 150.082 124.353 149.734 134.516L147.878 134.453C148.222 124.429 152.09 113.561 153.468 109.983C152.135 109.809 150.763 109.484 149.358 108.967C147.976 111.524 144.072 117.957 139.175 119.175C140.612 122.74 143.142 131.864 139.095 145.595C141.539 148.423 148.683 156.77 149.407 158.546C149.614 158.952 151.087 160.086 152.163 160.914C152.576 161.232 153.013 161.569 153.458 161.92C154.769 161.9 157.717 161.566 160.502 159.245C165.219 155.314 175.54 148.448 191.653 146.635L191.86 148.48C176.229 150.239 166.248 156.873 161.69 160.672C159.478 162.515 157.2 163.281 155.466 163.588C155.935 164.003 156.393 164.433 156.828 164.877C158.253 164.428 159.573 163.707 160.757 162.72C164.508 159.594 172.663 153.944 185.134 151.224L185.53 153.038C173.445 155.674 165.566 161.129 161.946 164.147C160.786 165.113 159.511 165.858 158.145 166.382C158.937 167.408 159.546 168.492 159.82 169.623C161.138 175.046 188.125 246.505 192.63 258.422C225.157 253.029 249.385 233.282 253.571 229.691C241.833 210.337 221.63 173.65 216.461 163.885C208.925 149.651 207.781 141.742 211.929 132.545ZM135.528 85.0582L134.966 83.6832C135.013 83.6639 139.727 81.7252 142.129 79.7132L143.082 80.8518C140.502 83.0135 135.729 84.9757 135.528 85.0582ZM144.624 76.7526L144.334 75.2954C144.395 75.2837 150.357 74.0815 152.683 72.0873L153.65 73.2151C151.028 75.4625 144.884 76.701 144.624 76.7526ZM151.698 53.4122C151.843 53.2738 155.318 49.9928 162.627 47.7862L163.056 49.2084C156.119 51.3026 152.759 54.453 152.726 54.4847L151.698 53.4122ZM153.978 58.3208L153.445 56.9343C153.53 56.902 161.908 53.671 165.127 51.3053L166.007 52.5027C162.627 54.9857 154.329 58.1857 153.978 58.3208ZM158.853 71.4451L158.654 69.9735C158.733 69.9626 166.658 68.8708 171.684 66.7545L172.26 68.1234C167.051 70.3168 159.186 71.4002 158.853 71.4451Z" fill="white"/>
    <path d="M129.119 19.0762C126.007 19.7881 124.656 22.5166 124.073 24.5617C125.61 23.9038 127.249 23.7432 128.915 24.1238C134.729 25.4561 135.783 33.602 135.749 39.5831C138.014 38.3401 140.135 36.906 141.237 36.1326C141.237 36.1125 141.234 36.0927 141.235 36.0726C141.507 32.4055 137.137 22.5019 136.547 21.4303C135.808 20.0852 133.861 17.991 129.119 19.0762Z" fill="white"/>
    <path d="M132.994 44.55C133.65 38.4045 133.412 27.6947 128.361 26.5373C126.673 26.1517 125.064 26.5424 123.582 27.7043C120.766 29.9121 118.764 34.6985 118.439 39.8472C118.683 39.8768 118.927 39.9111 119.174 39.9614C121.47 40.428 123.335 41.6737 124.04 43.2116C124.497 44.2092 125.777 47.6179 126.731 51.764C129.34 50.5708 131.842 49.1101 132.995 48.4132C132.891 46.9775 132.876 45.6519 132.994 44.55Z" fill="white"/>
    <path d="M98.038 206.758C99.206 206.101 100.33 205.471 101.451 204.903C101.183 202.394 100.587 196.23 100.353 189.057C100.226 185.156 97.8262 178.431 93.4132 169.608L95.0741 168.777C99.6705 177.968 102.071 184.771 102.209 188.997C102.423 195.565 102.943 201.273 103.23 204.062C103.689 203.864 104.152 203.681 104.619 203.513C104.371 201.238 103.731 194.846 103.487 187.354C103.192 178.297 91.066 157.752 90.9436 157.545L92.5404 156.598C93.0505 157.458 105.032 177.762 105.343 187.294C105.574 194.373 106.16 200.458 106.427 202.959C107.797 202.618 109.238 202.435 110.814 202.473C115.962 202.596 143.971 194.567 159.567 176.677C158.389 173.342 157.618 171.046 157.414 170.207C156.779 167.594 153.238 164.867 150.652 162.876C148.589 161.288 147.495 160.415 147.114 159.481C146.733 158.551 142.521 153.386 138.207 148.358C136.64 152.902 134.369 157.898 131.131 163.327L129.005 162.059C145.14 135.003 136.342 118.907 136.251 118.748C136.027 118.355 136.035 117.87 136.271 117.485C136.508 117.1 136.928 116.878 137.386 116.896C141.758 117.111 146.227 109.826 147.626 106.925C148.35 104.99 147.964 100.999 147.752 99.6166L150.199 99.2407C150.277 99.7451 150.856 103.734 150.263 106.656C156.299 108.851 161.306 107.029 164.505 105.034C168.031 102.836 170.064 100.069 170.722 98.7241C170.075 99.17 169.102 99.4208 167.77 99.4803C167.683 99.4842 167.596 99.486 167.509 99.486C163.196 99.486 158.803 94.7761 156.999 92.5946C153.365 91.0521 150.04 89.6264 148.461 88.9031C145.268 87.4411 142.329 89.189 139.735 90.7311C139.399 90.9309 139.072 91.1249 138.756 91.3053C137.585 91.9746 134.804 93.8908 131.583 96.1099C127.085 99.2092 121.988 102.722 118.83 104.539C114.288 107.152 112.145 111.345 110.253 115.043C109.635 116.252 109.052 117.393 108.426 118.384C107.449 119.931 105.401 122.403 103.029 125.265C99.4515 129.583 94.9986 134.956 93.8046 137.822C91.6696 142.946 83.9515 152.74 82.3435 153.889C80.6394 155.106 53.3139 169.626 45.2903 172.836C41.0643 174.527 28.4569 179.084 18.1875 182.765C19.6754 212.836 38.0563 236.786 41.4351 240.949C60.0868 229.416 89.9765 211.006 94.1427 208.877C95.5319 208.167 96.806 207.45 98.038 206.758Z" fill="white"/>
    <path d="M99.2509 208.916C103.29 206.645 106.475 204.847 110.757 204.949C110.801 204.95 110.846 204.95 110.893 204.95C116.687 204.949 144.135 197.25 160.514 179.34C168.663 202.093 189.866 258.117 190.948 260.974L193.263 260.098C193.238 260.031 193.016 259.445 192.629 258.423C188.124 246.507 161.137 175.047 159.819 169.624C159.545 168.493 158.936 167.409 158.145 166.383C159.51 165.859 160.785 165.115 161.945 164.148C165.565 161.13 173.444 155.675 185.529 153.039L185.133 151.225C172.662 153.945 164.507 159.595 160.756 162.721C159.572 163.708 158.252 164.429 156.827 164.879C156.392 164.434 155.934 164.004 155.465 163.589C157.199 163.282 159.477 162.516 161.689 160.673C166.247 156.875 176.228 150.24 191.859 148.482L191.652 146.636C175.539 148.449 165.218 155.315 160.501 159.247C157.716 161.567 154.768 161.901 153.457 161.922C153.012 161.571 152.575 161.234 152.162 160.915C151.086 160.087 149.613 158.953 149.406 158.548C148.682 156.771 141.538 148.424 139.095 145.596C143.141 131.866 140.611 122.741 139.174 119.177C144.071 117.959 147.975 111.525 149.357 108.968C150.762 109.485 152.134 109.81 153.467 109.984C152.089 113.562 148.221 124.43 147.877 134.454L149.733 134.517C150.081 124.354 154.317 112.914 155.405 110.13C159.304 110.211 162.796 108.998 165.645 107.271C166.888 115.285 171.349 123.64 178.944 132.14L180.328 130.903C172.696 122.362 168.344 114.029 167.359 106.115C170.226 103.987 172.236 101.437 173.056 99.5682C174.026 97.3592 172.858 96.6309 172.477 96.4604C172.275 96.3704 171.918 96.216 171.44 96.012C171.121 95.2293 170.451 94.6113 169.622 94.3509L168.634 94.0403C171.389 86.3127 177.063 82.028 177.122 81.9844L176.019 80.4903C175.761 80.681 169.8 85.1633 166.862 93.483L161.354 91.7513C160.396 91.3462 159.432 90.9382 158.482 90.5354C160.552 83.9261 158.744 76.9157 158.662 76.6052L156.867 77.0803C156.886 77.1503 158.582 83.7544 156.764 89.8062C153.633 88.474 150.873 87.2864 149.49 86.6533C145.119 84.6524 141.276 86.9358 138.469 88.604C138.146 88.7961 137.831 88.9832 137.527 89.157C136.265 89.878 133.445 91.8218 130.178 94.0722C126.614 96.528 122.322 99.4844 119.22 101.415C118.783 97.873 117.737 90.3667 116.302 86.6207C114.454 81.7952 110.514 63.0923 111.666 55.9874C111.903 54.5287 112.098 53.2023 112.275 51.9963C112.967 47.2871 113.385 44.4447 114.959 43.0081C115.719 42.3139 117.144 42.0776 118.679 42.3889C120.145 42.6871 121.424 43.4502 121.788 44.2449C123.142 47.198 126.555 57.9154 124.98 64.4948C124.966 64.5557 124.968 64.6181 124.963 64.68C123.311 65.6987 119.326 67.9878 115.155 69.1256L115.546 70.5586C119.638 69.4426 123.453 67.3342 125.35 66.1871C126.211 68.7659 127.174 71.8353 128.052 74.8787C126.355 75.6261 122.012 77.6277 119.298 79.6738L120.192 80.8596C122.662 78.9975 126.704 77.1073 128.463 76.3232C128.636 76.9417 128.804 77.5546 128.966 78.1592C125.893 80.4198 123.272 81.8744 121.179 82.4649L121.582 83.8943C123.734 83.2876 126.352 81.8756 129.369 79.7048C130.118 82.6453 130.664 85.2527 130.801 86.9629C128.955 88.6307 123.346 93.6206 120.933 94.8888L121.624 96.2037C123.965 94.9732 128.837 90.7196 131.149 88.6496L133.159 89.1519C134.195 85.01 128.553 67.9327 127.468 64.7161C128.21 61.2361 127.808 57.0342 127.05 53.2515C129.459 52.1719 131.763 50.8738 133.145 50.0565C133.671 54.7883 134.962 60.2219 135.821 62.9295C134.638 63.4097 132.637 64.3588 130.029 66.1083L130.856 67.3419C133.299 65.7031 135.185 64.8014 136.296 64.343C136.518 65.0263 136.791 65.9215 137.09 66.9306C136.079 67.5961 134.083 68.7744 131.817 69.3801L132.201 70.815C134.417 70.2227 136.355 69.1576 137.525 68.4203C138.829 72.9223 140.366 78.5836 140.388 78.666L142.777 78.0181C142.643 77.5237 139.481 65.8767 138.388 62.8013C137.305 59.7548 134.936 49.6799 135.455 44.8146C135.545 43.9638 135.652 42.7326 135.709 41.2909C138.059 40.0668 140.311 38.5836 141.655 37.6548C142.468 40.1613 144.472 46.5221 145.646 51.8383C141.663 53.3336 138.039 56.2083 137.882 56.3334L138.81 57.4932C138.846 57.4646 142.274 54.747 145.954 53.3099C146.083 53.9653 146.196 54.5973 146.287 55.1917C146.311 55.3539 146.368 55.5096 146.453 55.6494C146.46 55.6614 146.55 55.8097 146.698 56.0597C143.571 58.3212 139.642 59.9211 139.601 59.9379L140.157 61.3153C140.33 61.2458 144.2 59.6725 147.446 57.3535C149.302 60.6224 153.139 67.8148 153.43 71.8891L155.899 71.7126C155.501 66.1392 149.671 56.2024 148.696 54.5745C148.073 50.6528 146.644 45.468 145.462 41.5334C146.242 41.2286 152.812 38.6014 156.659 35.152L155.668 34.046C152.196 37.1589 146.112 39.6736 145.029 40.1071C144.406 38.0848 143.905 36.561 143.716 35.9955C143.871 31.2154 139.167 21.0604 138.715 20.239C138.299 19.4825 137.448 18.2853 135.955 17.408C136.309 15.9294 137.668 14.6976 138.516 14.0536C139.858 13.0337 143.174 12.4502 146.356 15.2271C148.806 17.3654 153.68 26.1412 156.905 31.9485C158.424 34.6831 159.624 36.8429 160.312 37.8746C161.223 39.2414 164.08 45.185 166.843 50.9328C172.162 61.9941 174.782 67.3118 175.833 68.2818C177.012 69.3704 183.03 76.167 186.626 80.2277C188.389 82.2186 189.662 83.657 190.011 84.0278C191.406 85.5106 196.642 85.2977 199.255 84.1844C200.185 85.1048 202.05 86.6246 204.153 86.5103C206.465 86.3897 213.783 87.6689 216.612 91.2696L217.78 90.3521C214.531 86.2163 206.766 84.8823 204.075 85.0271C202.676 85.0975 201.316 84.0781 200.514 83.3318C201.598 81.8298 201.949 76.3094 201.556 66.8941C203.427 65.7058 208.266 62.9356 213.02 62.7313L212.957 61.2475C207.916 61.4641 202.972 64.2355 200.896 65.5487C199.433 63.2426 196.456 54.3369 199.307 45.9679C200.941 41.1675 203.664 37.578 206.775 36.119C208.123 35.4868 209.432 35.3285 210.365 35.6866C211.705 36.1994 212.938 41.4056 213.753 44.8504C214.478 47.9137 215.163 50.8069 216.109 52.67C218.176 56.7403 220.204 61.0629 220.336 65.2311C220.391 66.9527 222.546 79.9505 225.207 86.1223C227.533 91.5204 226.057 99.4304 224.478 101.939C223.544 103.423 221.64 108.333 219.231 114.55C216.901 120.562 214.259 127.377 211.928 132.546C207.78 141.744 208.924 149.652 216.46 163.886C221.629 173.651 241.832 210.338 253.57 229.693C254 230.402 254.419 231.09 254.826 231.75L256.934 230.453C245.47 211.812 223.997 172.832 218.647 162.728C211.447 149.127 210.362 142.04 214.185 133.564C216.544 128.334 219.198 121.486 221.54 115.444C223.713 109.837 225.766 104.54 226.573 103.257C228.379 100.39 230.281 91.6414 227.48 85.1427C224.983 79.3498 222.861 66.7407 222.811 65.1527C222.662 60.4762 220.509 55.8683 218.317 51.5496C217.504 49.9495 216.822 47.0674 216.162 44.2803C214.901 38.955 213.812 34.3559 211.251 33.3749C209.67 32.77 207.707 32.9482 205.724 33.8778C203.539 34.9019 199.497 37.7308 196.963 45.1696C193.864 54.2691 196.923 64.383 199.096 67.2938C199.337 73.4311 199.218 80.5215 198.602 81.7702C197.465 82.6345 192.619 82.8907 191.814 82.3313C191.491 81.9877 190.162 80.4867 188.479 78.5865C183.369 72.8158 178.686 67.546 177.522 66.4729C176.599 65.5113 172.25 56.4654 169.075 49.86C166.018 43.5026 163.379 38.0123 162.372 36.5014C161.739 35.5531 160.502 33.3256 159.07 30.7464C155.563 24.4323 150.76 15.7849 147.983 13.3619C143.663 9.59168 139.058 10.5312 137.017 12.0827C135.249 13.4269 134.107 14.936 133.639 16.5091C132.28 16.2152 130.609 16.197 128.565 16.6649C122.313 18.0953 121.327 25.041 121.187 26.5276C118.228 29.4149 116.249 34.4546 115.956 39.9158C114.909 40.118 113.986 40.5433 113.289 41.1796C111.064 43.2113 110.598 46.3825 109.826 51.6362C109.65 52.8314 109.457 54.1456 109.223 55.5907C107.9 63.7443 112.248 82.9591 113.99 87.506C115.483 91.4044 116.586 100.179 116.894 102.826C112.198 105.817 109.904 110.288 108.048 113.917C107.457 115.074 106.898 116.167 106.332 117.063C105.44 118.475 103.342 121.007 101.122 123.687C97.2469 128.363 92.8551 133.663 91.5184 136.871C89.5212 141.665 82.1165 151.009 80.9038 151.875C79.6391 152.773 52.7391 167.191 44.3701 170.538C40.9322 171.914 31.2084 175.473 16.25 180.83L17.0846 183.161C17.4485 183.03 17.8166 182.899 18.187 182.766C28.4564 179.085 41.0637 174.527 45.2899 172.837C53.3135 169.627 80.639 155.106 82.343 153.889C83.951 152.741 91.6691 142.947 93.8042 137.823C94.9981 134.957 99.451 129.584 103.029 125.266C105.4 122.404 107.448 119.932 108.425 118.385C109.051 117.394 109.635 116.253 110.253 115.044C112.144 111.345 114.288 107.153 118.83 104.539C121.987 102.722 127.085 99.21 131.583 96.1106C134.803 93.8916 137.585 91.9754 138.756 91.306C139.072 91.1256 139.398 90.9316 139.735 90.7319C142.329 89.1898 145.268 87.4419 148.46 88.9039C150.04 89.6271 153.364 91.0528 156.999 92.5953C158.803 94.7769 163.196 99.4868 167.509 99.4868C167.596 99.4868 167.683 99.485 167.769 99.481C169.102 99.4216 170.074 99.1708 170.722 98.7248C170.063 100.069 168.031 102.836 164.505 105.035C161.305 107.03 156.299 108.852 150.262 106.656C150.855 103.735 150.276 99.7458 150.199 99.2414L147.752 99.6173C147.964 101 148.35 104.991 147.626 106.925C146.227 109.827 141.757 117.112 137.386 116.897C136.927 116.879 136.507 117.101 136.271 117.486C136.034 117.871 136.027 118.356 136.25 118.749C136.341 118.908 145.14 135.004 129.004 162.059L131.131 163.327C134.368 157.899 136.639 152.903 138.207 148.359C142.52 153.387 146.733 158.552 147.113 159.481C147.494 160.416 148.589 161.288 150.652 162.877C153.237 164.867 156.779 167.594 157.414 170.208C157.618 171.047 158.389 173.343 159.566 176.677C143.97 194.568 115.962 202.597 110.813 202.474C109.238 202.435 107.796 202.618 106.427 202.96C106.16 200.458 105.573 194.374 105.342 187.294C105.032 177.763 93.05 157.459 92.5399 156.599L90.9431 157.546C91.0655 157.752 103.191 178.298 103.487 187.355C103.731 194.846 104.371 201.239 104.619 203.513C104.151 203.681 103.688 203.864 103.23 204.063C102.942 201.274 102.422 195.566 102.208 188.998C102.07 184.771 99.67 177.968 95.0736 168.778L93.4127 169.608C97.8257 178.432 100.225 185.157 100.353 189.058C100.586 196.231 101.183 202.395 101.451 204.904C100.33 205.472 99.2055 206.102 98.0376 206.758C96.8055 207.451 95.5314 208.167 94.1423 208.878C89.976 211.007 60.0864 229.417 41.4346 240.95C40.8576 241.307 40.2905 241.657 39.7361 242L41.0385 244.106C59.4819 232.697 91.052 213.237 95.2689 211.082C96.7019 210.349 97.9977 209.621 99.2509 208.916ZM126.73 51.7656C125.777 47.6194 124.496 44.2107 124.039 43.2131C123.334 41.6752 121.469 40.4295 119.173 39.9629C118.926 39.9126 118.682 39.8783 118.439 39.8487C118.763 34.7 120.765 29.9136 123.581 27.7058C125.063 26.5439 126.672 26.1531 128.361 26.5388C133.411 27.6962 133.649 38.406 132.993 44.5515C132.876 45.6534 132.89 46.9791 132.994 48.4147C131.842 49.1116 129.339 50.5723 126.73 51.7656ZM141.234 36.0746C141.233 36.0946 141.236 36.1145 141.236 36.1345C140.134 36.9079 138.013 38.3421 135.747 39.5851C135.782 33.6039 134.727 25.4581 128.914 24.1258C127.248 23.7452 125.609 23.9057 124.072 24.5636C124.655 22.5185 126.006 19.7901 129.118 19.0781C133.859 17.993 135.806 20.0872 136.546 21.4322C137.136 22.5038 141.506 32.4074 141.234 36.0746ZM158.92 92.5423L169.177 95.7676C169.602 95.9012 169.942 96.2182 170.087 96.6162C170.25 97.0662 170.13 97.2466 170.09 97.3059C169.969 97.4872 169.494 97.9172 167.703 97.9973C164.478 98.1329 160.91 94.768 158.92 92.5423Z" fill="#34539B"/>
    <path d="M170.09 97.306C170.13 97.2468 170.25 97.0664 170.087 96.6164C169.942 96.2184 169.603 95.9014 169.177 95.7678L158.92 92.5425C160.91 94.7682 164.479 98.1331 167.703 97.9974C169.494 97.9174 169.969 97.4873 170.09 97.306Z" fill="white"/>
    <path d="M134.966 83.6838L135.528 85.0588C135.729 84.9763 140.502 83.0141 143.082 80.8525L142.129 79.7139C139.727 81.7259 135.013 83.6645 134.966 83.6838Z" fill="#34539B"/>
    <path d="M144.333 75.297L144.622 76.7542C144.882 76.7025 151.027 75.4641 153.648 73.2167L152.682 72.0889C150.355 74.0831 144.393 75.2852 144.333 75.297Z" fill="#34539B"/>
    <path d="M162.627 47.7886C155.318 49.9952 151.843 53.2762 151.698 53.4145L152.726 54.487C152.759 54.4553 156.119 51.3049 163.056 49.2107L162.627 47.7886Z" fill="#34539B"/>
    <path d="M165.127 51.3066C161.908 53.6723 153.53 56.9033 153.445 56.9356L153.978 58.3221C154.329 58.187 162.627 54.987 166.007 52.5039L165.127 51.3066Z" fill="#34539B"/>
    <path d="M158.653 69.9749L158.853 71.4466C159.185 71.4015 167.05 70.3182 172.26 68.1248L171.683 66.7559C166.658 68.8721 158.733 69.964 158.653 69.9749Z" fill="#34539B"/>
    <path opacity="0.2" d="M145.258 139.777C173.079 139.777 195.633 117.224 195.633 89.4024C195.633 61.581 173.079 39.0273 145.258 39.0273C117.436 39.0273 94.8828 61.581 94.8828 89.4024C94.8828 117.224 117.436 139.777 145.258 139.777Z" fill="#0075FF"/>
</svg>
