<svg width="272" height="273" viewBox="0 0 272 273" fill="none" xmlns="http://www.w3.org/2000/svg">
    <path d="M136 236C191.228 236 236 191.228 236 136C236 80.7715 191.228 36 136 36C80.7715 36 36 80.7715 36 136C36 191.228 80.7715 236 136 236Z" fill="#F1F5FF"/>
    <path d="M160.813 234.858C160.48 230.667 163.689 221.75 166.519 213.882C167.75 210.462 168.913 207.23 169.518 205.071C171.799 196.924 183.117 152.351 182.945 147.098C182.807 142.899 185.463 136.652 187.401 132.091C188.162 130.302 188.818 128.757 189.072 127.868C189.851 125.144 188.288 120.091 186.929 117.374C186.387 116.29 185.882 114.119 185.297 111.604C184.731 109.169 183.799 105.162 183.102 104.312C183.095 104.312 183.089 104.312 183.082 104.312C181.585 104.312 177.556 103.231 173.25 92.9616C170.332 86.0033 162.638 80.4462 160.374 78.9229C159.207 79.7409 156.484 80.9942 150.711 81.0619C147.918 81.0947 144.745 80.9896 141.676 80.8871C136.765 80.7236 131.2 80.539 129.94 81.1429C129.007 81.5909 124.695 85.0877 120.525 88.4693C114.83 93.0867 108.942 97.861 106.731 99.0194C104.966 99.9441 101.963 102.477 99.0594 104.926C96.2858 107.266 93.6395 109.499 91.7734 110.611C97.884 121.572 104.622 128.391 111.032 134.084C112.544 133.641 116.857 129.545 118.996 127.515C121.501 125.136 122.963 123.769 123.868 123.336C124.713 122.932 127.4 120.703 129.77 118.737C133.866 115.34 136.651 113.077 137.984 112.596L138.696 114.572C137.609 114.964 133.853 118.079 131.11 120.353C127.839 123.066 125.781 124.749 124.774 125.23C124.124 125.541 122.168 127.398 120.441 129.037C115.735 133.505 112.501 136.418 110.559 136.21C110.507 136.204 110.46 136.183 110.41 136.17C108.567 144.269 100.376 179.574 95.5793 189.019C95.7012 190.336 95.7965 191.587 95.8819 192.711C96.0267 194.618 96.1518 196.264 96.3322 197.267C96.794 199.831 97.9586 201.639 100.226 203.31C101.663 204.369 102.273 207.235 102.602 209.976C105.998 211.785 118.906 214.876 125.898 216.55C128.424 217.155 130.092 217.555 130.634 217.727C133.234 218.554 143.762 230.53 145.449 233.733C146.414 235.567 154.662 237.975 159.028 236.714C160.916 236.167 160.841 235.216 160.813 234.858Z" fill="white"/>
    <path d="M156.141 239.141C151.282 239.141 144.965 237.325 143.589 234.711C141.714 231.147 131.657 220.322 129.993 219.727C129.527 219.578 127.709 219.143 125.408 218.592C116.572 216.476 107.013 214.118 102.764 212.36C102.651 213.185 102.237 215.223 100.866 220.644C100.81 220.866 100.682 221.063 100.504 221.206C99.8258 221.749 98.8973 221.616 98.0794 221.498C97.923 221.475 97.7106 221.445 97.5609 221.432C96.586 222.206 94.163 223.042 93.077 222.904C93.0716 222.904 93.066 222.904 93.0601 222.904C92.7086 222.904 91.6661 223.409 90.9701 223.752C90.3525 225.555 87.9741 233.048 87.7539 241.941C94.0036 243.62 126.083 251.63 162.215 249.669C161.201 245.8 159.712 240.665 159.177 238.833C158.291 239.038 157.259 239.141 156.141 239.141Z" fill="white"/>
    <path d="M218.248 33.1252C213.207 27.2925 205.589 18.48 184.348 21.9292C166.726 24.792 169.432 48.7407 170.886 61.6067C171.149 63.9354 171.377 65.9457 171.425 67.3728C171.66 74.3314 167.453 78.1277 165.015 79.7351C168.408 82.472 172.975 86.8753 175.186 92.1503C177.925 98.6813 180.542 101.255 182.131 101.981C182.824 100.138 184.775 98.0216 186.761 95.9845C187.193 95.5406 187.681 95.0403 187.818 94.8572C188.093 94.2719 188.764 93.9704 189.753 93.525C190.342 93.2605 191.905 92.5572 192.021 92.139C192.232 89.9753 194.764 89.0235 195.052 88.922C195.218 88.8631 195.396 88.8471 195.57 88.8764C195.875 88.9261 203.042 90.1025 204.725 90.5233C205.924 90.8232 206.821 90.8734 209.177 89.0512C211.062 87.5929 210.737 85.4938 210.722 85.4056C210.675 85.1202 210.746 84.8233 210.921 84.5927C211.097 84.3625 211.358 84.2103 211.646 84.1801C212.184 84.1186 214.167 83.0473 214.681 82.5583C214.678 82.243 214.486 81.5126 214.243 80.9175C214.129 80.6371 214.141 80.3208 214.277 80.0502C214.412 79.7795 214.658 79.5807 214.951 79.5043C215.367 79.3961 216.013 78.5094 216.101 78.0588C215.452 77.1161 215.715 75.3646 215.944 74.361C216.023 74.0145 216.272 73.731 216.606 73.6085C216.939 73.486 217.313 73.5409 217.597 73.7546C217.966 74.0314 218.456 74.1083 219.055 73.9817C219.966 73.7904 220.731 73.2153 220.952 72.9114C221.055 72.1527 220.256 69.1761 219.723 67.1914C219.385 65.9309 219.036 64.6279 218.787 63.5182C218.146 60.6615 219.939 56.7146 221.126 54.1029C221.499 53.2802 221.923 52.3479 221.973 52.0485C222.29 50.1437 222.969 38.5853 218.34 33.2313L218.248 33.1252ZM188.222 52.113C188.393 52.642 189.139 53.7907 189.797 54.8036C191.243 57.0303 192.125 58.4491 192.052 59.5179C192.036 59.749 192.341 60.3257 192.933 60.765C193.411 61.1187 193.907 61.2617 194.227 61.1397C194.867 60.8947 194.811 59.5523 194.762 59.2334L196.838 58.9197C197.022 60.1376 196.837 62.3889 194.976 63.1009C194.657 63.2229 194.319 63.2829 193.973 63.2829C193.219 63.2829 192.423 62.9994 191.684 62.4525C190.563 61.6221 189.885 60.4139 189.957 59.3734C189.926 58.8567 188.743 57.0355 188.036 55.9473C187.202 54.6622 186.481 53.5524 186.224 52.759C185.858 51.6267 184.855 46.7232 186.64 43.4191C187.389 42.0346 188.516 41.1279 189.989 40.7249C194.562 39.4742 197.39 43.0506 198.246 45.1168L196.308 45.9236C196.234 45.7504 194.461 41.6804 190.544 42.7497C189.632 42.9993 188.959 43.5447 188.488 44.4176C187.188 46.8216 187.848 50.9576 188.222 52.113Z" fill="white"/>
    <path d="M98.9796 205C96.2772 203.008 94.8233 200.738 94.2651 197.639C94.0654 196.53 93.9368 194.834 93.7876 192.87C93.5121 189.244 93.135 184.278 92.0681 180.129C90.3589 173.483 89.7071 160.127 89.823 157.982C89.9529 155.581 89.8673 143.314 89.7141 142.356C89.4832 141.046 90.2592 139.343 90.4171 139.015C90.5353 138.77 90.7441 138.58 90.9994 138.486C94.1375 137.327 101.967 132.876 104.861 131.207C100.016 126.438 95.1154 120.657 90.5301 112.672C87.4691 114.895 75.3487 123.839 72.5672 128.114C71.3975 129.912 70.4381 131.138 69.7377 132.033C68.3761 133.771 68.1254 134.138 68.2999 135.39C68.4083 136.167 68.7225 137.501 69.0862 139.045C69.9263 142.612 71.0768 147.497 71.0768 151.214C71.0768 156.397 74.7764 170.83 76.4088 174.794C76.6517 175.385 76.9416 176.077 77.2615 176.842C79.2744 181.65 82.3161 188.917 82.8102 192.321C83.3252 195.87 83.7413 202.324 82.7774 205.561C82.3317 207.057 83.8385 211.49 84.7386 214.139C85.6049 216.687 85.9834 217.844 85.8855 218.562C85.7851 219.3 85.5436 219.847 85.3499 220.288C85.1461 220.75 85.0792 220.929 85.1261 221.117C85.3462 221.665 87.3249 223.027 88.1791 222.72C88.6876 222.537 89.3157 222.227 89.9232 221.927C91.2541 221.271 92.4069 220.706 93.3381 220.821C93.8542 220.882 95.75 220.193 96.2204 219.828C96.7445 219.185 97.6113 219.309 98.3791 219.42C98.5408 219.443 98.7848 219.478 98.9904 219.495C99.8224 216.176 100.646 212.659 100.705 212.006C100.692 211.9 100.677 211.741 100.657 211.537C100.187 206.578 99.4045 205.313 98.9796 205Z" fill="white"/>
    <path d="M219.836 31.7521C214.814 25.9424 206.409 16.215 184.01 19.8575C175.483 21.2426 170.246 27.1373 168.446 37.3778C166.978 45.7294 168.074 55.4261 168.799 61.8426C169.057 64.1268 169.28 66.0997 169.325 67.4437C169.553 74.1814 165.052 77.3725 163.251 78.3758C161.899 77.3799 160.966 76.7977 160.841 76.721C160.382 76.4381 159.805 76.5206 159.478 76.9507C159.461 76.9702 157.701 78.8811 150.687 78.9631C147.939 78.9959 144.791 78.8903 141.746 78.7893C134.931 78.5633 130.671 78.4633 129.031 79.2512C127.931 79.7792 124.58 82.4784 119.202 86.8391C113.849 91.1796 107.782 96.099 105.757 97.1606C103.788 98.1914 100.833 100.684 97.7054 103.322C94.6344 105.913 91.4589 108.592 89.944 109.198C89.6657 109.309 89.4483 109.534 89.3466 109.816C89.2446 110.098 89.2682 110.41 89.4111 110.673C89.4398 110.726 89.4691 110.775 89.4977 110.828C86.709 112.841 73.8897 122.233 70.808 126.97C69.6883 128.691 68.7992 129.827 68.0849 130.739C66.6876 132.524 65.9177 133.507 66.2208 135.681C66.3428 136.555 66.6519 137.867 67.043 139.528C67.8596 142.995 68.9778 147.742 68.9778 151.215C68.9778 156.716 72.742 171.403 74.4679 175.595C74.7121 176.188 75.0035 176.884 75.3252 177.653C77.1774 182.078 80.277 189.483 80.7327 192.624C81.3217 196.681 81.5334 202.385 80.7655 204.963C80.176 206.942 81.2655 210.444 82.7513 214.816C83.219 216.191 83.8008 217.903 83.8059 218.279C83.7449 218.725 83.5914 219.073 83.4289 219.442C83.1775 220.013 82.8643 220.724 83.0896 221.627C83.3335 222.602 84.5358 223.621 85.6189 224.199C86.4324 224.633 87.2243 224.855 87.9299 224.855C88.099 224.855 88.2629 224.841 88.4211 224.816C87.4172 228.139 85.7292 234.849 85.6407 242.635L87.7403 242.658C87.743 242.418 87.7491 242.18 87.7549 241.942C87.9752 233.049 90.3536 225.556 90.9711 223.753C91.6671 223.41 92.7096 222.905 93.0612 222.905C93.0671 222.905 93.0727 222.905 93.0781 222.905C94.164 223.043 96.587 222.207 97.562 221.434C97.7117 221.446 97.9241 221.477 98.0804 221.499C98.8983 221.617 99.8268 221.75 100.505 221.208C100.683 221.064 100.811 220.867 100.867 220.645C102.238 215.224 102.652 213.186 102.765 212.361C107.014 214.119 116.573 216.477 125.409 218.593C127.71 219.144 129.528 219.579 129.995 219.728C131.658 220.323 141.715 231.148 143.59 234.712C144.966 237.326 151.283 239.142 156.142 239.142C157.261 239.142 158.292 239.039 159.178 238.834C159.713 240.666 161.202 245.801 162.216 249.671C162.375 250.278 162.523 250.856 162.653 251.384L164.692 250.88C163.696 246.847 161.706 239.998 161.143 238.074C162.789 237.065 162.977 235.593 162.905 234.693C162.608 230.953 165.872 221.883 168.495 214.594C169.739 211.137 170.914 207.87 171.539 205.638C173.016 200.362 185.242 153.095 185.043 147.03C184.921 143.294 187.471 137.294 189.333 132.913C190.153 130.983 190.801 129.46 191.09 128.446C192.083 124.971 190.269 119.36 188.807 116.436C188.375 115.574 187.85 113.314 187.342 111.13C186.218 106.297 185.476 103.34 184.188 102.473C184.896 100.908 187.108 98.6347 188.263 97.4496C189.078 96.6136 189.448 96.2276 189.634 95.9139C189.826 95.7945 190.275 95.5925 190.614 95.4403C192.101 94.7708 193.952 93.9384 194.108 92.3514C194.165 91.7696 194.977 91.2442 195.521 90.9966C196.904 91.2252 202.798 92.2063 204.214 92.5605C206.393 93.1049 207.97 92.6389 210.461 90.7121C212.448 89.1749 212.819 87.1614 212.846 85.9901C214.173 85.4786 216.064 84.3821 216.532 83.5918C216.925 82.9295 216.787 81.93 216.505 81.0109C217.271 80.4209 217.873 79.489 218.104 78.6714C218.371 77.7257 218.074 77.1516 217.831 76.8636C217.787 76.7175 217.781 76.4263 217.806 76.0762C218.33 76.1741 218.895 76.1603 219.486 76.0367C220.858 75.7482 222.289 74.824 222.815 73.8869C223.359 72.9213 222.955 71.1348 221.75 66.6471C221.417 65.4077 221.073 64.1262 220.834 63.059C220.348 60.8892 221.966 57.3283 223.036 54.9714C223.635 53.653 223.952 52.9395 224.043 52.3936C224.405 50.2182 225.149 37.8976 219.928 31.8588L219.836 31.7521ZM221.972 52.0485C221.922 52.3479 221.498 53.2803 221.125 54.103C219.938 56.7147 218.145 60.6616 218.786 63.5183C219.034 64.628 219.384 65.931 219.722 67.1914C220.255 69.1762 221.054 72.1528 220.951 72.9114C220.73 73.2154 219.965 73.7905 219.054 73.9817C218.455 74.1083 217.965 74.0315 217.596 73.7547C217.312 73.5409 216.938 73.4861 216.605 73.6086C216.271 73.7311 216.022 74.0145 215.943 74.3611C215.714 75.3647 215.451 77.1162 216.1 78.0589C216.012 78.5094 215.366 79.3963 214.95 79.5044C214.657 79.5807 214.411 79.7796 214.276 80.0503C214.14 80.3209 214.128 80.6372 214.242 80.9175C214.485 81.5127 214.677 82.2431 214.68 82.5584C214.166 83.0473 212.183 84.1187 211.645 84.1802C211.357 84.2104 211.096 84.3627 210.92 84.5928C210.745 84.8235 210.674 85.1202 210.721 85.4057C210.736 85.4939 211.061 87.593 209.176 89.0513C206.82 90.8735 205.923 90.8233 204.724 90.5234C203.041 90.1026 195.874 88.9262 195.57 88.8765C195.396 88.8472 195.217 88.8631 195.051 88.9221C194.763 89.0236 192.231 89.9754 192.02 92.1391C191.904 92.5574 190.341 93.2606 189.752 93.5251C188.763 93.9705 188.092 94.272 187.817 94.8573C187.68 95.0403 187.192 95.5406 186.76 95.9845C184.774 98.0217 182.823 100.138 182.13 101.981C180.541 101.255 177.924 98.6814 175.185 92.1504C172.974 86.8754 168.407 82.4721 165.014 79.7352C167.452 78.1278 171.659 74.3315 171.424 67.3729C171.376 65.9458 171.148 63.9355 170.885 61.6068C169.431 48.7408 166.725 24.7921 184.347 21.9293C205.588 18.4801 213.206 27.2926 218.247 33.1253L218.339 33.2314C222.968 38.5854 222.289 50.1438 221.972 52.0485ZM98.9909 219.496C98.7854 219.479 98.5414 219.444 98.3796 219.421C97.6118 219.31 96.745 219.186 96.2209 219.829C95.7506 220.194 93.8548 220.882 93.3386 220.822C92.4075 220.707 91.2547 221.271 89.9237 221.928C89.3163 222.227 88.6881 222.538 88.1796 222.721C87.3254 223.028 85.3467 221.666 85.1266 221.118C85.0797 220.93 85.1466 220.751 85.3504 220.288C85.5441 219.848 85.7856 219.301 85.886 218.562C85.9839 217.845 85.6054 216.688 84.7391 214.14C83.839 211.491 82.3322 207.057 82.7779 205.562C83.7418 202.325 83.3257 195.871 82.8107 192.322C82.3166 188.918 79.2749 181.651 77.262 176.842C76.9421 176.078 76.6522 175.386 76.4093 174.795C74.7769 170.831 71.0773 156.398 71.0773 151.215C71.0773 147.498 69.9268 142.613 69.0867 139.046C68.723 137.502 68.4088 136.168 68.3004 135.391C68.1259 134.139 68.3765 133.772 69.7382 132.033C70.4387 131.138 71.398 129.913 72.5677 128.115C75.3492 123.84 87.4695 114.896 90.5306 112.673C95.1159 120.658 100.016 126.438 104.862 131.208C101.968 132.876 94.138 137.328 90.9999 138.486C90.7447 138.581 90.5358 138.77 90.4176 139.016C90.2597 139.344 89.4837 141.047 89.7146 142.357C89.8678 143.314 89.9535 155.582 89.8235 157.983C89.7076 160.128 90.3594 173.483 92.0686 180.13C93.1356 184.279 93.5126 189.245 93.7881 192.871C93.9373 194.835 94.0659 196.531 94.2656 197.64C94.8238 200.739 96.2778 203.009 98.9801 205.001C99.4051 205.314 100.188 206.579 100.658 211.538C100.677 211.741 100.693 211.901 100.706 212.007C100.647 212.66 99.8228 216.177 98.9909 219.496ZM108.587 134.713C107.493 139.54 100.08 171.895 95.1028 184.845C94.8539 183.069 94.533 181.282 94.1021 179.607C92.4413 173.149 91.8075 160.179 91.9201 158.097C92.0362 155.95 91.9982 143.216 91.7827 141.994C91.7143 141.606 91.9285 140.856 92.1515 140.292C95.934 138.768 104.153 134.048 106.436 132.724C107.156 133.404 107.873 134.068 108.587 134.713ZM145.448 233.734C143.762 230.53 133.234 218.555 130.634 217.727C130.092 217.555 128.423 217.155 125.898 216.551C118.906 214.877 105.998 211.785 102.602 209.977C102.272 207.236 101.662 204.369 100.226 203.31C97.9584 201.639 96.7938 199.832 96.3319 197.268C96.1515 196.265 96.0264 194.618 95.8816 192.712C95.7963 191.588 95.701 190.337 95.5791 189.02C100.376 179.575 108.567 144.269 110.41 136.171C110.46 136.184 110.507 136.205 110.559 136.21C112.501 136.419 115.735 133.506 120.441 129.038C122.167 127.399 124.124 125.542 124.774 125.231C125.78 124.75 127.839 123.067 131.11 120.354C133.853 118.079 137.609 114.964 138.696 114.573L137.984 112.597C136.651 113.077 133.866 115.341 129.77 118.738C127.399 120.704 124.713 122.932 123.868 123.337C122.963 123.769 121.501 125.137 118.995 127.515C116.857 129.546 112.543 133.641 111.032 134.084C104.622 128.392 97.8838 121.573 91.7732 110.611C93.6393 109.499 96.2855 107.267 99.0592 104.927C101.963 102.478 104.966 99.9448 106.731 99.0201C108.942 97.8617 114.83 93.0875 120.524 88.47C124.694 85.0885 129.006 81.5916 129.94 81.1436C131.199 80.5398 136.765 80.7243 141.676 80.8878C144.745 80.9903 147.918 81.0954 150.711 81.0626C156.484 80.995 159.207 79.7417 160.374 78.9236C162.638 80.447 170.332 86.004 173.249 92.9624C177.556 103.232 181.585 104.313 183.081 104.313H183.102C183.798 105.163 184.73 109.17 185.297 111.605C185.882 114.119 186.387 116.291 186.929 117.375C188.287 120.092 189.85 125.144 189.072 127.869C188.818 128.758 188.161 130.302 187.401 132.091C185.462 136.652 182.807 142.9 182.945 147.099C183.117 152.352 171.799 196.925 169.518 205.072C168.913 207.231 167.75 210.463 166.519 213.883C163.688 221.751 160.48 230.668 160.812 234.859C160.841 235.217 160.916 236.167 159.028 236.714C154.662 237.975 146.413 235.568 145.448 233.734Z" fill="#34539B"/>
    <path d="M190.543 42.7495C194.46 41.6802 196.233 45.7502 196.307 45.9235L198.245 45.1166C197.389 43.0504 194.561 39.4741 189.988 40.7248C188.514 41.1277 187.388 42.0344 186.639 43.4189C184.854 46.7231 185.857 51.6265 186.223 52.7588C186.48 53.5523 187.201 54.662 188.035 55.9471C188.742 57.0353 189.925 58.8566 189.956 59.3732C189.884 60.4137 190.562 61.6219 191.683 62.4523C192.422 62.9993 193.218 63.2827 193.971 63.2827C194.318 63.2827 194.656 63.2227 194.975 63.1007C196.836 62.3888 197.021 60.1374 196.837 58.9195L194.761 59.2333C194.81 59.5521 194.866 60.8946 194.226 61.1396C193.906 61.2616 193.41 61.1186 192.932 60.7648C192.34 60.3256 192.035 59.7489 192.05 59.5177C192.124 58.449 191.242 57.0301 189.796 54.8035C189.138 53.7906 188.392 52.6418 188.221 52.1129C187.847 50.9575 187.187 46.8214 188.486 44.4174C188.958 43.5445 189.631 42.9991 190.543 42.7495Z" fill="#34539B"/>
    <path opacity="0.2" d="M92.2862 231.158C120.006 231.158 142.477 208.687 142.477 180.967C142.477 153.248 120.006 130.777 92.2862 130.777C64.5667 130.777 42.0957 153.248 42.0957 180.967C42.0957 208.687 64.5667 231.158 92.2862 231.158Z" fill="#0075FF"/>
</svg>
