<svg width="273" height="273" viewBox="0 0 273 273" fill="none" xmlns="http://www.w3.org/2000/svg">
    <path d="M131 236C186.228 236 231 191.228 231 136C231 80.7715 186.228 36 131 36C75.7715 36 31 80.7715 31 136C31 191.228 75.7715 236 131 236Z" fill="#F1F5FF"/>
    <path d="M173.005 18.8546C172.83 18.9817 172.629 19.0508 172.423 19.0755C172.79 24.0658 174.097 41.8585 174.357 45.5804C174.668 50.0446 173.074 54.6226 171.012 55.1856C169.993 55.5962 164.123 60.5672 159.723 66.8796C157.946 69.4297 154.217 72.7422 149.978 76.0713C150.712 76.5798 152.069 77.2078 153.18 77.19C153.997 77.1779 154.222 76.8169 154.307 76.6814C154.367 76.5859 154.439 76.4994 154.522 76.4238C155.485 75.5415 164.106 67.8388 169.747 68.6509C173.272 69.1668 175.55 68.328 176.912 67.8285C177.558 67.5914 178.024 67.4203 178.501 67.4203C178.966 67.4203 179.561 67.6186 181.215 68.1931C183.767 69.0791 188.515 70.7276 190.859 70.2844C194.215 69.6488 212.49 69.451 220.165 72.8207C219.714 68.5354 218.691 59.8264 217.535 56.6472C217.222 55.7867 216.655 53.7608 215.797 50.6934C212.221 37.9145 203.847 7.98959 196.277 1.93362L196.557 1.58398C192.583 2.44383 183.003 4.64984 171.662 8.1942C172.003 9.7226 172.556 12.4971 173.494 17.6305C173.58 18.0987 173.389 18.5746 173.005 18.8546Z" fill="white"/>
    <path d="M142.642 128.015C147.545 126.933 171.175 121.778 176.556 121.778C176.64 121.779 176.716 121.781 176.8 121.78C182.457 121.78 216.608 113.939 218.89 94.4511C220.542 80.3372 219.985 76.3527 219.686 75.3105C213.713 72.1465 194.998 72.0237 191.318 72.7188C188.329 73.2873 183.558 71.6296 180.403 70.5338C179.639 70.269 178.781 69.9708 178.476 69.9043C178.365 69.9345 178.034 70.0561 177.765 70.1547C176.286 70.6971 173.534 71.7065 169.39 71.1035C165.638 70.552 158.783 75.9113 156.303 78.1525C155.631 79.1116 154.542 79.648 153.216 79.6674C153.191 79.668 153.166 79.668 153.141 79.668C151.275 79.668 149.11 78.6751 147.968 77.6234C143.289 81.1787 138.285 84.6159 134.715 87.0233C135.089 91.4469 137.622 119.35 142.642 128.015Z" fill="white"/>
    <path d="M156.221 15.042C161.087 13.5857 166.115 13.8203 170.614 15.6745C170.121 13.0406 169.627 10.513 169.294 8.94531C160.771 11.6932 151.439 15.167 142.832 19.3664C143.749 21.046 145.139 23.8073 146.268 26.0859C147.423 22.3824 150.129 16.8647 156.221 15.042Z" fill="white"/>
    <path d="M125.019 75.3199C124.217 76.0927 122.445 77.8768 120.57 79.7648C115.011 85.3611 114.93 85.4011 114.631 85.551C113.854 85.9405 107.762 86.4268 105.82 86.4268C104.596 86.4268 104.334 86.5453 104.294 86.5689C104.272 86.5888 104.196 86.6892 104.141 86.763C104.025 86.9178 103.88 87.1107 103.669 87.3309C103.086 87.9399 101.918 88.5071 100.203 89.303C99.4949 89.6314 98.6927 90.0039 98.3952 90.2059C98.3641 90.2645 98.1956 90.6401 98.2555 92.0316C98.2655 92.2626 98.2716 92.4023 98.2443 92.5656C98.1857 92.92 98.0154 93.1455 97.6761 93.5937C97.5144 93.8078 97.1195 94.3297 96.8785 94.7409C97.5385 94.2595 98.6667 93.3566 99.6098 92.5638C99.6842 92.5015 99.7658 92.4477 99.8526 92.4041L101.071 91.7952C101.444 91.6095 101.887 91.6228 102.248 91.8326C102.609 92.043 102.84 92.421 102.861 92.8377C102.872 93.0373 102.926 94.8116 101.623 95.7888C101.225 96.1825 99.7586 98.9003 98.6627 101.172C98.6074 101.287 98.5349 101.393 98.4472 101.485C96.9223 103.098 95.1355 105.164 94.906 105.669C94.7073 106.323 94.1471 110.388 94.8719 112.249C95.2708 111.375 95.597 110.686 95.7983 110.314C96.3771 109.244 100.012 104.597 100.735 103.676L102.683 105.206C101.06 107.274 98.3468 110.809 97.977 111.493C97.482 112.407 95.8915 116.034 95.2121 117.583C95.0573 117.937 94.9351 118.214 94.862 118.38C94.6802 119.112 94.8961 119.401 94.969 119.499C95.2648 119.895 95.919 120.129 96.5077 120.251C98.0859 115.997 102.345 109.544 103.857 107.853L105.703 109.505C102.852 112.692 98.4225 120.87 98.3408 122.614C98.4856 122.868 98.6093 122.891 99.4018 122.779C99.4783 122.769 99.5542 122.758 99.6292 122.748C100.491 122.072 103.114 118.212 104.042 116.471C104.898 114.867 108.652 110.578 109.078 110.094C109.453 109.667 110.073 109.55 110.578 109.812C111.084 110.075 111.345 110.648 111.212 111.202C108.631 121.912 108.397 122.311 108.284 122.502C108.186 122.674 108.082 123.007 108.075 123.195C108.194 123.223 108.463 123.256 108.974 123.186C110.732 122.941 111.216 121.196 111.86 118.368C111.996 117.77 112.132 117.173 112.29 116.599C113.178 113.359 114.88 110.115 114.952 109.979C115.036 109.82 115.152 109.682 115.295 109.573C119.701 106.201 123.712 95.0958 124.108 93.977C124.255 93.232 125.085 90.5142 129.592 87.4771L130.849 86.6335C136.451 82.8853 153.498 71.4791 157.691 65.4637C162.198 58.9971 168.529 53.4206 170.277 52.8214C170.787 52.4223 172.16 49.6918 171.885 45.7536C171.595 41.5849 169.986 19.7186 169.863 18.0476C165.839 16.3366 161.315 16.1043 156.93 17.4163C151.442 19.0583 149.214 24.6183 148.379 27.7386L148.382 27.7376C148.52 28.0732 151.749 36.0178 151.102 40.759C150.394 45.9568 130.077 70.4444 125.019 75.3199Z" fill="white"/>
    <path d="M148.648 40.4228C148.994 37.891 147.883 33.7776 146.936 30.9723C146.924 30.9747 146.915 30.9818 146.903 30.9839C146.833 30.9959 146.763 31.0014 146.695 31.0014C146.227 31.0014 145.792 30.7365 145.582 30.306C143.72 26.4913 141.644 22.361 140.618 20.4727C137.132 22.2525 133.793 24.1551 130.706 26.1802C132.687 29.7671 139.653 42.5141 142.756 49.9785C146.069 45.4364 148.472 41.7162 148.648 40.4228Z" fill="white"/>
    <path d="M161.892 155.421C164.039 155.096 166.065 154.788 167.317 154.874C170.061 155.061 185.911 160.86 190.817 162.675C192.287 157.72 197.494 140.224 198.339 138.234C198.779 137.197 199.433 133.171 199.91 130.231C200.866 124.354 200.996 123.952 201.578 123.515L201.633 123.475C203.108 122.38 209.661 117.22 212.267 110.22C208.489 113.448 204.071 115.936 200.054 117.775C190.514 122.14 180.123 124.257 176.784 124.257C176.738 124.257 176.694 124.257 176.65 124.256C176.612 124.255 176.571 124.255 176.53 124.255C173.954 124.255 166.274 125.637 158.328 127.231C158.126 131.385 157.134 151.487 156.671 155.995C157.824 156.034 160.307 155.662 161.892 155.421Z" fill="white"/>
    <path d="M220.18 253.373C219.353 251.92 218.755 250.871 218.55 250.076C218.045 248.118 217.254 245.844 216.338 243.211C214.15 236.926 211.426 229.103 210.464 219.574C209.142 206.486 203.711 190.626 198.1 183.467C194.067 178.322 190.832 172.234 190.404 171.093C190.031 170.097 189.796 166.722 189.693 164.898C181.399 161.832 169.069 157.475 167.151 157.344C167.106 157.341 167.05 157.342 167.001 157.341C166.767 162.157 166.715 167.497 167.038 168.376C167.163 168.624 167.369 169.113 167.679 169.853C169.042 173.096 172.232 180.691 175.936 184.477C176.302 184.851 176.655 185.295 177.002 185.79L177.222 185.936L177.37 186.339C179.206 189.225 180.848 193.751 182.82 199.195C185.295 206.028 188.101 213.772 192.041 220.116C199.575 232.249 203.215 248.352 201.056 250.82C198.86 253.33 187.446 253.679 187.334 253.679C185.504 253.679 183.55 253.977 182.749 254.227C182.574 254.566 182.25 254.809 181.868 254.878C180.458 255.132 178.88 255.775 178.683 256.176C178.57 256.638 178.209 256.972 177.742 257.07C176.572 257.317 175.285 257.756 174.833 258.05C174.72 258.508 174.348 258.88 173.855 258.971C173.282 259.079 172.591 259.348 172.361 259.545C172.338 259.829 172.217 260.099 172.016 260.306C171.776 260.554 171.445 260.711 171.098 260.682C171.094 260.683 171.089 260.683 171.084 260.683C171.098 260.826 171.11 260.96 171.123 261.103C171.285 262.907 171.576 264.314 173.689 264.65C176.932 265.166 179.236 264.26 179.259 264.251C179.638 264.098 180.07 264.143 180.411 264.371C180.43 264.384 182.787 265.905 185.923 265.589C189.157 265.26 198.198 264.578 199.804 264.78C200.336 264.847 202.069 265.283 205.345 266.112C209.661 267.204 216.884 269.034 218.193 269.034L218.432 269.035C219.88 269.038 222.564 269.048 223.827 267.626C224.484 266.887 224.724 265.756 224.543 264.264C224.042 260.149 221.718 256.071 220.18 253.373Z" fill="white"/>
    <path d="M135.327 111.399C133.681 102.246 132.727 92.6727 132.364 88.6006C132.32 88.6301 132.271 88.6628 132.228 88.6917L130.977 89.5305C126.959 92.2385 126.541 94.4422 126.537 94.4647C126.527 94.5536 126.511 94.6086 126.482 94.6932C126.305 95.2084 122.136 107.196 117.028 111.361C116.639 112.132 115.368 114.743 114.68 117.253C114.532 117.793 114.404 118.355 114.276 118.918C113.644 121.692 112.858 125.145 109.317 125.639C109.004 125.682 108.71 125.704 108.434 125.704C107.302 125.705 106.484 125.337 105.997 124.608C105.145 123.332 105.89 121.733 106.1 121.337C106.262 120.873 106.847 118.593 107.541 115.792C106.924 116.579 106.434 117.252 106.229 117.636C106.19 117.709 102.158 124.969 100.089 125.188C99.9759 125.199 99.8613 125.216 99.7458 125.232C99.7124 125.237 99.6753 125.242 99.6392 125.246C101.551 131.408 108.054 152.189 111.029 159.499C111.967 161.805 113.15 164.428 114.295 166.966C118.488 176.262 120.963 182.123 119.992 185.117C118.703 189.092 117.925 190.636 114.265 192.352C111.408 193.691 99.3506 199.068 95.085 200.241C93.9982 200.54 92.8997 200.758 91.8372 200.969C89.7151 201.391 87.3098 201.869 87.3327 202.736C87.3503 203.404 86.8353 203.965 86.1689 204.005C86.1722 204.005 85.4471 204.088 85.386 204.437C85.2551 205.184 85.3134 205.72 85.3791 205.949C85.9424 206.271 86.1271 206.854 86.2327 207.186C86.3809 207.654 86.4625 207.911 87.3218 208.085C87.805 208.183 88.1842 208.559 88.287 209.041C88.3082 209.101 88.6438 210.01 90.6833 209.825C91.0855 209.786 91.4741 209.946 91.7356 210.249C91.9479 210.495 92.0531 210.812 92.0343 211.131C92.1589 211.201 92.5136 211.343 93.3354 211.343C96.0789 211.343 101.268 211.47 104.214 211.754C106.755 211.998 118.933 209.97 120.278 209.679C120.392 209.654 132.458 207.328 135.601 207.768C136.799 207.932 139.317 207.312 140.926 205.699C141.966 204.657 142.391 203.411 142.187 201.998C141.762 199.039 140.67 196.78 139.613 194.595C138.911 193.143 138.185 191.641 137.693 189.995C136.513 186.052 133.085 172.12 132.94 171.529C131.37 165.134 131.169 160.068 130.936 154.202C130.754 149.615 130.548 144.416 129.665 137.486C127.968 124.166 121.978 115.977 120.394 114.012C118.662 114.309 117.62 114.592 117.59 114.6L116.925 112.214C117.295 112.111 125.705 109.816 135.327 111.399Z" fill="white"/>
    <path d="M213.527 223.78C213.663 224.6 213.809 225.407 213.967 226.199L213.527 223.78Z" fill="white"/>
    <path d="M222.333 252.148C221.684 251.009 221.071 249.934 220.949 249.459C220.419 247.402 219.612 245.083 218.677 242.398C217.089 237.834 215.214 232.442 213.968 226.2C213.81 225.408 213.664 224.601 213.528 223.782C213.289 222.338 213.083 220.855 212.929 219.326C211.566 205.838 205.909 189.416 200.05 181.94C196.17 176.99 193.073 171.155 192.724 170.224C192.552 169.759 192.344 167.578 192.205 165.393C192.501 165.237 192.724 164.97 192.819 164.649C194.733 158.174 199.867 140.979 200.622 139.201C201.138 137.983 201.667 134.879 202.358 130.628C202.689 128.593 203.093 126.105 203.319 125.308C205.579 123.594 214.368 116.376 215.661 106.895C218.634 103.51 220.797 99.4818 221.352 94.7383C222.598 84.0965 222.638 78.839 222.332 76.1683C222.7 75.9179 222.919 75.495 222.878 75.0428C222.823 74.4454 221.525 60.3655 219.864 55.8008C219.584 55.0292 218.997 52.9307 218.184 50.0261C214.235 35.9155 206.019 6.55429 197.826 0L196.558 1.58439L196.279 1.93402C203.849 7.99 212.223 37.9148 215.798 50.6938C216.657 53.7611 217.224 55.787 217.537 56.6476C218.693 59.8268 219.715 68.5358 220.167 72.8211C212.491 69.4514 194.217 69.6491 190.86 70.2848C188.516 70.728 183.768 69.0795 181.217 68.1935C179.563 67.619 178.968 67.4207 178.503 67.4207C178.026 67.4207 177.559 67.5918 176.913 67.8289C175.552 68.3284 173.274 69.1672 169.749 68.6513C164.107 67.8392 155.487 75.5419 154.523 76.4242C154.44 76.4998 154.368 76.5863 154.309 76.6818C154.224 76.8173 153.998 77.1783 153.182 77.1904C152.071 77.2082 150.714 76.5801 149.979 76.0717C154.219 72.7427 157.948 69.4301 159.725 66.88C164.125 60.5676 169.994 55.5966 171.013 55.186C173.075 54.623 174.67 50.045 174.359 45.5808C174.099 41.8588 172.792 24.0662 172.425 19.0759C172.631 19.0512 172.832 18.9821 173.006 18.855C173.391 18.5751 173.581 18.0991 173.496 17.631C172.558 12.4976 172.005 9.72313 171.664 8.19472C171.291 6.52234 171.173 6.34232 171.085 6.21153L169.024 7.58555C168.959 7.48635 168.93 7.40956 168.929 7.40652C168.993 7.5837 169.123 8.14066 169.295 8.9467C169.628 10.5144 170.122 13.0419 170.615 15.6759C166.116 13.8218 161.088 13.5872 156.222 15.0434C150.13 16.8661 147.424 22.3838 146.269 26.0873C145.14 23.8088 143.75 21.0474 142.833 19.3678C142.451 18.6673 142.148 18.1506 141.984 17.9426L140.038 19.475C140.135 19.604 140.341 19.9611 140.62 20.474C141.646 22.3624 143.722 26.4927 145.584 30.3073C145.794 30.7379 146.23 31.0027 146.697 31.0027C146.765 31.0027 146.835 30.9973 146.905 30.9852C146.917 30.9832 146.926 30.976 146.938 30.9737C147.885 33.7789 148.996 37.8923 148.65 40.4241C148.474 41.7175 146.071 45.4377 142.758 49.9798C139.655 42.5153 132.689 29.7684 130.708 26.1815C130.42 25.6608 130.234 25.3256 130.184 25.2358L128.02 26.4429C128.122 26.6249 138.023 44.4026 141.026 52.3213C135.002 60.3502 127.017 69.9556 123.302 73.536C122.481 74.3282 120.7 76.1213 118.814 78.0196C116.854 79.9922 114.231 82.6332 113.502 83.3093C112.413 83.5004 108.053 83.9498 105.822 83.9498C103.527 83.9498 102.863 84.341 102.161 85.2772C102.085 85.3788 102.002 85.4931 101.883 85.6171C101.576 85.9364 100.006 86.6645 99.1623 87.0557C98.2542 87.4773 97.4699 87.8413 97.0066 88.1558C95.7143 89.0327 95.7379 91.0236 95.7771 92.0014C95.7535 92.0323 95.7288 92.0649 95.7024 92.0994C94.795 93.2998 94.0019 94.4676 94.264 95.5604C94.4657 96.4019 94.9962 96.9338 95.6098 97.2156C95.081 98.7403 94.3667 100.966 94.0448 102.691C93.2907 103.603 92.7095 104.41 92.5614 104.882C92.3788 105.462 91.2557 111.324 92.9977 114.012C93.2062 114.334 93.4511 114.602 93.7248 114.818C93.4709 115.393 93.2091 115.988 92.9457 116.588C92.7598 117.012 92.6228 117.325 92.5626 117.459C92.5366 117.516 92.5151 117.576 92.4982 117.637C92.0477 119.266 92.5187 120.36 92.9935 120.991C93.7482 121.994 94.9567 122.45 95.9143 122.659C95.8962 123.041 95.9416 123.362 96.065 123.604C96.2961 124.058 96.5684 124.392 96.8598 124.642C97.9573 128.201 105.397 152.229 108.735 160.433C109.691 162.781 110.884 165.427 112.038 167.985C114.865 174.253 118.383 182.053 117.637 184.353C116.459 187.985 115.987 188.81 113.214 190.11C109.551 191.827 98.2272 196.809 94.4294 197.853C93.4289 198.128 92.3748 198.338 91.3554 198.541C88.5512 199.098 85.6642 199.672 84.9986 201.742C84.1151 202.048 83.1726 202.721 82.947 204.011C82.6846 205.51 82.8173 207.246 83.8798 207.959C84.0631 208.536 84.4713 209.758 86.1733 210.338C86.6816 211.229 87.798 212.217 89.829 212.319C89.8868 212.423 89.9551 212.527 90.0343 212.628C90.186 212.821 90.368 212.99 90.5776 213.137H73.8811C73.1971 213.137 72.6426 213.692 72.6426 214.376V231.137C72.6426 231.821 73.1971 232.375 73.8811 232.375H154.141C154.825 232.375 155.379 231.821 155.379 231.137V214.376C155.379 213.692 154.825 213.137 154.141 213.137H114.617C117.7 212.666 120.332 212.203 120.803 212.101C122.587 211.715 132.979 209.9 135.256 210.222C137.264 210.508 140.591 209.546 142.681 207.449C144.279 205.847 144.956 203.841 144.641 201.646C144.161 198.307 142.93 195.762 141.845 193.518C141.155 192.09 140.503 190.742 140.067 189.286C138.905 185.401 135.382 171.082 135.347 170.939C133.836 164.787 133.65 160.073 133.413 154.104C133.229 149.467 133.02 144.21 132.124 137.173C130.566 124.943 125.657 116.939 123.223 113.617C126.588 113.247 131.113 113.107 135.818 114.002C137.15 120.758 138.877 126.96 141.04 130.113C141.274 130.454 141.659 130.651 142.061 130.651C142.151 130.651 142.241 130.641 142.331 130.621C145.933 129.818 150.832 128.76 155.827 127.738C155.297 138.56 154.419 154.992 154.148 156.255C154.03 156.809 154.178 157.355 154.554 157.756C155.514 158.775 157.536 158.587 162.265 157.869C163.027 157.754 163.796 157.639 164.511 157.544C164.3 161.894 164.133 168.102 164.808 169.453C164.912 169.66 165.125 170.168 165.396 170.813C166.813 174.186 170.131 182.087 174.167 186.21C176.254 188.343 178.218 193.763 180.492 200.04C183.008 206.987 185.861 214.86 189.936 221.423C197.401 233.443 199.941 247.173 199.147 249.233C198.05 250.218 190.864 251.202 187.334 251.202C186.766 251.202 182.105 251.244 180.761 252.579C179.543 252.862 177.516 253.507 176.643 254.779C174.187 255.362 173.123 256.083 172.677 256.706C171.613 257.011 170.62 257.555 170.158 258.366C169.818 258.482 169.45 258.68 169.146 259.017C168.837 259.36 168.494 259.963 168.613 260.888C168.629 261.015 168.642 261.162 168.656 261.324C168.793 262.852 169.113 266.432 173.301 267.098C176.213 267.56 178.534 267.058 179.582 266.751C180.633 267.311 183.09 268.369 186.174 268.054C190.392 267.624 198.411 267.101 199.497 267.239C199.901 267.289 202.36 267.912 204.737 268.514C211.445 270.212 216.695 271.512 218.193 271.512L218.424 271.512C218.522 271.512 218.625 271.513 218.732 271.513C220.62 271.513 223.781 271.408 225.679 269.272C226.828 267.979 227.274 266.194 227.002 263.966C226.441 259.357 223.969 255.018 222.333 252.148ZM223.827 267.627C222.564 269.049 219.88 269.039 218.432 269.035L218.193 269.035C216.885 269.035 209.661 267.205 205.345 266.112C202.07 265.283 200.336 264.847 199.805 264.781C198.198 264.579 189.157 265.26 185.923 265.59C182.788 265.906 180.43 264.385 180.411 264.372C180.07 264.144 179.638 264.099 179.259 264.252C179.236 264.261 176.932 265.167 173.69 264.651C171.576 264.315 171.285 262.908 171.123 261.103C171.11 260.96 171.098 260.827 171.084 260.684C171.089 260.684 171.094 260.684 171.098 260.683C171.445 260.712 171.776 260.555 172.017 260.307C172.217 260.099 172.338 259.83 172.361 259.545C172.591 259.349 173.282 259.08 173.855 258.971C174.348 258.881 174.72 258.509 174.833 258.05C175.285 257.756 176.572 257.317 177.743 257.071C178.209 256.973 178.57 256.639 178.683 256.176C178.88 255.776 180.458 255.133 181.869 254.879C182.25 254.81 182.574 254.567 182.749 254.228C183.55 253.977 185.504 253.679 187.334 253.679C187.447 253.679 198.86 253.331 201.057 250.821C203.215 248.353 199.575 232.249 192.041 220.117C188.101 213.773 185.296 206.029 182.82 199.196C180.848 193.751 179.206 189.225 177.37 186.34C177.248 186.149 177.125 185.967 177.002 185.791C176.656 185.295 176.302 184.851 175.937 184.478C172.232 180.692 169.042 173.097 167.68 169.854C167.369 169.113 167.163 168.625 167.038 168.377C166.715 167.498 166.767 162.157 167.001 157.341C167.05 157.343 167.107 157.341 167.151 157.344C169.069 157.475 181.399 161.833 189.693 164.899C189.796 166.723 190.031 170.098 190.404 171.093C190.832 172.234 194.067 178.322 198.101 183.468C203.711 190.627 209.142 206.487 210.464 219.575C211.427 229.103 214.15 236.926 216.338 243.212C217.254 245.845 218.046 248.119 218.55 250.077C218.755 250.872 219.353 251.921 220.181 253.374C221.719 256.072 224.042 260.15 224.543 264.264C224.725 265.757 224.484 266.888 223.827 267.627ZM176.533 124.254C176.574 124.254 176.614 124.254 176.653 124.256C176.696 124.256 176.741 124.257 176.787 124.257C180.126 124.256 190.517 122.139 200.056 117.774C204.073 115.935 208.492 113.447 212.269 110.219C209.663 117.219 203.111 122.379 201.636 123.474L201.581 123.515C200.999 123.951 200.868 124.354 199.913 130.231C199.435 133.17 198.781 137.197 198.341 138.233C197.497 140.223 192.29 157.719 190.82 162.675C185.913 160.859 170.063 155.06 167.32 154.874C166.068 154.788 164.042 155.095 161.895 155.421C160.31 155.661 157.827 156.033 156.673 155.994C157.137 151.487 158.129 131.385 158.331 127.231C166.276 125.636 173.957 124.254 176.533 124.254ZM153.142 79.6674C153.168 79.6674 153.193 79.6674 153.218 79.6667C154.544 79.6474 155.632 79.1109 156.305 78.1518C158.785 75.9107 165.64 70.5514 169.392 71.1029C173.536 71.7058 176.288 70.6965 177.767 70.154C178.036 70.0554 178.367 69.9339 178.478 69.9037C178.783 69.9702 179.641 70.2683 180.405 70.5332C183.56 71.629 188.331 73.2866 191.32 72.7182C195 72.023 213.715 72.1458 219.688 75.3098C219.987 76.3521 220.544 80.3365 218.892 94.4505C216.61 113.939 182.459 121.78 176.802 121.78C176.718 121.78 176.642 121.778 176.558 121.777C171.177 121.777 147.546 126.932 142.644 128.015C137.624 119.349 135.091 91.4463 134.717 87.0227C138.287 84.6153 143.291 81.178 147.97 77.6228C149.112 78.6746 151.277 79.6674 153.142 79.6674ZM116.926 112.215L117.592 114.601C117.622 114.592 118.664 114.309 120.395 114.013C121.979 115.977 127.97 124.167 129.667 137.486C130.549 144.416 130.755 149.616 130.937 154.203C131.17 160.069 131.371 165.135 132.941 171.53C133.086 172.121 136.515 186.053 137.694 189.996C138.186 191.642 138.913 193.143 139.615 194.596C140.671 196.78 141.763 199.04 142.189 201.999C142.392 203.411 141.967 204.657 140.927 205.7C139.318 207.313 136.801 207.933 135.602 207.769C132.459 207.329 120.393 209.655 120.28 209.68C118.934 209.97 106.756 211.999 104.216 211.755C101.269 211.471 96.0802 211.343 93.3368 211.343C92.515 211.343 92.1602 211.201 92.0356 211.132C92.0544 210.813 91.9492 210.496 91.7369 210.25C91.4753 209.947 91.0868 209.787 90.6847 209.826C88.6451 210.01 88.3095 209.101 88.2884 209.042C88.1856 208.56 87.8064 208.184 87.3232 208.086C86.4638 207.912 86.3822 207.654 86.234 207.187C86.1285 206.855 85.9437 206.271 85.3804 205.95C85.3148 205.721 85.2564 205.184 85.3874 204.438C85.4484 204.088 86.1735 204.005 86.1702 204.005C86.8367 203.965 87.3516 203.404 87.3341 202.737C87.3111 201.87 89.7165 201.392 91.8385 200.97C92.9011 200.759 93.9996 200.541 95.0863 200.242C99.3519 199.068 111.409 193.692 114.266 192.352C117.927 190.637 118.704 189.092 119.994 185.117C120.965 182.123 118.489 176.262 114.296 166.966C113.152 164.429 111.968 161.805 111.03 159.499C108.055 152.19 101.553 131.409 99.6406 125.247C99.6766 125.242 99.7138 125.237 99.7472 125.232C99.8627 125.216 99.9773 125.2 100.09 125.188C102.16 124.97 106.191 117.71 106.23 117.637C106.435 117.252 106.925 116.579 107.543 115.793C106.848 118.594 106.263 120.874 106.101 121.337C105.892 121.733 105.147 123.332 105.998 124.608C106.486 125.338 107.303 125.705 108.435 125.705C108.711 125.705 109.005 125.683 109.318 125.639C112.859 125.146 113.646 121.693 114.278 118.918C114.405 118.356 114.533 117.794 114.681 117.254C115.369 114.744 116.64 112.132 117.029 111.361C122.137 107.196 126.306 95.209 126.484 94.6938C126.513 94.6092 126.528 94.5541 126.539 94.4652C126.542 94.4429 126.96 92.2392 130.978 89.5311L132.229 88.6923C132.272 88.6634 132.321 88.6307 132.365 88.6012C132.728 92.6733 133.682 102.247 135.328 111.4C125.706 109.816 117.296 112.111 116.926 112.215ZM152.902 229.898H75.1196V215.614H152.902V229.898ZM151.104 40.759C151.751 36.0178 148.522 28.0731 148.384 27.7375L148.381 27.7386C149.216 24.6183 151.444 19.0583 156.932 17.4163C161.317 16.1042 165.841 16.3366 169.865 18.0476C169.988 19.7186 171.597 41.5849 171.888 45.7536C172.162 49.6917 170.79 52.4222 170.279 52.8213C168.531 53.4206 162.2 58.9971 157.693 65.4636C153.5 71.4791 136.453 82.8852 130.852 86.6335L129.594 87.4771C125.087 90.5141 124.257 93.2319 124.11 93.9769C123.714 95.0957 119.703 106.201 115.297 109.573C115.154 109.682 115.038 109.82 114.954 109.979C114.882 110.115 113.18 113.359 112.292 116.599C112.134 117.173 111.998 117.77 111.862 118.368C111.218 121.195 110.734 122.941 108.976 123.186C108.465 123.256 108.196 123.223 108.077 123.195C108.084 123.007 108.188 122.673 108.286 122.502C108.399 122.311 108.633 121.912 111.214 111.202C111.347 110.648 111.086 110.075 110.58 109.812C110.075 109.55 109.455 109.667 109.08 110.094C108.654 110.578 104.9 114.867 104.044 116.471C103.116 118.212 100.493 122.072 99.6313 122.748C99.5563 122.758 99.4804 122.768 99.4039 122.779C98.6114 122.891 98.4877 122.868 98.3429 122.614C98.4245 120.87 102.854 112.692 105.705 109.505L103.859 107.853C102.347 109.543 98.088 115.996 96.5098 120.25C95.921 120.129 95.2668 119.895 94.9711 119.499C94.8982 119.401 94.6823 119.112 94.864 118.38C94.9372 118.214 95.0593 117.937 95.2141 117.583C95.8936 116.034 97.4841 112.407 97.979 111.493C98.3489 110.809 101.062 107.274 102.686 105.206L100.737 103.676C100.014 104.597 96.3792 109.244 95.8004 110.314C95.5991 110.686 95.2729 111.375 94.8739 112.249C94.1492 110.388 94.7093 106.323 94.9081 105.669C95.1376 105.164 96.9244 103.098 98.4492 101.485C98.5369 101.392 98.6095 101.287 98.6648 101.172C99.7606 98.9003 101.227 96.1825 101.625 95.7888C102.928 94.8115 102.874 93.0371 102.863 92.8376C102.842 92.4209 102.611 92.043 102.25 91.8326C101.889 91.6227 101.446 91.6094 101.073 91.7951L99.8547 92.4041C99.7679 92.4476 99.6862 92.5014 99.6119 92.5637C98.6688 93.3566 97.5406 94.2595 96.8805 94.7408C97.1215 94.3296 97.5164 93.8077 97.6782 93.5936C98.0175 93.1455 98.1877 92.9199 98.2464 92.5655C98.2736 92.4022 98.2676 92.2625 98.2576 92.0315C98.1977 90.64 98.3661 90.2645 98.3973 90.2058C98.6948 90.0038 99.497 89.6313 100.205 89.3029C101.92 88.507 103.088 87.9398 103.671 87.3308C103.882 87.1107 104.027 86.9178 104.143 86.763C104.198 86.6892 104.274 86.5888 104.296 86.5688C104.336 86.5452 104.598 86.4267 105.822 86.4267C107.764 86.4267 113.856 85.9404 114.633 85.551C114.932 85.401 115.013 85.3611 120.572 79.7647C122.447 77.8767 124.219 76.0927 125.021 75.3198C130.079 70.4443 150.396 45.9568 151.104 40.759Z" fill="#34539B"/>
    <path opacity="0.2" d="M115.527 157.168C143.349 157.168 165.902 134.614 165.902 106.793C165.902 78.9716 143.349 56.418 115.527 56.418C87.706 56.418 65.1523 78.9716 65.1523 106.793C65.1523 134.614 87.706 157.168 115.527 157.168Z" fill="#0075FF"/>
</svg>
