<svg width="274" height="275" viewBox="0 0 274 275" fill="none" xmlns="http://www.w3.org/2000/svg">
    <path d="M137 241C192.228 241 237 196.228 237 141C237 85.7715 192.228 41 137 41C81.7715 41 37 85.7715 37 141C37 196.228 81.7715 241 137 241Z" fill="#F1F5FF"/>
    <path d="M129.712 106.967L129.712 106.967L129.712 106.967L129.711 106.97L129.705 106.983L129.678 107.037C129.655 107.086 129.619 107.161 129.573 107.261C129.482 107.46 129.347 107.758 129.18 108.149C128.847 108.93 128.383 110.08 127.867 111.544C126.834 114.474 125.595 118.66 124.773 123.672C123.129 133.7 123.159 146.994 129.802 160.167C133.814 168.042 136.375 176.574 137.365 185.356C137.365 185.357 137.365 185.358 137.366 185.359L136.62 185.443L129.712 106.967ZM129.712 106.967L130.657 105.05L128.721 105.956C112.677 113.47 89.055 119.439 69.3942 123.532C59.5738 125.577 50.7597 127.15 44.4007 128.212C41.2214 128.743 38.6563 129.146 36.8866 129.416C36.0918 129.538 35.4575 129.632 35 129.7M129.712 106.967L35 129.7M35 129.7V63.8135H143.586C150.212 63.8135 156.568 66.446 161.254 71.1319C165.939 75.8173 168.571 82.1719 168.572 88.798C168.572 88.7987 168.572 88.7993 168.572 88.8L168.257 204.188V204.188C168.25 208.694 169.548 213.104 171.995 216.888C174.441 220.67 177.931 223.664 182.042 225.505C190.977 229.564 199.683 234.109 208.121 239.119L208.242 239.191L208.381 239.214L222.685 241.608C222.622 245.008 222.041 247.396 220.871 248.95C219.672 250.542 217.739 251.4 214.628 251.404C211.81 251.238 209.018 250.764 206.301 249.992L206.129 249.943L205.953 249.978C201.976 250.751 197.952 251.261 193.907 251.504C187.399 251.457 180.921 250.622 174.613 249.018L174.613 249.018C169.824 247.803 164.783 248.036 160.126 249.687L160.126 249.687C156.743 250.89 153.18 251.504 149.59 251.504H144.161C141.054 251.504 138.075 250.27 135.878 248.073C133.682 245.877 132.448 242.9 132.446 239.795L35 129.7Z" fill="white" stroke="#34539B" stroke-width="1.5"/>
    <path opacity="0.2" d="M141.893 141.349C169.816 141.349 192.452 118.713 192.452 90.7895C192.452 62.8663 169.816 40.23 141.893 40.23C113.969 40.23 91.333 62.8663 91.333 90.7895C91.333 118.713 113.969 141.349 141.893 141.349Z" fill="#0075FF"/>
</svg>
