<svg width="274" height="275" viewBox="0 0 274 275" fill="none" xmlns="http://www.w3.org/2000/svg">
    <path d="M134 238C189.228 238 234 193.228 234 138C234 82.7715 189.228 38 134 38C78.7715 38 34 82.7715 34 138C34 193.228 78.7715 238 134 238Z" fill="#F1F5FF"/>
    <path d="M196.18 98.1172C185.629 90.4963 168.889 78.9956 165.841 78.4241C162.132 77.7277 157.252 79.1619 156.358 79.4409C156.32 79.5276 156.292 79.6121 156.246 79.7006C155.459 81.2389 153.94 83.7186 152.719 85.7109C152.12 86.689 151.583 87.5644 151.226 88.1762C150.322 89.7261 147.632 92.6093 143.115 94.7819L143.202 94.8837C141.573 96.2618 140.344 99.752 139.156 103.127C137.599 107.548 135.99 112.118 132.991 114.18C128.303 117.403 123.443 126.143 123.395 126.231C123.271 126.454 123.082 126.634 122.852 126.744C119.093 128.545 117.531 130.806 116.498 132.302C116.237 132.679 116.012 133.005 115.782 133.281C114.932 134.301 111.175 136.669 108.721 138.159C116.455 143.317 148.471 165.118 155.024 176.806C158.412 173.632 167.841 164.619 169.869 160.807C170.924 158.824 173.218 157.645 175.875 156.28C180.749 153.776 187.424 150.347 190.986 139.795L193.306 140.578C189.427 152.071 181.945 155.914 176.994 158.458C174.609 159.683 172.725 160.651 172.03 161.957C169.365 166.969 156.03 179.221 155.464 179.741C155.236 179.95 154.94 180.062 154.637 180.062C154.542 180.062 154.446 180.052 154.352 180.029C153.957 179.934 153.634 179.65 153.491 179.269C152.586 176.862 150.032 173.747 146.549 170.318C144.97 170.901 136.609 174.042 133.252 176.44C132.305 177.116 129.282 178.414 125.039 180.031C123.865 194.228 126.864 253.164 127.311 261.734C165.83 264.773 229.231 241.639 237.546 238.528C236.133 227.765 226.903 159.09 219.101 140.026C212.696 124.374 201.558 103.182 196.18 98.1172Z" fill="white"/>
    <path d="M125.633 97.3402C124.826 98.5927 122.914 101.579 120.514 105.481C121.266 106.04 122.152 106.504 122.544 106.428C124.057 106.142 130.502 107.836 133.304 110.377C134.726 108.33 135.8 105.287 136.846 102.316C137.611 100.143 138.352 98.0394 139.235 96.293C135.545 97.4164 131.019 97.9762 125.633 97.3402Z" fill="white"/>
    <path d="M107.84 63.3968C111.49 56.5724 116.033 52.6139 116.224 52.4489C118.65 50.188 121.519 47.3183 121.861 46.6792C122.25 45.9334 123.133 45.3789 124.475 45.0241C121.887 39.8903 109.476 18.5591 80.8928 15.9606C66.3125 14.6339 52.4566 23.0501 43.8166 38.4693C36.1512 52.1491 35.1551 67.5562 41.394 75.9367C50.6774 88.4062 57.2603 89.0702 59.6614 88.778C61.2362 88.5846 62.7903 88.8957 64.1538 89.6755L66.5785 91.061C67.6577 91.6776 68.5202 92.6457 69.0071 93.787C70.4142 97.085 73.7923 104.979 74.7678 107.037C75.0965 107.732 75.6847 108.162 76.4683 108.282C77.94 108.51 79.7621 107.617 81.3522 105.899C81.5781 105.655 81.8931 105.513 82.2252 105.507C82.5608 105.498 82.8779 105.628 83.1134 105.862C83.4741 106.221 84.8724 107.638 85.8385 108.981C97.6582 95.109 103.08 84.5324 103.892 82.884C103.923 81.8236 104.077 77.9954 104.774 73.6981C104.382 74.8627 103.809 75.8158 102.982 76.3606C102.549 76.6454 101.963 76.8846 101.215 76.8846C100.438 76.8846 99.487 76.6272 98.3513 75.8962L99.6765 73.8376C100.296 74.236 101.138 74.6427 101.636 74.3158C103.437 73.1299 103.254 65.4967 102.655 61.9073C102.506 61.0163 99.8247 54.4105 95.4059 51.3255C93.5003 49.995 91.5269 49.5108 89.5436 49.8861C87.5905 50.2552 86.2973 51.0735 85.5908 52.388C84.0095 55.3298 85.8535 59.7996 85.8723 59.8444L83.6171 60.7978C83.5214 60.5719 81.2975 55.2186 83.4291 51.2385C84.4922 49.2534 86.3963 47.9892 89.0888 47.4802C91.7449 46.9775 94.3417 47.5968 96.8074 49.3177C102.023 52.9585 104.856 60.2225 105.07 61.5047C105.082 61.5791 105.803 66.1871 105.424 70.3362C105.994 67.8443 106.773 65.3909 107.84 63.3968Z" fill="white"/>
    <path d="M152.619 68.7919C151.945 69.155 150.158 71.358 148.889 73.1903C148.562 73.6649 147.947 73.8448 147.414 73.6246C146.882 73.404 146.575 72.8419 146.678 72.2746C146.712 72.0893 147.017 70.4369 147.352 69.4885C147.502 69.0456 147.735 66.7811 147.882 64.7867C147.495 64.163 146.72 63.0652 145.907 62.4633C145.299 62.0129 143.597 62.2449 142.639 62.544C142.225 62.6728 141.771 62.5735 141.45 62.2819C141.129 61.9899 140.985 61.5503 141.074 61.1253C141.444 59.3575 140.542 57.7755 139.46 57.1264C138.656 56.6437 136.856 56.9934 136.111 57.2388C135.658 57.3874 135.161 57.2612 134.835 56.9145C134.509 56.5675 134.413 56.064 134.589 55.6222C134.815 55.0579 133.994 54.3249 132.715 53.271L132.345 52.9653C131.626 52.3658 129.967 52.8221 129.276 53.1372C128.842 53.3347 128.332 53.2636 127.97 52.9537C127.608 52.644 127.457 52.1533 127.586 51.6948C127.84 50.7866 128.276 49.2716 128.527 48.6428C128.503 48.3033 128.23 47.4802 127.84 47.1984C127.182 46.9066 124.457 47.3502 123.999 47.8612C123.363 49.0932 119.137 53.0798 117.858 54.2711C117.78 54.3395 113.423 58.1498 109.999 64.551C106.597 70.9115 106.335 83.0785 106.333 83.2005C106.33 83.372 106.291 83.5409 106.219 83.696C105.978 84.2116 100.157 96.5154 85.5234 113.082C73.7522 126.407 64.1964 144.809 57.8729 156.985C56.326 159.965 54.99 162.538 53.8146 164.675C48.3877 174.541 46.5903 182.331 49.0063 185.51C51.0252 188.166 60.6105 194.89 73.6302 193.073C86.8414 191.226 128.501 176.825 131.828 174.448C134.952 172.216 141.662 169.549 144.583 168.44C131.876 156.619 110.175 142.064 106.341 139.52C102.753 141.331 84.7497 150.591 80.0135 156.407L78.115 154.861C81.9427 150.161 93.1718 143.714 100.131 139.988C103.09 127.469 123.129 96.6906 123.999 95.3584C124.257 94.9618 124.721 94.749 125.191 94.8151C142.319 97.1696 149.05 87.0462 149.111 86.9429C149.475 86.3197 150.021 85.4282 150.631 84.432C151.83 82.4753 153.322 80.0405 154.066 78.5858C154.407 77.9209 154.286 77.4185 154.044 76.5882C153.777 75.6715 153.411 74.4163 154.416 73.1392C155.231 72.1045 155.016 69.2817 154.649 68.6349C154.349 68.3888 153.514 68.3101 152.619 68.7919Z" fill="white"/>
    <path d="M197.351 96.2751C197.315 96.2407 197.276 96.2091 197.235 96.1798C194.502 94.2063 170.401 76.8761 165.827 76.0192C162.336 75.366 158.167 76.2737 156.154 76.8165C156.088 76.4852 156.003 76.1781 155.923 75.9039C155.679 75.0676 155.671 74.9041 155.868 74.6549C157.484 72.604 157.109 68.1019 155.94 66.9339C154.806 65.7994 152.767 65.678 150.983 66.6377C150.572 66.8588 150.092 67.2731 149.599 67.7785C149.735 66.517 149.834 65.173 149.875 64.5785C149.891 64.3433 149.839 64.1084 149.725 63.9022C149.675 63.8119 148.486 61.6813 146.886 60.4975C145.806 59.6974 144.285 59.6806 143.106 59.84C142.956 57.8653 141.902 56.0267 140.237 55.0282C139.097 54.3459 137.604 54.3722 136.476 54.5401C136.075 53.2693 134.841 52.2537 133.784 51.3825L133.424 51.0854C132.416 50.2459 131.148 50.1371 130.066 50.2675C130.175 49.9166 130.262 49.6548 130.305 49.56C130.862 48.4452 130.051 46.1308 128.782 45.2151C128.236 44.821 127.396 44.6876 126.545 44.6867C125.733 42.9272 122.688 36.882 116.521 30.4954C109.902 23.6406 98.2946 15.1315 80.5881 13.523C65.0104 12.1069 50.2586 20.9864 41.1253 37.2732C32.8681 51.9985 31.9631 68.124 38.8734 77.3994C48.5683 90.4122 55.9058 91.6385 59.416 91.209C60.4645 91.081 61.4961 91.2861 62.3993 91.8017L64.8258 93.1872C65.4539 93.5458 65.9354 94.0856 66.2184 94.7482C67.6318 98.0597 71.0277 105.989 72.0221 108.086C72.696 109.507 73.9878 110.461 75.5666 110.703C77.5564 111.011 79.7395 110.201 81.6988 108.468C82.5135 109.349 83.2873 110.287 83.6582 110.897C83.4928 111.086 83.3314 111.272 83.1637 111.462C71.1847 125.013 61.5382 143.575 55.1551 155.859C53.6142 158.824 52.2835 161.385 51.1213 163.496C45.0337 174.556 43.3944 182.901 46.5058 186.992C48.8353 190.056 57.2328 195.832 68.6726 195.832C70.2081 195.832 71.7996 195.728 73.4374 195.499C82.8406 194.186 107.529 186.326 122.024 180.977C120.986 198.224 124.28 260.18 124.426 262.912L126.873 262.781C126.87 262.735 126.851 262.367 126.818 261.736C126.371 253.166 123.369 194.23 124.545 180.033C128.79 178.416 131.816 177.118 132.763 176.442C136.123 174.043 144.489 170.903 146.07 170.32C149.555 173.749 152.111 176.864 153.017 179.271C153.16 179.652 153.483 179.936 153.879 180.031C153.973 180.053 154.069 180.064 154.164 180.064C154.467 180.064 154.763 179.952 154.992 179.742C155.558 179.223 168.902 166.971 171.57 161.959C172.265 160.652 174.15 159.685 176.537 158.459C181.492 155.916 188.979 152.073 192.861 140.579L190.539 139.796C186.975 150.349 180.295 153.778 175.418 156.282C172.759 157.646 170.463 158.825 169.407 160.809C167.378 164.621 157.941 173.633 154.551 176.808C147.993 165.119 115.953 143.319 108.214 138.161C110.67 136.671 114.43 134.302 115.281 133.283C115.511 133.006 115.736 132.681 115.997 132.304C117.031 130.808 118.594 128.546 122.355 126.745C122.585 126.635 122.775 126.456 122.899 126.233C122.947 126.145 127.81 117.405 132.502 114.182C135.504 112.12 137.114 107.549 138.671 103.129C139.86 99.7537 141.09 96.2635 142.72 94.8854L142.634 94.7835C147.154 92.6109 149.846 89.7278 150.751 88.1779C151.108 87.5661 151.645 86.6907 152.245 85.7125C153.466 83.7202 154.987 81.2405 155.774 79.7023C155.82 79.6138 155.848 79.5294 155.886 79.4426C156.781 79.1636 161.664 77.7293 165.376 78.4258C168.427 78.9972 185.179 90.498 195.738 98.1189C201.119 103.184 212.265 124.376 218.675 140.028C226.483 159.092 235.72 227.767 237.134 238.53C237.248 239.397 237.312 239.897 237.32 239.956L239.75 239.646C239.335 236.403 229.501 159.997 220.943 139.101C215.291 125.3 203.638 102.108 197.351 96.2751ZM104.561 61.5053C104.347 60.2231 101.511 52.9591 96.2923 49.3183C93.8248 47.5974 91.226 46.9782 88.568 47.4808C85.8736 47.9898 83.968 49.254 82.9042 51.2391C80.7711 55.2191 82.9966 60.5724 83.0923 60.7984L85.3492 59.845C85.3304 59.8002 83.485 55.3303 85.0675 52.3886C85.7745 51.0741 87.0687 50.2558 89.0232 49.8867C91.0079 49.5113 92.9828 49.9955 94.8898 51.3261C99.3117 54.411 101.995 61.0169 102.144 61.9079C102.744 65.4973 102.927 73.1304 101.124 74.3164C100.626 74.6433 99.7831 74.2365 99.1635 73.8382L97.8373 75.8968C98.9739 76.6278 99.9256 76.8852 100.703 76.8852C101.451 76.8852 102.038 76.6461 102.471 76.3612C103.299 75.8164 103.872 74.8634 104.265 73.6987C103.568 77.996 103.413 81.8242 103.382 82.8846C102.569 84.533 97.1437 95.1096 85.3153 108.982C84.3487 107.639 82.9492 106.221 82.5883 105.863C82.3526 105.629 82.0353 105.499 81.6994 105.507C81.3671 105.514 81.0519 105.656 80.8257 105.899C79.2346 107.617 77.4111 108.511 75.9384 108.283C75.1541 108.163 74.5656 107.732 74.2366 107.038C73.2603 104.979 69.8798 97.0856 68.4717 93.7876C67.9845 92.6463 67.1213 91.6782 66.0413 91.0616L63.6148 89.6761C62.2504 88.8963 60.6951 88.5852 59.1192 88.7786C56.7163 89.0708 50.1286 88.4068 40.8384 75.9373C34.5949 67.5567 35.5918 52.1497 43.2628 38.4699C51.9092 23.0506 65.7752 14.6345 80.3662 15.9612C108.97 18.5597 121.391 39.8909 123.98 45.0247C122.637 45.3795 121.754 45.934 121.364 46.6798C121.022 47.3188 118.151 50.1886 115.724 52.4495C115.532 52.6145 110.985 56.573 107.333 63.3974C106.265 65.3915 105.485 67.8449 104.915 70.3368C105.294 66.1877 104.573 61.5797 104.561 61.5053ZM105.332 137.034C105.084 137.156 104.094 137.649 102.615 138.413C105.26 130.431 112.973 117.036 118.731 107.58C119.671 108.254 121.158 109.088 122.492 108.837C123.815 108.68 129.337 110.507 131.154 112.134C131.14 112.144 131.128 112.155 131.114 112.165C126.446 115.371 121.932 122.982 120.945 124.71C116.847 126.766 115.06 129.351 113.981 130.912C113.754 131.24 113.558 131.524 113.399 131.715C112.835 132.391 108.862 134.945 105.332 137.034ZM136.36 102.316C135.313 105.288 134.239 108.33 132.815 110.378C130.011 107.837 123.562 106.142 122.048 106.429C121.656 106.505 120.769 106.04 120.016 105.481C122.418 101.58 124.331 98.5934 125.139 97.3408C130.528 97.9768 135.059 97.4171 138.751 96.2935C137.867 98.04 137.126 100.144 136.36 102.316ZM153.943 73.1405C152.937 74.4176 153.303 75.6729 153.571 76.5895C153.813 77.4197 153.934 77.9221 153.593 78.5872C152.848 80.0418 151.355 82.4767 150.155 84.4334C149.545 85.4295 148.998 86.321 148.634 86.9442C148.574 87.0476 141.837 97.1709 124.696 94.8164C124.227 94.7504 123.763 94.9631 123.504 95.3598C122.633 96.692 102.58 127.471 99.6186 139.989C92.654 143.715 81.4168 150.162 77.5864 154.862L79.4862 156.408C84.2259 150.593 102.242 141.332 105.833 139.522C109.67 142.065 131.386 156.62 144.103 168.441C141.18 169.55 134.465 172.218 131.339 174.45C128.009 176.826 86.3191 191.227 73.0982 193.074C60.0691 194.891 50.4767 188.168 48.4564 185.511C46.0386 182.332 47.8373 174.543 53.2682 164.676C54.4445 162.539 55.7814 159.966 57.3295 156.987C63.6576 144.81 73.2203 126.409 85.0001 113.083C99.6447 96.5168 105.47 84.2129 105.71 83.6973C105.783 83.5422 105.822 83.3734 105.825 83.2018C105.827 83.0799 106.089 70.9129 109.493 64.5523C112.92 58.1512 117.28 54.3409 117.358 54.2724C118.638 53.0811 122.867 49.0945 123.504 47.8626C123.962 47.3515 126.689 46.908 127.348 47.1997C127.738 47.4815 128.011 48.3046 128.035 48.6441C127.784 49.2729 127.348 50.7879 127.093 51.6962C126.965 52.1546 127.116 52.6454 127.478 52.955C127.84 53.2649 128.35 53.3361 128.784 53.1385C129.476 52.8235 131.136 52.3671 131.856 52.9666L132.226 53.2724C133.506 54.3262 134.328 55.0593 134.102 55.6236C133.925 56.0653 134.021 56.5689 134.347 56.9158C134.673 57.2625 135.172 57.3887 135.624 57.2401C136.37 56.9947 138.171 56.6451 138.976 57.1278C140.059 57.7769 140.961 59.3588 140.591 61.1266C140.502 61.5516 140.646 61.9912 140.968 62.2832C141.289 62.5749 141.743 62.6742 142.157 62.5453C143.116 62.2461 144.819 62.0142 145.428 62.4646C146.241 63.0666 147.017 64.1643 147.404 64.788C147.257 66.7824 147.024 69.0469 146.874 69.4898C146.539 70.4381 146.234 72.0906 146.2 72.2759C146.096 72.8432 146.403 73.4053 146.936 73.6259C147.469 73.8462 148.084 73.6663 148.412 73.1917C149.682 71.3593 151.47 69.1563 152.145 68.7932C153.04 68.3114 153.876 68.39 154.176 68.6363C154.543 69.283 154.758 72.1059 153.943 73.1405Z" fill="#34539B"/>
    <path opacity="0.2" d="M133.738 125.912C161.661 125.912 184.298 103.276 184.298 75.3525C184.298 47.4292 161.661 24.793 133.738 24.793C105.815 24.793 83.1787 47.4292 83.1787 75.3525C83.1787 103.276 105.815 125.912 133.738 125.912Z" fill="#0075FF"/>
</svg>
