<svg width="272" height="273" viewBox="0 0 272 273" fill="none" xmlns="http://www.w3.org/2000/svg">
    <path d="M136 237C191.228 237 236 192.228 236 137C236 81.7715 191.228 37 136 37C80.7715 37 36 81.7715 36 137C36 192.228 80.7715 237 136 237Z" fill="#F1F5FF"/>
    <path d="M62.4214 223.465C61.2856 223.465 60.2629 223.276 59.3652 222.991C59.8399 227.277 61.4781 241.978 62.4401 249.529C63.3513 249.826 64.773 250.275 66.6206 250.815C65.0861 240.582 63.7831 229.743 63.0627 223.445C62.8452 223.458 62.6312 223.465 62.4214 223.465Z" fill="white"/>
    <path d="M106.155 221.39C107.934 221.198 109.851 220.493 111.075 219.897C109.887 219.549 108.089 219.148 105.889 218.938C105.953 219.551 106.043 220.382 106.155 221.39Z" fill="white"/>
    <path d="M94.3711 220.007C85.9047 222.503 71.5702 221.145 64.8301 219.425C65.3501 224.16 66.971 238.458 68.9508 251.479C77.9311 253.972 93.6741 257.616 110.111 258.016C106.628 246.474 104.147 223.573 103.657 218.807C100.908 218.741 97.7237 219.019 94.3711 220.007Z" fill="white"/>
    <path d="M108.312 112.575C106.171 114.231 100.093 116.2 93.0546 118.48C84.3795 121.29 74.5471 124.476 71.6463 127.285C70.1077 128.774 67.7993 132.498 65.3076 141.729C65.439 141.691 65.5708 141.652 65.6944 141.628C67.5719 141.262 70.3086 142.157 74.0622 144.369C76.4015 145.747 84.5825 148.71 85.7485 148.936C86.2997 149.042 87.5582 149.454 89.5655 150.117C91.723 150.829 95.3343 152.022 96.0341 152.031C96.2624 152.014 96.5601 152.023 96.9369 152.036C99.5169 152.122 101.043 151.856 101.223 150.242C101.392 148.72 100.834 146.383 100.341 144.32C99.7236 141.735 99.1902 139.502 99.7312 138.08C100.568 135.877 103.627 131.172 106.248 130.408C107.585 130.018 108.946 130.181 109.981 130.858C110.762 131.367 111.267 132.104 111.368 132.88C111.449 133.499 111.246 134.439 110.908 135.921C110.733 136.688 110.446 137.948 110.454 138.365C110.568 138.637 110.721 139.117 111.024 140.071C111.667 142.099 113.173 146.848 114.189 147.919C114.391 148.132 114.6 148.348 114.812 148.566C116.349 150.152 118.09 151.95 118.612 154.128C119.247 156.773 122.546 167.553 127.088 171.975C132.013 176.768 157.333 192.456 172.074 196.04C174.429 196.613 176.722 197.151 178.92 197.668C179.059 197.7 179.193 197.732 179.332 197.764C181.977 187.279 183.184 166.858 183.196 166.647L185.397 166.774C185.373 167.192 185.089 171.992 184.504 178.053C186.498 177.552 190.118 176.957 195.226 177.374C199.069 177.687 201.672 179.574 203.378 181.57C203.264 181.11 203.132 180.657 202.978 180.229C201.853 177.088 203.348 171.678 203.671 170.587C204.083 161.776 201.92 153.102 200.625 147.909C200.14 145.964 199.789 144.558 199.691 143.649C199.518 142.053 197.428 140.128 193.478 137.927L193.148 137.742C192.566 137.41 187.196 134.592 182.002 131.867C176.426 128.942 170.66 125.917 169.209 125.125C167.149 124.002 163.911 121.029 162.053 119.245C160.254 125.644 154.627 133.03 148.691 136.492C145.389 138.418 142.293 138.925 139.74 137.956C119.546 130.298 114.594 113.94 113.655 109.857C112.779 109.981 110.987 110.506 108.312 112.575Z" fill="white"/>
    <path d="M57.8574 219.846C58.8992 220.546 60.6043 221.354 62.8135 221.248C62.6956 220.195 62.6055 219.374 62.5458 218.823C61.0122 218.631 59.1771 219.241 57.8574 219.846Z" fill="white"/>
    <path d="M198.769 242.512C204.595 239.822 207.469 231.892 207.828 230.841C207.906 229.742 208.428 222.019 208.507 211.33C208.591 199.98 204.176 187.502 204.132 187.377L204.141 187.374C204.132 187.35 204.116 187.332 204.109 187.308C204.025 187.017 201.954 180.134 195.047 179.57C189.412 179.111 185.717 179.969 184.268 180.406C183.632 186.482 182.715 193.353 181.478 198.268C190.09 200.302 196.845 202.026 200.208 204.381L198.944 206.187C195.601 203.847 187.637 201.977 178.417 199.813C176.212 199.295 173.914 198.756 171.553 198.182C156.196 194.448 130.74 178.605 125.551 173.553C119.877 168.031 116.5 154.773 116.469 154.642C116.087 153.049 114.634 151.549 113.229 150.099C113.012 149.875 112.797 149.653 112.59 149.435C111.331 148.108 110.088 144.41 108.923 140.736C108.719 140.093 108.488 139.365 108.419 139.211C108.092 138.557 108.252 137.654 108.759 135.43C108.936 134.65 109.205 133.471 109.181 133.156C109.176 133.118 109.09 132.907 108.776 132.702C108.542 132.549 107.885 132.225 106.865 132.523C105.32 132.973 102.573 136.806 101.792 138.862C101.493 139.649 102.043 141.955 102.486 143.807C103.046 146.154 103.625 148.58 103.414 150.484C102.974 154.443 98.692 154.301 96.864 154.239C96.5765 154.229 96.3047 154.221 96.1695 154.23C95.333 154.285 93.3376 153.684 88.8746 152.209C87.3485 151.705 85.7708 151.184 85.3299 151.099C83.8383 150.81 75.4329 147.734 72.9428 146.267C68.7172 143.777 66.8542 143.645 66.1178 143.79C65.2721 143.956 64.0642 144.731 63.4904 145.843C63.0754 146.647 63.0619 147.491 63.4511 148.352C64.3075 150.246 71.1486 153.608 75.7327 155.389L74.9339 157.445C73.4064 156.851 67.1442 154.331 63.6429 151.654C61.9967 151.97 60.6918 153.551 60.0292 154.528C59.9129 154.699 59.8994 154.766 59.8994 154.767C59.9113 154.934 60.3053 155.534 60.6525 156.064C60.9846 156.57 61.3975 157.199 61.882 158.018C63.0312 159.961 68.0142 161.814 70.8849 162.525L70.3552 164.666C69.6692 164.496 64.653 163.201 61.6856 160.941C60.938 161.802 59.7329 163.235 59.2201 164.039C59.0048 164.512 59.0064 164.959 59.2234 165.442C60.2719 167.775 65.8217 170.096 69.0736 171.01L68.4766 173.133C67.8894 172.968 64.5006 171.975 61.5355 170.313C59.3176 172.093 58.9354 173.964 58.874 174.643C59.7541 175.937 64.2408 181.97 74.7671 187.53C85.9328 193.427 99.1145 194.598 107.009 193.808C112.024 193.31 115.283 196.621 117.672 199.04C118.815 200.197 119.895 201.291 120.753 201.546C124.057 202.528 128.612 205.352 128.805 205.472C128.894 205.528 128.975 205.596 129.045 205.674C129.201 205.849 145.161 223.39 186.788 241.498C187.291 241.66 187.81 241.909 188.408 242.195C190.696 243.291 193.827 244.792 198.769 242.512Z" fill="white"/>
    <path d="M140.521 135.894C142.934 136.809 145.692 135.689 147.58 134.587C153.546 131.107 159.378 123.006 160.315 116.898C160.324 116.844 160.346 116.795 160.361 116.744L160.351 116.74C161.2 113.983 162.228 111.165 162.899 109.387C161.724 109.582 160.553 109.677 159.397 109.677C145.992 109.677 134.277 97.6309 133.74 97.07L135.331 95.5439C135.467 95.686 149.105 109.7 162.876 107.159C176.565 104.633 190.864 80.4653 191.208 59.2714C191.552 38.1107 187.493 29.1199 173.833 20.7912C160.537 12.6838 138.666 20.2212 130.035 28.7636C123.454 35.2775 121.191 47.9771 120.57 52.5704C123.466 51.954 126.839 52.9371 129.069 54.4933L127.807 56.3015C125.689 54.8231 122.155 53.9225 119.78 55.1638C118.823 55.6633 117.829 57.3869 118.522 62.7601L118.547 62.9582C118.572 63.1542 118.59 63.3727 118.611 63.6187C118.731 65.0739 118.933 67.5092 121.454 72.2655C122.338 73.9315 123.379 74.9308 124.55 75.2355C125.913 75.5919 127.05 74.8902 127.061 74.883L128.257 76.7353C128.195 76.7756 126.988 77.5395 125.328 77.5395C125.232 77.5395 125.13 77.5268 125.032 77.5215C125.086 78.2008 125.202 79.2284 125.332 80.3738C125.89 85.2809 126.733 92.6964 125.747 96.7416C123.299 106.775 116.48 110.329 116.096 110.522C117.503 115.552 122.848 129.192 140.521 135.894Z" fill="white"/>
    <path d="M107.228 196.003C104.26 196.3 88.694 197.38 73.7375 189.48C66.9886 185.916 62.6325 182.191 60.0301 179.484C58.6496 192.035 58.8188 208.38 58.8339 209.608C59.1515 211.857 58.2327 214.455 57.4931 216.547C57.358 216.93 57.2019 217.371 57.0684 217.782C58.8081 217 61.5324 216.118 63.8885 216.861C69.2741 218.657 85.0751 220.449 93.7469 217.893C101.264 215.676 107.874 216.717 111.316 217.683C110.603 215.684 109.643 212.761 109.316 210.689C108.844 207.7 109.218 198.429 109.323 196.08C108.668 195.962 107.972 195.929 107.228 196.003Z" fill="white"/>
    <path d="M187.454 244.184C186.911 243.924 186.442 243.699 186.076 243.587C186.037 243.574 185.998 243.56 185.96 243.544C145.16 225.804 129.101 209.002 127.51 207.266C126.756 206.806 122.853 204.472 120.123 203.66C118.723 203.244 117.508 202.014 116.102 200.59C114.744 199.215 113.279 197.737 111.497 196.83C111.372 199.85 111.093 207.809 111.493 210.345C111.938 213.163 113.757 217.967 114.13 218.934C114.334 219.226 114.408 219.591 114.313 219.96C113.915 221.508 109.33 223.227 106.403 223.581C107.44 232.484 109.653 249.341 112.429 258.051C112.445 258.051 112.461 258.052 112.477 258.052C136.565 258.168 184.16 255.398 191.372 254.97C190.324 251.51 189.508 246.529 189.269 244.992C188.585 244.723 187.979 244.436 187.454 244.184Z" fill="white"/>
    <path d="M55.6136 220.43C55.8124 220.638 56.5192 221.331 57.6525 222.001L57.5177 222.016C57.5391 222.21 59.6549 241.516 60.7683 250.21L62.9446 249.929C62.9277 249.796 62.9099 249.654 62.8925 249.518C61.935 241.966 60.3044 227.266 59.832 222.981C60.7255 223.265 61.7434 223.455 62.8739 223.455C63.0827 223.455 63.2957 223.448 63.5123 223.434C64.2293 229.732 65.5262 240.57 67.0536 250.803C67.2062 251.826 67.3612 252.842 67.5181 253.848L69.6859 253.506C69.5806 252.831 69.4764 252.15 69.373 251.466C67.4024 238.446 65.789 224.149 65.2714 219.414C71.9802 221.134 86.248 222.492 94.675 219.996C98.0121 219.008 101.181 218.73 103.918 218.796C104.406 223.562 106.875 246.461 110.342 258.003C110.509 258.558 110.678 259.09 110.849 259.589L112.924 258.871C112.832 258.603 112.741 258.323 112.65 258.038C109.888 249.327 107.684 232.472 106.653 223.569C109.566 223.216 114.13 221.497 114.526 219.949C114.62 219.58 114.547 219.214 114.344 218.923C113.972 217.956 112.161 213.152 111.719 210.335C111.32 207.799 111.599 199.84 111.723 196.82C113.496 197.727 114.955 199.205 116.306 200.58C117.706 202.004 118.915 203.234 120.309 203.65C123.026 204.462 126.911 206.796 127.661 207.255C129.245 208.992 145.229 225.793 185.84 243.531C185.877 243.548 185.916 243.562 185.955 243.574C186.32 243.687 186.786 243.911 187.326 244.171C187.849 244.423 188.452 244.711 189.133 244.979C189.371 246.516 190.183 251.496 191.226 254.956C191.439 255.661 191.66 256.304 191.889 256.841L193.906 255.972C192.846 253.486 191.892 248.231 191.467 245.667C192.153 245.802 192.888 245.89 193.686 245.89C195.368 245.89 197.304 245.523 199.507 244.501C206.581 241.221 209.61 231.778 209.736 231.378C209.761 231.297 209.777 231.214 209.783 231.129C209.789 231.048 210.389 222.915 210.475 211.336C210.557 200.178 206.602 188.382 206.051 186.797C206.027 185.953 205.865 182.338 204.843 179.476C204.052 177.257 205.126 172.67 205.606 171.089C205.633 171.002 205.648 170.912 205.653 170.822C206.107 161.639 203.89 152.706 202.565 147.369C202.121 145.578 201.769 144.164 201.688 143.406C201.346 140.233 197.359 137.657 194.39 135.995L194.082 135.821C193.469 135.469 188.344 132.768 182.919 129.908C177.376 126.987 171.645 123.967 170.217 123.184C168.011 121.975 163.998 118.09 162.645 116.75C163.74 113.272 165.056 109.835 165.485 108.732C171.936 106.589 178.52 100.382 183.851 91.2961C189.66 81.3963 193.089 69.7363 193.258 59.3065C193.611 37.45 189.153 27.6341 174.911 18.9103C168.376 14.9073 159.344 14.0354 149.48 16.4565C141.253 18.4752 133.263 22.591 128.63 27.1976C120.731 35.0524 118.745 50.4469 118.418 53.5537C115.597 55.6817 116.298 61.1668 116.538 63.0409L116.562 63.2306C116.583 63.3994 116.598 63.5875 116.616 63.799C116.75 65.4229 116.973 68.1406 119.695 73.2965C120.601 75.0126 121.7 76.2135 122.968 76.8921C122.965 77.5453 123.104 78.7777 123.313 80.6205C123.818 85.083 124.663 92.5521 123.774 96.2154C121.921 103.847 117.231 107.35 115.758 108.285C115.621 107.995 115.362 107.773 115.043 107.69C114.751 107.616 112.058 107.058 107.209 110.826C105.381 112.247 99.2163 114.253 92.6894 116.377C83.3946 119.402 73.7837 122.53 70.5299 125.695C67.8124 128.338 65.3826 134.058 63.1023 143.181L63.2251 143.212C62.7444 143.665 62.3099 144.2 61.9883 144.825C61.2624 146.238 61.2318 147.77 61.9 149.254C62.0012 149.479 62.1417 149.707 62.312 149.936C60.6122 150.745 59.3668 152.263 58.6778 153.283C57.6603 154.789 58.3397 155.828 59.2795 157.267C59.5972 157.754 59.9926 158.359 60.4486 159.134C60.4938 159.21 60.5449 159.286 60.5957 159.361C59.9337 160.123 58.4326 161.884 57.7921 162.921C57.7723 162.953 57.7536 162.986 57.7375 163.021C57.2167 164.098 57.2001 165.245 57.6893 166.339C58.1399 167.346 59.0071 168.257 60.0689 169.061C57.0116 171.86 57.1333 174.872 57.1406 175.009C57.1508 175.187 57.2033 175.359 57.2939 175.511C57.3445 175.597 57.7335 176.238 58.548 177.26C56.8542 190.568 57.1079 209.508 57.1106 209.701C57.1117 209.752 57.116 209.803 57.1235 209.854C57.3887 211.572 56.5636 213.917 55.9003 215.801C55.1362 217.971 54.5803 219.561 55.6136 220.43ZM58.3315 219.834C59.645 219.228 61.4716 218.619 62.998 218.811C63.0575 219.362 63.1471 220.183 63.2644 221.236C61.0656 221.342 59.3683 220.534 58.3315 219.834ZM106.404 221.38C106.292 220.371 106.203 219.541 106.139 218.928C108.329 219.138 110.119 219.538 111.301 219.887C110.083 220.483 108.175 221.187 106.404 221.38ZM109.551 210.679C109.877 212.75 110.832 215.673 111.542 217.672C108.116 216.706 101.537 215.665 94.0545 217.881C85.423 220.438 69.6955 218.646 64.335 216.85C61.9898 216.107 59.2782 216.989 57.5466 217.771C57.6795 217.36 57.8348 216.919 57.9693 216.536C58.7055 214.444 59.6201 211.846 59.3039 209.597C59.289 208.369 59.1204 192.026 60.4945 179.476C63.0849 182.182 67.4206 185.907 74.1382 189.471C89.025 197.37 104.519 196.29 107.473 195.993C108.213 195.919 108.906 195.952 109.558 196.07C109.454 198.419 109.082 207.689 109.551 210.679ZM186.662 241.486C145.229 223.38 129.343 205.84 129.188 205.665C129.118 205.586 129.038 205.518 128.949 205.463C128.757 205.343 124.224 202.519 120.934 201.537C120.08 201.282 119.006 200.188 117.868 199.031C115.49 196.612 112.246 193.302 107.255 193.799C99.3968 194.589 86.2765 193.418 75.1626 187.522C64.6853 181.962 60.2196 175.929 59.3435 174.635C59.4046 173.957 59.785 172.085 61.9926 170.306C64.944 171.968 68.317 172.96 68.9014 173.125L69.4956 171.003C66.2589 170.089 60.735 167.768 59.6913 165.435C59.4753 164.952 59.4737 164.505 59.688 164.033C60.1984 163.228 61.3979 161.795 62.142 160.934C65.0956 163.194 70.0885 164.489 70.7713 164.659L71.2985 162.519C68.4412 161.807 63.4814 159.954 62.3375 158.011C61.8553 157.193 61.4444 156.563 61.1138 156.058C60.7682 155.528 60.376 154.928 60.3642 154.76C60.3642 154.76 60.3776 154.693 60.4933 154.521C61.1529 153.545 62.4517 151.964 64.0902 151.648C67.5753 154.325 73.8084 156.844 75.3287 157.438L76.1238 155.383C71.5611 153.602 64.7518 150.24 63.8993 148.346C63.5119 147.485 63.5254 146.641 63.9385 145.837C64.5096 144.726 65.7119 143.95 66.5536 143.785C67.2866 143.64 69.1409 143.771 73.3468 146.262C75.8254 147.729 84.1917 150.805 85.6764 151.093C86.1152 151.178 87.6856 151.699 89.2046 152.203C93.6468 153.677 95.6329 154.279 96.4655 154.224C96.6 154.215 96.8706 154.223 97.1567 154.233C98.9763 154.295 103.238 154.436 103.676 150.478C103.887 148.574 103.31 146.148 102.752 143.801C102.312 141.949 101.764 139.644 102.062 138.857C102.839 136.801 105.573 132.969 107.111 132.518C108.127 132.221 108.78 132.544 109.013 132.697C109.326 132.903 109.412 133.114 109.417 133.151C109.441 133.466 109.173 134.645 108.996 135.425C108.491 137.648 108.332 138.551 108.658 139.206C108.727 139.36 108.956 140.088 109.159 140.731C110.319 144.404 111.556 148.102 112.809 149.429C113.015 149.648 113.229 149.869 113.446 150.093C114.844 151.544 116.29 153.043 116.671 154.636C116.702 154.767 120.063 168.024 125.71 173.546C130.875 178.597 156.213 194.439 171.498 198.173C173.849 198.747 176.136 199.286 178.33 199.804C187.508 201.968 195.435 203.838 198.762 206.177L200.02 204.371C196.673 202.017 189.949 200.293 181.377 198.259C182.609 193.345 183.521 186.474 184.154 180.398C185.597 179.961 189.275 179.104 194.883 179.563C201.758 180.126 203.819 187.009 203.903 187.299C203.91 187.324 203.926 187.342 203.934 187.365L203.926 187.369C203.969 187.493 208.364 199.971 208.28 211.32C208.202 222.009 207.682 229.731 207.604 230.83C207.247 231.881 204.387 239.811 198.588 242.5C193.668 244.78 190.552 243.279 188.275 242.184C187.68 241.897 187.163 241.648 186.662 241.486ZM125.906 96.7382C126.887 92.6932 126.048 85.2782 125.493 80.3715C125.364 79.2261 125.248 78.1986 125.194 77.5192C125.292 77.5246 125.394 77.5373 125.489 77.5373C127.141 77.5373 128.343 76.7735 128.405 76.7331L127.214 74.8809C127.203 74.8882 126.071 75.5898 124.714 75.2335C123.55 74.9288 122.513 73.9296 121.634 72.2636C119.123 67.5076 118.923 65.0725 118.803 63.6174C118.783 63.3714 118.764 63.1528 118.74 62.9569L118.715 62.7589C118.025 57.386 119.015 55.6625 119.967 55.163C122.331 53.9218 125.849 54.8223 127.956 56.3006L129.212 54.4926C126.993 52.9364 123.636 51.9534 120.753 52.5698C121.372 47.9768 123.624 35.278 130.174 28.7645C138.765 20.2226 160.534 12.6857 173.769 20.7926C187.364 29.1208 191.405 38.111 191.063 59.2704C190.72 80.4629 176.488 104.629 162.863 107.155C149.156 109.696 135.581 95.6826 135.446 95.5406L133.862 97.0665C134.397 97.6274 146.057 109.673 159.4 109.673C160.55 109.673 161.715 109.578 162.886 109.383C162.217 111.16 161.194 113.978 160.35 116.736L160.36 116.739C160.344 116.79 160.322 116.839 160.314 116.893C159.381 123.001 153.576 131.101 147.638 134.581C145.758 135.683 143.014 136.803 140.611 135.888C123.021 129.186 117.7 115.548 116.3 110.518C116.683 110.324 123.47 106.77 125.906 96.7382ZM139.833 137.95C142.374 138.918 145.456 138.412 148.743 136.486C154.651 133.024 160.252 125.638 162.043 119.24C163.892 121.023 167.115 123.996 169.165 125.12C170.61 125.911 176.349 128.936 181.899 131.861C187.069 134.586 192.414 137.404 192.993 137.736L193.322 137.921C197.253 140.121 199.334 142.046 199.506 143.643C199.603 144.551 199.953 145.957 200.435 147.902C201.724 153.095 203.877 161.768 203.467 170.579C203.145 171.669 201.657 177.079 202.777 180.22C202.931 180.648 203.062 181.101 203.175 181.561C201.477 179.564 198.886 177.678 195.061 177.365C189.977 176.948 186.374 177.543 184.389 178.044C184.972 171.984 185.254 167.183 185.278 166.766L183.087 166.638C183.075 166.85 181.874 187.269 179.241 197.754C179.103 197.721 178.97 197.69 178.831 197.657C176.643 197.141 174.361 196.603 172.017 196.03C157.345 192.446 132.142 176.759 127.241 171.966C122.719 167.545 119.436 156.766 118.804 154.121C118.284 151.942 116.551 150.145 115.022 148.559C114.811 148.341 114.602 148.125 114.401 147.912C113.39 146.841 111.891 142.092 111.251 140.064C110.95 139.11 110.797 138.631 110.684 138.358C110.676 137.942 110.962 136.682 111.136 135.915C111.472 134.433 111.674 133.492 111.594 132.874C111.493 132.098 110.99 131.361 110.213 130.852C109.183 130.175 107.828 130.012 106.497 130.402C103.888 131.166 100.844 135.871 100.011 138.073C99.4723 139.495 100.003 141.728 100.618 144.314C101.108 146.376 101.664 148.713 101.495 150.235C101.316 151.849 99.7975 152.115 97.2294 152.029C96.8544 152.016 96.5581 152.006 96.3309 152.024C95.6344 152.015 92.0398 150.822 89.8923 150.11C87.8944 149.447 86.6417 149.035 86.0931 148.929C84.9326 148.703 76.7897 145.74 74.4611 144.362C70.7251 142.151 68.0012 141.256 66.1323 141.621C66.0094 141.645 65.8781 141.684 65.7473 141.723C68.2274 132.492 70.5251 128.768 72.0565 127.279C74.9438 124.47 84.7305 121.285 93.3653 118.475C100.371 116.195 106.421 114.226 108.552 112.57C111.214 110.501 112.998 109.977 113.87 109.853C114.804 113.935 119.733 130.292 139.833 137.95Z" fill="#34539B"/>
    <path opacity="0.2" d="M97.1426 219.113C124.862 219.113 147.333 196.642 147.333 168.923C147.333 141.203 124.862 118.732 97.1426 118.732C69.4232 118.732 46.9521 141.203 46.9521 168.923C46.9521 196.642 69.4232 219.113 97.1426 219.113Z" fill="#0075FF"/>
</svg>
