<svg width="275" height="276" viewBox="0 0 275 276" fill="none" xmlns="http://www.w3.org/2000/svg">
    <path d="M138 238C193.228 238 238 193.228 238 138C238 82.7715 193.228 38 138 38C82.7715 38 38 82.7715 38 138C38 193.228 82.7715 238 138 238Z" fill="#F1F5FF"/>
    <path d="M188.038 228.074C186.666 228.642 185.296 228.895 183.947 228.895C176.976 228.895 170.541 222.246 167.071 218.66C166.294 217.858 165.414 216.948 165.132 216.785C162.641 215.343 136.006 181.878 133.197 178.162C132.109 176.723 130.638 174.525 129.08 172.199C126.413 168.216 121.95 161.551 120.637 161.087C118.446 160.762 112.091 158.839 108.411 156.702C108.372 156.679 108.334 156.654 108.298 156.626C105.456 154.463 102.192 152.07 101.651 151.811C101.639 151.805 101.341 151.646 100.901 151.389C99.6896 158.734 96.1507 179.397 94.2732 182.056C93.1327 183.856 87.0984 208.077 82.6926 225.763C79.7902 237.414 77.2209 247.727 75.9707 252.108C83.0219 253.735 138.989 266.058 187.592 259.133C187.716 256.302 188.198 246.022 188.722 244.031C189.064 242.732 188.525 234.148 188.038 228.074Z" fill="white"/>
    <path d="M207.506 201.46C205.644 198.103 202.731 194.85 198.164 193.126C190.87 190.373 187.193 189.868 185.49 189.86C187.525 191.659 189.278 193.687 190.446 195.978L188.497 196.971C185.258 190.62 176.658 186.26 170.967 183.375C169.347 182.554 167.948 181.845 167.024 181.255C163.016 178.697 141.599 157.054 140.689 156.134C139.868 155.294 132.706 147.824 132.977 142.862C133.186 139.029 131.416 131.441 130.939 129.482C128.975 128.251 126.902 124.65 126.271 123.493C125.868 122.755 122.472 114.641 121.896 113.166C121.421 111.948 120.488 111.947 119.789 112.162C119.205 112.379 117.988 115.103 118.096 117.225C118.193 119.151 119.747 122.341 120.793 123.228C122.266 124.477 123.419 128.502 123.635 129.296C123.725 129.628 123.654 129.984 123.442 130.256C123.23 130.528 122.899 130.689 122.557 130.677C120.977 130.645 116.298 129.215 114.975 128.459C113.853 127.818 106.264 120.373 103.072 117.22L101.919 118.039L101.137 119.64C101.832 121.281 102.615 123.054 102.8 123.346C103.112 123.787 104.691 126.469 105.214 127.36C105.778 127.856 106.462 128.494 107.317 129.335L105.783 130.895C104.616 129.748 103.142 128.419 102.537 128.01C101.829 128.224 100.418 128.858 100.127 129.309C99.7801 129.844 99.7596 130.363 99.7489 131.393C99.747 131.557 99.7452 131.727 99.7414 131.904C99.8055 132.273 100.885 133.261 101.962 133.916C102.221 134.074 102.404 134.333 102.465 134.63C102.526 134.927 102.462 135.237 102.286 135.485C102.139 135.691 101.384 136.68 100.282 136.825C99.8541 137.183 98.9155 138.726 98.5793 139.913C98.4663 140.312 99.3392 141.301 100.137 141.853C100.392 142.029 100.561 142.306 100.6 142.614C100.64 142.921 100.548 143.232 100.346 143.467C98.7382 145.337 98.6434 146.389 98.6658 147.044C99.1869 147.693 101.671 149.396 102.595 149.838C103.594 150.316 108.455 153.998 109.568 154.844C112.98 156.807 118.982 158.631 121.005 158.934C122.835 159.209 125.553 163 130.898 170.982C132.438 173.282 133.892 175.454 134.942 176.843C138.869 182.037 164.063 213.418 166.245 214.903C166.75 215.195 167.381 215.835 168.643 217.139C172.642 221.271 180.964 229.868 188.437 225.435C197.375 220.13 205.981 204.352 207.506 201.46Z" fill="white"/>
    <path d="M212.044 206.895C215.046 193.836 221.486 164.67 220.981 161.299C220.389 157.358 212.698 152.547 208.913 151.18C205.372 149.902 196.138 143.283 193.228 141.164C191.802 142.891 188.243 146.354 182.905 145.903C176.036 145.319 163.247 139.53 157.505 131.351C154.603 130.53 151.742 129.038 151.321 126.815C151.031 125.279 150.862 120.713 150.764 116.058C149.053 115.796 145.796 115.114 144.638 113.613C144.242 113.099 144.079 112.51 144.169 111.907C144.344 110.724 143.717 108.324 142.537 106.77C142.161 106.276 141.574 105.67 140.912 105.587C137.182 105.121 134.909 96.3934 134.909 95.0854C134.898 94.8973 134.415 94.3602 134.126 94.0392C133.268 93.0864 132.093 91.7819 132.221 89.8025C132.299 88.592 131.675 85.6303 131.02 82.9604C130.636 84.3843 130.127 86.105 129.473 88.038C127.678 93.3418 114.488 109.668 108.324 109.67C108.107 109.67 107.898 109.649 107.698 109.607C105.254 109.092 103.521 105.678 102.331 101.863C102.402 106.058 102.5 110.804 102.593 114.88C103.023 114.601 103.59 114.654 103.958 115.017C109.235 120.242 115.274 126.064 116.069 126.563C116.813 126.988 119.251 127.79 121.009 128.212C120.486 126.707 119.842 125.289 119.378 124.896C117.782 123.543 116.032 119.727 115.911 117.335C115.8 115.157 116.946 110.743 119.149 110.069C121.225 109.432 123.15 110.357 123.935 112.371C124.595 114.062 127.867 121.836 128.193 122.446C129.432 124.718 131.285 127.339 132.276 127.72C132.607 127.848 132.856 128.127 132.944 128.471C133.045 128.868 135.42 138.244 135.162 142.981C134.977 146.375 140.215 152.518 142.25 154.599C149.892 162.328 165.158 177.468 168.202 179.41C169.034 179.941 170.388 180.628 171.956 181.423C175.176 183.055 179.285 185.14 182.943 187.817C185.993 180.685 197.883 169.984 198.41 169.513L199.869 171.143C199.75 171.25 188.907 181.004 185.427 187.667H185.46C187.688 187.667 191.718 188.353 198.937 191.078C207.307 194.238 210.684 201.685 212.044 206.895Z" fill="white"/>
    <path d="M154.801 87.1992C154.45 87.7697 154.118 88.3087 153.869 88.7836C153.217 90.0299 152.817 99.2875 152.817 103.913C152.817 107.935 152.928 123.54 153.471 126.409C153.862 128.475 160.685 130.243 162.997 129.901C163.778 129.786 165.188 129.897 167.616 130.103C171.378 130.423 178.38 131.017 179.895 129.597L181.392 131.193C180.185 132.325 177.801 132.692 174.741 132.692C172.582 132.692 170.087 132.509 167.431 132.283C165.606 132.128 163.884 131.98 163.317 132.066C162.739 132.152 161.855 132.136 160.825 132.016C166.673 138.57 177.348 143.235 183.09 143.723C186.182 143.987 188.595 142.541 190.14 141.19L185.584 135.841C185.389 135.613 185.297 135.315 185.328 135.017L185.374 134.586C183.979 136.609 182.897 138.245 182.445 139.074L180.524 138.026C182.554 134.305 195.951 116.088 196.52 115.315C196.809 114.923 197.321 114.768 197.778 114.936C198.608 115.238 201.054 115.909 202.385 115.392C206.153 113.927 209.254 112.088 209.597 111.116C209.925 110.186 211.033 109.361 212.567 108.22C214.293 106.935 216.658 105.175 216.862 103.693C216.897 103.438 216.897 103.038 216.488 102.508C214.113 99.4311 207.2 103.202 207.131 103.241L206.055 101.335C206.34 101.174 211.904 98.0822 215.874 99.4806C217.623 94.1988 223.628 73.6802 216.129 61.0209C212.816 55.4299 207.218 52.038 199.49 50.9392C189.138 49.4678 180.137 51.5939 172.728 57.2574C161.404 65.9128 157.248 80.3895 157.013 82.2747C156.804 83.9467 155.74 85.6746 154.801 87.1992Z" fill="white"/>
    <path d="M208.127 215.112C209.486 214.481 210.433 213.477 210.758 212.345C210.699 211.53 210.349 207.89 208.684 203.896C207.357 206.322 204.826 210.701 201.599 215.155C203.768 216.027 206.159 216.026 208.127 215.112Z" fill="white"/>
    <path d="M102.231 90.4056C102.249 90.4665 102.276 90.5236 102.284 90.5883C103.051 97.245 105.377 106.882 108.148 107.466C109.503 107.752 113.222 105.49 118.479 99.7969C122.712 95.2119 126.547 89.8549 127.399 87.3362C128.985 82.6506 129.699 79.1911 129.849 78.4151C129.063 72.9417 127.181 63.8445 125.369 62.1778C125.158 61.9839 125.032 61.7149 125.017 61.4289C125.008 61.2561 124.107 44.107 121.983 39.6488L123.959 38.7081C126.102 43.2082 127.029 58.2072 127.181 60.9185C128.01 61.9165 128.752 63.7052 129.395 65.7673C133.564 69.9884 147.184 86.67 147.826 87.9539C148.156 88.615 148.165 90.2422 147.878 97.1189C147.773 99.65 147.642 102.787 147.729 103.428C147.941 103.904 149.201 105.684 150.648 107.629C150.631 105.444 150.629 103.965 150.629 103.912C150.629 103.776 150.705 90.1076 151.931 87.7678C152.215 87.2253 152.566 86.6551 152.938 86.0514C153.759 84.7165 154.691 83.2034 154.841 82.0024C154.849 81.938 155.472 78.9877 157.169 74.8522L157.098 74.8957C156.742 74.3196 148.34 60.7523 146.877 57.8268C144.911 53.8954 135.894 37.4076 133.423 35.0355C130.62 32.3449 119.915 20.24 119.461 19.7262C119.427 19.6877 119.396 19.6468 119.368 19.6038C119.337 19.5579 116.214 14.9139 112.805 15.3778C109.064 15.8831 102.045 22.0806 100.5 23.9567C99.6783 24.976 99.0284 32.8124 98.4549 39.7263C98.0962 44.053 97.6894 48.9575 97.1566 53.8686C95.6293 67.9402 102.179 90.1783 102.246 90.4014L102.231 90.4056Z" fill="white"/>
    <path d="M200.254 216.962C201.734 217.646 203.322 217.994 204.881 217.994C206.333 217.994 207.759 217.696 209.049 217.097C211.068 216.16 212.481 214.57 212.926 212.733C213.038 212.275 223.899 166 223.146 160.974C222.373 155.822 213.839 150.632 209.657 149.122C205.817 147.735 193.775 138.852 193.654 138.763C193.411 138.583 193.104 138.513 192.807 138.567C192.51 138.621 192.248 138.796 192.084 139.049C192.077 139.06 191.934 139.275 191.667 139.606L187.555 134.778L187.954 130.985L187.898 130.979C191.735 125.556 196.357 119.238 197.819 117.245C199.055 117.602 201.427 118.112 203.18 117.43C205.998 116.335 210.847 114.151 211.657 111.856C211.827 111.498 213.01 110.618 213.875 109.974C216.025 108.374 218.702 106.382 219.031 103.991C219.169 102.994 218.897 102.045 218.222 101.171C218.084 100.992 217.937 100.832 217.786 100.68C219.401 96.0357 226.346 73.9793 218.015 59.9094C214.348 53.7164 208.219 49.9693 199.799 48.7724C188.849 47.2155 179.293 49.4853 171.4 55.5182C164.833 60.5382 160.694 67.1462 158.196 72.5063C156.045 69.0181 150.004 59.1834 148.837 56.8484C148.053 55.2824 138.098 36.4882 134.94 33.4572C132.294 30.9171 121.943 19.2272 121.15 18.3309C120.681 17.6447 117.062 12.5963 112.514 13.2098C107.859 13.8388 100.239 20.8341 98.8132 22.566C97.6112 24.0254 97.1419 29.1078 96.2762 39.5457C95.9186 43.8596 95.5131 48.7492 94.9832 53.6328C93.4606 67.6615 99.4516 88.6407 100.102 90.8605C100.012 92.2275 99.9891 97.1311 100.44 116.405L100.425 116.416C100.276 116.522 100.156 116.663 100.076 116.828L98.9547 119.126C98.8166 119.409 98.8073 119.738 98.9288 120.028C99.553 121.519 100.653 124.095 101.005 124.594C101.105 124.735 101.431 125.27 101.835 125.944C100.806 126.265 98.9961 127.029 98.2907 128.119C97.5848 129.21 97.5738 130.259 97.5621 131.369C97.5605 131.525 97.5588 131.687 97.5551 131.856C97.5308 132.972 98.4809 134.029 99.427 134.802C97.8719 135.528 96.6547 138.682 96.4752 139.316C96.0604 140.782 97.1184 142.116 97.987 142.922C96.369 145.143 96.4499 146.602 96.4915 147.353C96.5379 148.19 97.6926 149.229 98.8975 150.095C97.0655 161.302 93.8189 178.907 92.4867 180.794C91.2709 182.516 86.9791 199.508 80.5701 225.234C77.2749 238.462 74.1621 250.956 73.3525 253.183L75.4087 253.931C75.5441 253.559 75.7344 252.939 75.9717 252.107C77.2218 247.727 79.7911 237.414 82.6935 225.763C87.0993 208.077 93.1336 183.855 94.2742 182.056C96.1516 179.397 99.6906 158.734 100.902 151.389C101.342 151.646 101.64 151.805 101.652 151.811C102.193 152.07 105.457 154.462 108.299 156.626C108.335 156.654 108.373 156.679 108.412 156.702C112.092 158.839 118.447 160.762 120.638 161.087C121.951 161.55 126.414 168.216 129.081 172.199C130.639 174.525 132.11 176.723 133.198 178.161C136.007 181.878 162.642 215.343 165.133 216.784C165.415 216.948 166.295 217.858 167.072 218.66C170.542 222.245 176.977 228.895 183.948 228.895C185.297 228.895 186.667 228.642 188.039 228.073C188.526 234.148 189.065 242.732 188.723 244.031C188.199 246.021 187.717 256.301 187.593 259.133C187.581 259.404 187.572 259.612 187.567 259.732L189.753 259.824C189.976 254.509 190.45 246.066 190.839 244.588C191.38 242.532 190.452 230.673 190.142 226.944C193.766 224.626 197.253 220.871 200.254 216.962ZM185.428 187.667C188.908 181.004 199.751 171.25 199.871 171.143L198.411 169.513C197.884 169.984 185.994 180.685 182.944 187.817C179.286 185.14 175.177 183.055 171.957 181.423C170.389 180.628 169.035 179.941 168.203 179.41C165.159 177.467 149.894 162.328 142.251 154.598C140.217 152.518 134.978 146.375 135.163 142.981C135.421 138.244 133.046 128.868 132.945 128.471C132.857 128.127 132.608 127.848 132.277 127.72C131.286 127.339 129.433 124.717 128.194 122.445C127.868 121.836 124.596 114.062 123.936 112.37C123.151 110.357 121.226 109.432 119.15 110.068C116.947 110.742 115.801 115.156 115.912 117.335C116.033 119.727 117.783 123.542 119.379 124.896C119.843 125.288 120.487 126.707 121.01 128.212C119.252 127.79 116.814 126.988 116.07 126.563C115.275 126.064 109.236 120.241 103.959 115.017C103.592 114.654 103.024 114.601 102.594 114.88C102.501 110.804 102.403 106.058 102.332 101.863C103.522 105.678 105.255 109.092 107.699 109.607C107.899 109.649 108.108 109.669 108.326 109.669C114.489 109.667 127.679 93.3416 129.474 88.0378C130.129 86.1048 130.637 84.3842 131.021 82.9603C131.676 85.6302 132.3 88.5918 132.222 89.8023C132.094 91.7818 133.269 93.0862 134.127 94.039C134.416 94.36 134.899 94.8971 134.91 95.0852C134.91 96.3932 137.183 105.12 140.913 105.586C141.576 105.67 142.162 106.276 142.538 106.77C143.718 108.323 144.345 110.724 144.17 111.907C144.08 112.509 144.243 113.099 144.639 113.613C145.798 115.114 149.054 115.796 150.765 116.058C150.863 120.713 151.032 125.279 151.323 126.815C151.743 129.038 154.604 130.53 157.506 131.351C163.248 139.53 176.037 145.319 182.906 145.903C188.244 146.354 191.804 142.891 193.229 141.164C196.139 143.283 205.374 149.902 208.914 151.18C212.699 152.547 220.391 157.358 220.982 161.299C221.487 164.67 215.047 193.835 212.045 206.895C210.685 201.684 207.308 194.238 198.939 191.078C191.719 188.353 187.689 187.667 185.461 187.667C185.451 187.667 185.439 187.667 185.428 187.667ZM97.1586 53.8689C97.6914 48.9577 98.0983 44.0532 98.4569 39.7265C99.0304 32.8126 99.6802 24.9763 100.502 23.957C102.047 22.0809 109.066 15.8834 112.807 15.3781C116.216 14.9141 119.339 19.5582 119.37 19.6041C119.398 19.6471 119.429 19.688 119.463 19.7264C119.918 20.2403 130.622 32.3453 133.425 35.0357C135.896 37.4078 144.913 53.8956 146.879 57.827C148.342 60.7526 156.744 74.3199 157.1 74.896L157.171 74.8525C155.474 78.9879 154.851 81.9382 154.843 82.0027C154.693 83.2036 153.761 84.7167 152.94 86.0517C152.568 86.6553 152.217 87.2256 151.933 87.7681C150.707 90.1078 150.631 103.776 150.631 103.913C150.631 103.965 150.633 105.444 150.65 107.629C149.203 105.685 147.943 103.904 147.731 103.428C147.644 102.788 147.775 99.6502 147.881 97.1192C148.167 90.2425 148.158 88.6153 147.828 87.9542C147.186 86.6702 133.566 69.9886 129.397 65.7675C128.755 63.7054 128.012 61.9168 127.183 60.9187C127.031 58.2074 126.104 43.2085 123.961 38.7084L121.986 39.6491C124.109 44.1073 125.01 61.2564 125.019 61.4292C125.034 61.7152 125.16 61.9842 125.371 62.1781C127.183 63.8448 129.065 72.9419 129.851 78.4154C129.701 79.1914 128.988 82.6508 127.402 87.3364C126.549 89.8552 122.714 95.2121 118.481 99.7971C113.224 105.491 109.505 107.752 108.15 107.466C105.38 106.882 103.053 97.2452 102.286 90.5886C102.279 90.5238 102.252 90.4667 102.233 90.4059L102.248 90.4016C102.181 90.1786 95.6313 67.9404 97.1586 53.8689ZM172.729 57.2568C180.138 51.5932 189.14 49.4671 199.491 50.9386C207.22 52.0374 212.818 55.4293 216.13 61.0202C223.63 73.6796 217.624 94.1981 215.876 99.48C211.906 98.0814 206.342 101.173 206.057 101.335L207.133 103.24C207.202 103.201 214.115 99.4304 216.49 102.507C216.899 103.037 216.899 103.438 216.864 103.693C216.66 105.174 214.295 106.934 212.568 108.219C211.035 109.36 209.927 110.185 209.599 111.115C209.255 112.087 206.155 113.926 202.387 115.391C201.056 115.908 198.609 115.238 197.78 114.935C197.323 114.768 196.81 114.922 196.522 115.314C195.953 116.088 182.555 134.304 180.526 138.026L182.446 139.073C182.899 138.244 183.981 136.609 185.375 134.585L185.33 135.016C185.299 135.314 185.391 135.612 185.585 135.84L190.142 141.189C188.596 142.54 186.183 143.986 183.092 143.723C177.35 143.235 166.675 138.57 160.827 132.015C161.857 132.135 162.74 132.151 163.319 132.065C163.885 131.98 165.608 132.128 167.433 132.283C170.089 132.508 172.584 132.691 174.743 132.691C177.803 132.691 180.187 132.324 181.393 131.193L179.897 129.597C178.382 131.016 171.38 130.422 167.618 130.102C165.19 129.896 163.779 129.785 162.998 129.901C160.687 130.243 153.863 128.474 153.473 126.408C152.93 123.54 152.819 107.934 152.819 103.913C152.819 99.2869 153.219 90.0292 153.871 88.7829C154.12 88.308 154.452 87.7691 154.803 87.1985C155.742 85.6739 156.805 83.9461 157.014 82.274C157.25 80.3889 161.406 65.9121 172.729 57.2568ZM144.28 105.447C143.377 104.258 142.307 103.556 141.184 103.415C139.543 103.21 137.098 96.6403 137.098 95.0852C137.098 94.0692 136.414 93.3095 135.753 92.5747C135.025 91.7662 134.337 91.0029 134.406 89.9433C134.577 87.2849 132.374 79.4132 132.033 78.2125C131.91 77.3515 131.402 73.9298 130.582 70.2803C136.046 76.4709 145.039 87.6413 145.839 88.8824C145.997 89.763 145.815 94.1208 145.694 97.0281C145.484 102.075 145.454 103.522 145.643 104.09C145.999 105.159 149.286 109.485 150.687 111.301C150.697 112.12 150.709 112.971 150.724 113.835C148.368 113.431 146.481 112.688 146.334 112.228C146.618 110.314 145.715 107.336 144.28 105.447ZM210.759 212.346C210.434 213.478 209.487 214.482 208.128 215.113C206.16 216.027 203.769 216.027 201.6 215.155C204.827 210.702 207.358 206.322 208.685 203.897C210.35 207.891 210.7 211.531 210.759 212.346ZM168.644 217.138C167.382 215.834 166.752 215.193 166.246 214.902C164.064 213.417 138.87 182.036 134.943 176.842C133.894 175.453 132.439 173.281 130.899 170.981C125.554 162.999 122.836 159.208 121.006 158.933C118.983 158.63 112.981 156.806 109.569 154.843C108.456 153.997 103.595 150.315 102.596 149.837C101.672 149.395 99.1882 147.692 98.6672 147.043C98.6447 146.388 98.7395 145.336 100.347 143.466C100.549 143.231 100.641 142.92 100.602 142.613C100.562 142.305 100.393 142.028 100.138 141.852C99.3405 141.3 98.4676 140.311 98.5806 139.912C98.9168 138.725 99.8554 137.182 100.283 136.824C101.386 136.679 102.141 135.69 102.287 135.484C102.463 135.236 102.528 134.926 102.466 134.629C102.405 134.332 102.222 134.073 101.963 133.915C100.886 133.26 99.8068 132.272 99.7427 131.903C99.7464 131.726 99.7483 131.556 99.7502 131.392C99.7609 130.362 99.7814 129.843 100.128 129.307C100.419 128.857 101.83 128.223 102.538 128.009C103.143 128.418 104.617 129.747 105.784 130.894L107.319 129.334C106.463 128.493 105.779 127.855 105.216 127.359C104.693 126.468 103.113 123.786 102.802 123.344C102.616 123.053 101.833 121.28 101.139 119.639L101.92 118.038L103.073 117.219C106.266 120.372 113.855 127.817 114.976 128.458C116.3 129.214 120.978 130.644 122.559 130.676C122.9 130.688 123.231 130.527 123.443 130.255C123.655 129.983 123.727 129.627 123.636 129.295C123.42 128.501 122.268 124.476 120.794 123.227C119.748 122.34 118.194 119.15 118.097 117.224C117.989 115.102 119.206 112.378 119.791 112.161C120.49 111.946 121.423 111.947 121.898 113.165C122.473 114.64 125.869 122.754 126.272 123.492C126.903 124.649 128.976 128.25 130.941 129.481C131.417 131.44 133.187 139.028 132.978 142.861C132.707 147.823 139.869 155.293 140.691 156.133C141.6 157.053 163.017 178.696 167.026 181.254C167.949 181.844 169.348 182.553 170.968 183.374C176.659 186.259 185.26 190.619 188.498 196.97L190.447 195.977C189.279 193.686 187.527 191.658 185.491 189.859C187.194 189.867 190.871 190.372 198.166 193.125C202.732 194.849 205.645 198.102 207.507 201.458C205.983 204.351 197.377 220.129 188.438 225.434C180.965 229.867 172.643 221.27 168.644 217.138Z" fill="#34539B"/>
    <path opacity="0.2" d="M111.309 116.283C139.335 116.283 162.054 93.5641 162.054 65.539C162.054 37.5138 139.335 14.7949 111.309 14.7949C83.2843 14.7949 60.5654 37.5138 60.5654 65.539C60.5654 93.5641 83.2843 116.283 111.309 116.283Z" fill="#0075FF"/>
</svg>
