<svg width="276" height="277" viewBox="0 0 276 277" fill="none" xmlns="http://www.w3.org/2000/svg">
    <path d="M137 239C192.228 239 237 194.228 237 139C237 83.7715 192.228 39 137 39C81.7715 39 37 83.7715 37 139C37 194.228 81.7715 239 137 239Z" fill="#F1F5FF"/>
    <path d="M158.621 160.619C156.467 160.396 154.619 159.361 153.227 158.581C152.873 158.383 152.547 158.2 152.25 158.051C151.391 157.621 150.461 156.537 149.014 154.804C147.621 153.134 145.888 151.056 144.498 150.313C142.052 149.005 138.05 143.127 138.266 139.417C138.355 137.892 139.125 136.77 140.434 136.254C140.46 136.244 140.488 136.236 140.515 136.227C140.591 136.175 140.676 136.134 140.771 136.114C140.847 136.099 140.921 136.091 140.997 136.077C141.521 135.94 142.11 135.863 142.747 135.839C147.232 135.446 151.245 136.757 153.962 138.033C154.928 138.351 155.682 138.622 156.095 138.775C156.701 138.735 158.245 138.658 160.107 138.72C158.206 132.869 151.418 113.248 144.089 107.272C143.925 107.137 143.799 106.96 143.726 106.76C143.719 106.742 143.586 106.382 143.343 105.775C141.911 106.03 140.199 106.505 138.258 107.044C133.858 108.267 128.323 109.806 122.257 109.806C119.626 109.806 116.896 109.517 114.114 108.786C101.788 105.553 90.7276 95.9507 90.263 95.5436L91.1992 94.4745C91.3105 94.5722 102.479 104.265 114.474 107.412C123.299 109.727 131.725 107.385 137.878 105.675C139.723 105.162 141.359 104.713 142.79 104.437C141.421 101.221 138.671 95.403 135.352 91.8213C135.178 91.6337 135.069 91.3946 135.042 91.1402C135.03 91.0218 133.913 80.3927 133.467 77.0248C131.599 77.5905 129.932 77.7828 128.543 77.7828C125.849 77.7828 124.191 77.0734 124.087 77.0274L124.658 75.7261C124.692 75.7411 128.176 77.2031 133.236 75.6122L133.344 75.9543C133.345 75.9335 133.34 75.9129 133.342 75.8923C133.351 75.8114 133.392 75.4597 133.454 74.9228L133.381 75.1247C129.036 73.5415 124.424 75.3592 124.378 75.3776L123.845 74.0602C124.049 73.9776 128.815 72.0955 133.596 73.7031C133.954 70.6195 134.601 65.0802 134.961 62.2008C133.027 62.5953 131.414 62.7295 130.135 62.7295C127.759 62.7295 126.52 62.2814 126.437 62.2501L126.932 60.9182C126.961 60.9287 129.76 61.8984 135.156 60.7049C135.165 60.6397 135.174 60.58 135.181 60.5323C135.249 60.0865 135.497 59.4169 136.007 58.065C137.448 54.2378 140.825 45.2746 138.169 41.1262C137.476 40.0449 136.391 38.7607 135.165 38.835C133.819 38.9064 132.414 40.5367 131.847 41.6717C131.01 43.3465 127.249 50.432 125.318 52.9837C124.687 53.8174 124.002 56.4931 123.34 59.0807C122.337 62.9998 121.095 67.8367 119.044 71.0433C120.098 76.6715 120.062 85.4352 120.06 85.8526L117.691 85.8391C117.692 85.7269 117.738 74.5653 116.3 69.6866C116.247 69.51 116.237 69.3238 116.27 69.1425C116.278 69.1006 116.471 68.0216 116.763 66.3639C109.707 65.8899 105.159 67.1839 105.112 67.1974L104.713 65.834C104.916 65.7739 109.622 64.4344 117.009 64.957C117.831 60.2454 119.101 52.7912 119.542 49.229C119.196 49.2608 118.841 49.2805 118.475 49.2805C114.12 49.2805 108.567 47.2151 108.284 47.1087L108.784 45.7788C108.858 45.8062 115.718 48.3559 119.769 47.7798C119.779 47.7597 119.784 47.7382 119.795 47.7187C119.874 47.5704 127.664 32.8192 124.468 25.5849C122.726 21.6403 119.818 21.043 118.24 21.0381C118.232 21.0381 118.225 21.0381 118.218 21.0381C116.163 21.0381 114.306 21.9752 113.626 22.9448C113.741 25.0252 113.42 27.6998 111.934 30.4665L111.369 31.5168C109.091 35.7496 104.851 43.6287 104.557 45.6137C104.453 46.3171 104.085 47.7277 103.576 49.6803C102.292 54.6021 100.145 62.8399 100.206 67.7663C100.292 74.6367 101.068 86.7824 101.076 86.9041L98.7126 87.0562C98.7055 86.9443 98.0547 76.7624 97.8755 69.7156C95.5676 70.2084 92.7763 70.329 90.6468 70.329C88.8274 70.329 87.4947 70.2437 87.3683 70.2353L87.462 68.8175C87.5294 68.8219 93.7572 69.218 97.845 68.2713C97.8424 68.1113 97.8397 67.9508 97.8378 67.7958C97.8242 66.7092 97.9118 65.4813 98.0646 64.1797C92.1389 64.777 86.7058 68.0269 86.6487 68.0616L85.9123 66.8465C86.1608 66.6957 91.8793 63.2686 98.2571 62.7331C98.9475 58.0548 100.342 52.6971 101.284 49.0828C101.737 47.3444 102.129 45.8433 102.214 45.2666C102.215 45.2581 102.218 45.247 102.22 45.2384C102.096 45.2398 101.968 45.2437 101.846 45.2437C94.8617 45.2437 91.5188 42.9412 91.3685 42.8351L92.1866 41.6732C92.2211 41.6975 95.6059 43.9762 102.626 43.8062C103.65 40.9575 106.348 35.8484 109.283 30.3945L109.847 29.3459C112.158 25.0437 111.111 21.1263 110.704 20.3128C110.379 19.6843 107.125 16.6302 103.476 18.0901C101.43 18.9086 100.072 21.3362 98.7595 23.6841C97.6013 25.7547 96.4041 27.8958 94.6394 29.1312C91.5075 31.3235 90.2649 35.2502 89.3462 38.7588C88.384 42.4316 83.4481 55.1382 81.5023 59.2152C79.8371 62.7042 80.1325 65.7603 80.7316 69.6974C81.3381 73.6836 83.7747 93.6682 83.8782 94.517C83.9309 94.9499 83.7415 95.3768 83.385 95.6281L82.054 96.5663C81.6889 96.8233 81.2113 96.8534 80.8172 96.6446C80.4231 96.4358 80.18 96.0233 80.1878 95.5775C80.2817 90.2183 78.2184 85.4891 76.2229 80.9154C75.7794 79.8988 75.3279 78.8588 74.9026 77.8194C70.8541 79.2866 64.3676 80.142 64.0752 80.1799L63.8919 78.7708C63.9617 78.7616 70.4715 77.9031 74.3788 76.4976C74.3555 76.4367 74.3302 76.3754 74.3073 76.3146C73.9954 75.4856 73.771 74.4978 73.6137 73.4104C68.6877 73.7748 63.0223 77.2489 62.9618 77.2862L62.2122 76.0789C62.4696 75.9192 68.1999 72.3958 73.4494 71.9955C72.9642 66.4949 73.858 59.216 74.3509 55.8297C69.5798 55.4069 63.5676 55.4016 63.5034 55.4016V53.9803C63.5687 53.9803 69.7123 53.986 74.566 54.4225C74.6047 54.1825 74.632 54.0204 74.6412 53.9667C74.6511 53.9101 74.6649 53.8537 74.6829 53.7987C79.0858 40.3399 76.0166 29.3653 74.7446 28.232C73.661 27.4341 69.9217 25.9487 67.5695 28.3C65.1239 30.7461 59.7996 48.3545 59.713 52.1002C59.6216 56.0225 57.8693 68.1818 57.0344 70.6864C56.3232 72.8194 54.9916 78.32 57.9749 83.3189C60.9941 88.3779 65.3337 105.81 66.1733 109.254C71.5292 113.565 73.6949 117.118 74.2169 118.075C75.9785 119.535 90.4061 131.325 97.4416 131.789L97.286 134.152C89.0511 133.61 73.1854 120.305 72.5141 119.739C72.3866 119.631 72.2834 119.498 72.2111 119.349C72.1761 119.278 68.3833 111.807 54.7525 104.699C47.146 100.732 41.3743 101.318 37.8715 102.51C34.9699 103.496 33.1184 105.052 32.3262 106.018C32.3291 106.018 32.3319 106.018 32.3348 106.018C34.0445 106.135 36.4676 106.113 38.3164 105.348C40.3881 104.493 43.2266 106.724 45.2443 108.747C45.2931 108.796 50.1005 113.716 49.4545 115.267C49.17 115.949 47.7558 117.737 46.4448 118.951C46.9357 119.53 47.4975 120.44 48.3657 121.875C50.373 125.192 53.4063 130.205 58.1711 134.346C65.4291 140.654 78.0993 155.098 79.4838 157.076C80.5088 158.541 85.2871 161.268 86.4114 161.479C87.811 161.741 103.008 169.764 109.828 173.388C112.574 173.125 117.707 170.994 121.866 169.264C124.706 168.083 127.159 167.063 128.597 166.726C132.536 165.802 136.181 168.281 137.299 171.108C138.182 173.337 139.824 177.486 137.686 181.602C135.329 186.137 127.041 189.336 124.169 190.331C124.195 190.723 124.184 191.101 124.148 191.459C127.429 190.142 129.819 189.369 131.477 188.835C132.642 188.459 133.484 188.187 133.865 187.97C135.199 187.207 142.107 184.413 144.021 183.923C146.481 183.294 150.94 184.766 152.708 189.921C153.886 193.357 153.736 196.928 152.545 199.395C153.732 199.512 154.885 199.936 155.9 200.658C158.274 202.348 159.476 205.384 159.196 208.986C158.76 214.6 151.518 219.772 147.627 222.551C146.902 223.069 146.087 223.652 145.824 223.895C145.604 224.375 145.203 225.017 144.793 225.624C147.312 230.808 157.548 253.636 159.985 259.94C198.796 258.567 208.526 245.889 210.539 242.211C206.766 237.453 177.251 199.751 164.866 169.673C161.69 167.762 159.414 162.625 158.621 160.619ZM122.094 85.8209C122.481 85.9391 131.61 88.7342 133.869 89.9302L133.204 91.1861C131.064 90.0528 121.772 87.2082 121.679 87.1796L122.094 85.8209ZM105.682 70.2596C105.745 70.266 112.085 70.8841 115.867 69.6786L116.299 71.0327C114.256 71.6835 111.617 71.8489 109.463 71.8489C107.331 71.8489 105.674 71.687 105.539 71.6734L105.682 70.2596ZM116.26 85.6234L115.928 87.0048C111.346 85.9033 103.356 87.1248 103.276 87.1369L103.058 85.733C103.397 85.6804 111.408 84.4563 116.26 85.6234ZM69.0833 105.967L68.0465 104.995C68.2648 104.763 73.4493 99.2707 78.4281 97.3149L78.9479 98.6373C74.2692 100.475 69.1344 105.913 69.0833 105.967ZM85.9214 91.882C86.1747 91.7337 92.1797 88.2422 96.9234 87.6284L97.1055 89.0375C92.6455 89.6149 86.6991 93.0735 86.6395 93.1085L85.9214 91.882ZM121.577 119.979C111.3 119.282 93.516 113.049 92.7641 112.784L93.2365 111.444C93.4189 111.508 111.59 117.877 121.673 118.561C132.08 119.267 146.582 122.741 152.959 127.789L152.077 128.903C145.925 124.033 131.771 120.67 121.577 119.979Z" fill="white"/>
    <path d="M216.423 193.441C210.309 186.439 206.978 184.096 206.273 183.639C206.322 189.202 205.683 201.973 199.637 213.323L198.383 212.655C205.572 199.161 204.924 183.598 204.777 181.231C202.155 176.094 193.318 160.873 177.12 152.748C176.956 152.666 176.813 152.547 176.703 152.399C174.814 149.876 169.234 143.091 166.134 142.008C163.547 141.105 159.877 141.03 157.741 141.078C158.057 141.606 158.261 142.14 158.246 142.575C158.23 143.022 158.003 143.381 157.622 143.561C157.234 143.745 155.921 143.927 154.337 143.927C152.726 143.927 150.836 143.739 149.351 143.173C148.056 142.679 147.198 141.952 146.802 141.014C146.206 139.605 144.608 138.718 143.21 138.188C142.439 138.186 141.785 138.267 141.301 138.458C140.978 138.585 140.674 138.805 140.63 139.554C140.474 142.233 143.81 147.258 145.615 148.224C147.411 149.185 149.229 151.363 150.833 153.286C151.731 154.362 152.849 155.702 153.309 155.932C153.636 156.096 153.996 156.297 154.384 156.514C155.8 157.307 157.562 158.294 159.456 158.294C159.545 158.294 159.629 158.315 159.713 158.335L159.716 158.323C164.602 159.423 168.209 154.813 168.245 154.767L170.129 156.203C169.967 156.415 166.522 160.856 161.299 160.867C162.378 163.284 164.265 166.717 166.303 167.761C173.224 170.503 184.894 168.224 185.012 168.2L185.476 170.523C185.165 170.585 180.555 171.488 175.289 171.488C172.839 171.488 170.249 171.288 167.882 170.722C180.688 200.411 209.198 236.715 212.473 240.838C234.057 234.971 241.136 216.106 242.706 210.885C238.07 208.583 222.701 200.632 216.423 193.441Z" fill="white"/>
    <path d="M145.557 210.988L145.612 211.112C145.836 211.639 147.239 213.14 147.725 213.184C148.467 213.097 153.445 210.782 154.231 210.073C154.367 209.493 154.427 207.563 153.642 206.181C152.96 204.982 152.323 204.318 151.694 204.152C151.687 204.151 151.679 204.15 151.671 204.15C151.232 204.15 149.041 204.95 146.477 206.917C144.673 208.301 145.038 209.819 145.557 210.988Z" fill="white"/>
    <path d="M123.261 194.387C118.049 196.61 116.956 201.532 116.368 204.181C116.243 204.749 116.143 205.197 116.019 205.543C115.677 206.497 116.921 209.361 119.099 211.766C120.199 212.98 124.577 213.346 127.706 213.241C128.542 212.452 129.941 211.21 131.595 210.061C134.13 208.3 146.459 201.097 148.992 199.974C150.879 199.062 151.91 194.898 150.468 190.689C149.137 186.81 145.993 185.864 144.608 186.218C142.897 186.656 136.211 189.357 135.04 190.026C134.445 190.366 133.602 190.638 132.204 191.089C130.3 191.703 127.423 192.63 123.306 194.366C123.291 194.372 123.278 194.38 123.263 194.386C123.263 194.386 123.262 194.387 123.262 194.388L123.261 194.387ZM138.05 190.905C139.601 189.418 145.041 187.614 145.656 187.414C145.963 187.314 146.3 187.433 146.474 187.705C146.544 187.815 148.208 190.416 148.663 192.299C149.104 194.124 149.349 197.751 149.359 197.904C149.381 198.235 149.171 198.537 148.853 198.632C148.649 198.693 143.837 200.126 141.945 200.498C141.656 200.554 141.359 200.584 141.06 200.584C139.194 200.584 137.255 199.433 136.558 196.644C135.814 193.669 136.417 192.469 138.05 190.905Z" fill="white"/>
    <path d="M108.162 186.711C110.311 192.535 114.91 195.172 117.409 195.885C118.414 194.649 119.728 193.507 121.467 192.62C121.704 191.98 121.978 190.907 121.699 189.814C121.544 189.202 121.895 188.576 122.498 188.39C125.477 187.47 133.635 184.262 135.584 180.51C137.225 177.353 135.894 173.989 135.098 171.98C134.438 170.312 131.998 168.359 129.139 169.031C127.89 169.324 125.406 170.357 122.776 171.451C118.306 173.31 113.272 175.403 110.14 175.741C109.163 176.88 106.083 181.077 108.162 186.711ZM121.547 174.245C122.389 172.359 128.332 170.094 129.515 169.659C129.689 169.595 129.881 169.601 130.051 169.678C130.186 169.738 133.354 171.194 134.288 174.526C135.169 177.675 134.871 180.361 134.858 180.474C134.824 180.763 134.618 181.002 134.337 181.078C132.342 181.616 125.804 183.359 124.818 183.359C124.81 183.359 124.801 183.359 124.793 183.359C123.64 183.318 121.675 181.991 121.138 179.7C120.629 177.53 120.74 176.052 121.547 174.245Z" fill="white"/>
    <path d="M124.843 181.939C125.434 181.929 130.088 180.746 133.479 179.837C133.518 178.975 133.515 177.042 132.918 174.91C132.303 172.714 130.396 171.481 129.713 171.102C126.648 172.257 123.227 173.967 122.844 174.825C122.171 176.332 122.086 177.523 122.521 179.376C122.907 181.026 124.324 181.921 124.843 181.939Z" fill="white"/>
    <path d="M149.982 202.126C147.683 203.128 135.369 210.323 132.948 212.005C130.687 213.576 128.889 215.386 128.623 215.657C127.857 216.617 127.138 217.809 127.078 218.217C127.089 218.281 127.1 218.36 127.114 218.452C127.752 222.821 129.749 225.541 133.049 226.541C135.793 226.942 137.578 228.472 138.649 229.391C138.862 229.573 139.121 229.796 139.249 229.88C139.924 230.024 142.671 230.57 144.702 230.973C143.956 229.358 143.291 227.945 142.75 226.833L141.626 225.983C142.348 225.029 143.467 223.428 143.696 222.854C143.914 222.309 144.406 221.942 146.253 220.623C149.574 218.251 156.486 213.314 156.837 208.803C157.054 206.009 156.234 203.801 154.528 202.587C153.195 201.638 151.495 201.465 149.982 202.126ZM152.06 202.777C153.091 203.051 153.987 203.909 154.879 205.478C155.969 207.397 155.801 209.909 155.547 210.634C155.14 211.794 148.458 214.566 147.792 214.602C147.771 214.604 147.75 214.604 147.729 214.604C146.371 214.604 144.571 212.291 144.306 211.668L144.26 211.564C143.218 209.22 143.673 207.277 145.613 205.789C147.861 204.064 150.889 202.465 152.06 202.777Z" fill="white"/>
    <path d="M141.672 199.105C143.132 198.817 146.561 197.826 147.899 197.433C147.813 196.34 147.596 193.933 147.282 192.634C146.988 191.418 146.048 189.747 145.567 188.943C143.701 189.583 140.043 190.965 139.033 191.932C137.725 193.185 137.322 193.843 137.937 196.301C138.559 198.79 140.337 199.367 141.672 199.105Z" fill="white"/>
    <path d="M218.207 191.884C212.171 184.971 208.72 182.418 207.648 181.709C206.362 178.863 197.447 160.418 178.431 150.758C177.157 149.079 171.021 141.207 166.914 139.773C165.616 139.319 164.119 139.051 162.653 138.894C161.23 134.364 154.106 112.707 145.837 105.646C145.183 103.925 141.867 95.558 137.357 90.507C137.129 88.3491 136.052 78.1904 135.713 76.001C135.892 74.4537 137.281 62.4537 137.521 60.8937C137.561 60.6552 137.913 59.7228 138.222 58.9003C139.922 54.3879 143.46 44.9982 140.162 39.8492C138.662 37.5066 136.94 36.371 135.039 36.4701C132.412 36.6095 130.465 39.1398 129.728 40.6128C128.666 42.7374 125.12 49.3196 123.429 51.5546C122.51 52.7689 121.863 55.2954 121.045 58.4938C120.633 60.1031 120.178 61.8745 119.649 63.601C120.536 58.473 121.706 51.4763 121.995 48.622C123.027 46.6355 130.106 32.4886 126.634 24.6283C124.967 20.8534 121.91 18.6816 118.246 18.6701C118.237 18.6701 118.227 18.6701 118.218 18.6701C116.359 18.6701 114.523 19.2527 113.167 20.1762C113.05 19.7843 112.928 19.4666 112.822 19.2538C112.073 17.7568 107.575 13.901 102.596 15.8915C99.7716 17.021 98.2057 19.821 96.6917 22.5285C95.6165 24.4508 94.6011 26.2667 93.2805 27.191C89.4912 29.8438 88.0798 34.2434 87.0546 38.1588C86.1384 41.6565 81.2279 54.2899 79.364 58.1954C77.412 62.2854 77.7479 65.8366 78.3897 70.0538C78.6996 72.0923 79.5182 78.5588 80.2412 84.3707C79.6613 82.8748 79.0238 81.4143 78.3929 79.9684C77.7173 78.4197 77.079 76.9565 76.5236 75.4803C74.4545 69.9829 76.7581 55.6753 76.961 54.4503C81.4532 40.6318 78.6167 28.1446 76.1613 26.3351C74.2868 24.9546 69.3118 23.2081 65.8946 26.6256C62.7976 29.7226 57.4359 48.1153 57.3448 52.0454C57.2613 55.6393 55.5402 67.6789 54.7871 69.9378C53.9729 72.3802 52.4551 78.6922 55.9409 84.5328C58.2682 88.4325 61.6209 100.93 63.1685 107.005C61.0971 105.562 58.6754 104.074 55.8472 102.599C47.4986 98.2457 41.0495 98.929 37.109 100.268C33.3312 101.552 30.5676 103.92 29.7902 105.594C29.5454 106.121 29.1738 106.932 30.7962 108.983C34.0423 114.684 41.9792 119.365 44.1224 120.062C44.213 120.126 44.2967 120.186 44.3884 120.251L44.4902 120.322C44.8036 120.564 45.6195 121.912 46.3393 123.102C48.2963 126.336 51.5719 131.749 56.6171 136.134C64.0518 142.595 76.4381 156.856 77.543 158.435C78.9998 160.516 84.3718 163.506 85.9295 163.797C87.1666 164.154 99.4537 170.567 107.743 174.963C106.227 177.041 103.763 181.634 105.939 187.532C108.464 194.374 113.61 197.014 116.041 197.91C114.855 200.073 114.37 202.251 114.056 203.669C113.953 204.135 113.863 204.538 113.79 204.742C112.836 207.399 115.697 211.538 117.343 213.356C118.961 215.142 122.932 215.561 125.732 215.621C125.108 216.604 124.587 217.723 124.734 218.567C124.743 218.624 124.754 218.701 124.768 218.795C125.751 225.523 129.495 227.97 132.462 228.838C132.519 228.855 132.576 228.867 132.635 228.875C134.74 229.161 136.163 230.382 137.105 231.19C137.692 231.693 138.116 232.056 138.647 232.174C139.308 232.321 144.175 233.285 145.917 233.63C150.802 244.355 157.825 260.531 158.168 261.762C158.165 261.751 158.14 261.656 158.14 261.518H160.508C160.508 261.365 160.319 260.807 159.984 259.941C157.547 253.637 147.311 230.808 144.793 225.625C145.203 225.017 145.604 224.376 145.824 223.896C146.087 223.652 146.902 223.07 147.627 222.552C151.518 219.773 158.76 214.6 159.196 208.987C159.476 205.385 158.274 202.349 155.899 200.658C154.885 199.936 153.731 199.513 152.544 199.395C153.735 196.929 153.886 193.358 152.708 189.921C150.94 184.766 146.481 183.295 144.02 183.924C142.106 184.413 135.198 187.208 133.865 187.97C133.484 188.188 132.642 188.459 131.477 188.835C129.819 189.369 127.429 190.142 124.148 191.459C124.183 191.101 124.195 190.723 124.168 190.331C127.041 189.337 135.329 186.137 137.685 181.603C139.824 177.487 138.181 173.337 137.299 171.109C136.18 168.282 132.535 165.803 128.597 166.726C127.159 167.063 124.706 168.083 121.866 169.264C117.707 170.994 112.574 173.126 109.827 173.389C103.008 169.764 87.8106 161.741 86.4111 161.479C85.2867 161.268 80.5084 158.541 79.4835 157.077C78.0989 155.099 65.4288 140.654 58.1707 134.347C53.4059 130.206 50.3726 125.193 48.3654 121.876C47.4971 120.441 46.9353 119.53 46.4444 118.951C47.7554 117.738 49.1697 115.95 49.4542 115.267C50.1 113.716 45.2927 108.797 45.2439 108.748C43.2262 106.724 40.3877 104.493 38.316 105.349C36.4671 106.113 34.0442 106.136 32.3344 106.019C32.3315 106.018 32.3287 106.019 32.3258 106.019C33.118 105.053 34.9695 103.497 37.8711 102.51C41.3739 101.319 47.1457 100.732 54.7521 104.699C68.383 111.807 72.1757 119.278 72.2107 119.349C72.283 119.499 72.3862 119.632 72.5137 119.739C73.185 120.305 89.0507 133.61 97.2856 134.153L97.4412 131.79C90.4057 131.326 75.9781 119.536 74.2166 118.075C73.6944 117.119 71.5288 113.566 66.1729 109.254C65.3333 105.81 60.9937 88.3783 57.9745 83.3194C54.9912 78.3204 56.3228 72.8199 57.034 70.6868C57.869 68.1823 59.6212 56.023 59.7126 52.1007C59.7993 48.355 65.1235 30.7466 67.5691 28.3004C69.9213 25.9491 73.6606 27.4346 74.7442 28.2325C76.0162 29.3658 79.0854 40.3403 74.6823 53.7992C74.6643 53.8542 74.6505 53.9105 74.6407 53.9672C74.6314 54.0208 74.6041 54.183 74.5654 54.423C69.7118 53.9864 63.5682 53.9808 63.5028 53.9808V55.4021C63.567 55.4021 69.5792 55.4074 74.3503 55.8302C73.8574 59.2165 72.9637 66.4953 73.4488 71.996C68.1993 72.3963 62.4691 75.9196 62.2116 76.0794L62.9613 77.2867C63.0217 77.2494 68.6871 73.7753 73.6131 73.4109C73.7705 74.4983 73.9948 75.4861 74.3067 76.315C74.3296 76.3758 74.355 76.4372 74.3782 76.4981C70.4709 77.9036 63.9611 78.7621 63.8913 78.7713L64.0746 80.1804C64.367 80.1425 70.8535 79.287 74.902 77.8199C75.3274 78.8593 75.7789 79.8992 76.2224 80.9159C78.2178 85.4896 80.2812 90.2188 80.1872 95.578C80.1794 96.0238 80.4226 96.4364 80.8166 96.6451C81.2107 96.8538 81.6883 96.8238 82.0534 96.5667L83.3845 95.6286C83.741 95.3774 83.9303 94.9503 83.8777 94.5175C83.7742 93.6687 81.3376 73.6841 80.731 69.6979C80.132 65.7608 79.8365 62.7046 81.5018 59.2157C83.4475 55.1387 88.3834 42.4321 89.3456 38.7593C90.2644 35.2507 91.507 31.324 94.6388 29.1317C96.4036 27.8963 97.6007 25.7552 98.7589 23.6846C100.072 21.3368 101.429 18.9091 103.475 18.0906C107.125 16.6306 110.379 19.6848 110.703 20.3133C111.11 21.1268 112.157 25.0442 109.846 29.3464L109.283 30.395C106.348 35.8489 103.649 40.958 102.625 43.8067C95.6054 43.9766 92.2206 41.698 92.186 41.6737L91.3679 42.8356C91.5182 42.9417 94.8612 45.2442 101.845 45.2442C101.967 45.2442 102.095 45.2403 102.219 45.2388C102.218 45.2474 102.215 45.2586 102.213 45.267C102.128 45.8438 101.737 47.3449 101.283 49.0833C100.341 52.6976 98.9469 58.0553 98.2565 62.7335C91.8788 63.2691 86.1602 66.6962 85.9118 66.8469L86.6483 68.0618C86.7054 68.0272 92.1385 64.7773 98.0642 64.1799C97.9114 65.4816 97.8238 66.7094 97.8374 67.7961C97.8393 67.951 97.842 68.1115 97.8446 68.2716C93.7568 69.2183 87.5291 68.8221 87.4616 68.8178L87.3679 70.2355C87.4943 70.2439 88.8271 70.3292 90.6464 70.3292C92.7759 70.3292 95.5673 70.2087 97.8751 69.7159C98.0543 76.7626 98.7051 86.9445 98.7122 87.0564L101.076 86.9044C101.068 86.7826 100.292 74.6369 100.206 67.7666C100.144 62.8402 102.292 54.6023 103.575 49.6806C104.084 47.7279 104.452 46.3173 104.557 45.6139C104.851 43.6289 109.091 35.7498 111.368 31.517L111.933 30.4667C113.419 27.7 113.741 25.0254 113.626 22.9451C114.306 21.9753 116.163 21.0383 118.217 21.0383H118.239C119.818 21.0433 122.726 21.6406 124.468 25.5851C127.663 32.8195 119.873 47.5706 119.794 47.7189C119.784 47.7385 119.778 47.76 119.769 47.78C115.717 48.3562 108.858 45.8065 108.784 45.779L108.284 47.1089C108.566 47.2153 114.119 49.2807 118.474 49.2807C118.841 49.2807 119.196 49.261 119.542 49.2293C119.101 52.7914 117.831 60.2456 117.009 64.9573C109.621 64.4347 104.916 65.7741 104.712 65.8342L105.112 67.1976C105.159 67.1841 109.706 65.8901 116.762 66.3641C116.471 68.0219 116.277 69.1008 116.27 69.1428C116.237 69.3241 116.247 69.5102 116.299 69.6868C117.738 74.5655 117.692 85.7271 117.691 85.8393L120.059 85.8529C120.062 85.4354 120.097 76.6718 119.043 71.0436C121.095 67.837 122.336 63 123.339 59.0809C124.002 56.4934 124.686 53.8177 125.317 52.9839C127.248 50.4322 131.009 43.3468 131.846 41.672C132.414 40.5369 133.819 38.9067 135.164 38.8352C136.391 38.7609 137.475 40.0452 138.168 41.1264C140.825 45.2748 137.448 54.238 136.006 58.0652C135.497 59.4171 135.249 60.0867 135.181 60.5325C135.173 60.5803 135.164 60.64 135.155 60.7052C129.76 61.8986 126.961 60.929 126.932 60.9184L126.436 62.2503C126.519 62.2815 127.759 62.7297 130.135 62.7297C131.414 62.7297 133.027 62.5956 134.961 62.201C134.601 65.0804 133.953 70.6197 133.595 73.7034C128.814 72.0958 124.048 73.9779 123.844 74.0604L124.377 75.3779C124.424 75.3594 129.036 73.5417 133.38 75.1249L133.454 74.923C133.392 75.4599 133.351 75.8116 133.342 75.8925C133.339 75.9132 133.345 75.9338 133.344 75.9545L133.236 75.6124C128.175 77.2034 124.692 75.7414 124.657 75.7263L124.087 77.0276C124.191 77.0736 125.848 77.7831 128.543 77.7831C129.931 77.7831 131.598 77.5908 133.467 77.025C133.913 80.393 135.03 91.0221 135.042 91.1404C135.069 91.3948 135.177 91.6339 135.351 91.8215C138.671 95.4032 141.42 101.221 142.789 104.438C141.358 104.713 139.722 105.162 137.878 105.675C131.724 107.385 123.298 109.727 114.474 107.412C102.479 104.265 91.3101 94.5725 91.1988 94.4747L90.2626 95.5438C90.7272 95.9509 101.788 105.553 114.113 108.787C116.896 109.517 119.626 109.806 122.257 109.806C128.322 109.806 133.858 108.268 138.258 107.044C140.198 106.505 141.91 106.03 143.343 105.775C143.586 106.382 143.719 106.742 143.725 106.761C143.798 106.961 143.924 107.137 144.089 107.272C151.418 113.249 158.206 132.87 160.107 138.72C158.244 138.658 156.701 138.736 156.094 138.775C155.681 138.622 154.928 138.351 153.962 138.033C151.245 136.758 147.231 135.446 142.746 135.839C142.109 135.863 141.521 135.94 140.996 136.077C140.921 136.091 140.846 136.099 140.77 136.115C140.675 136.134 140.591 136.175 140.515 136.227C140.488 136.237 140.459 136.244 140.433 136.255C139.124 136.77 138.354 137.893 138.266 139.417C138.05 143.127 142.052 149.005 144.497 150.313C145.887 151.057 147.621 153.134 149.014 154.804C150.46 156.537 151.39 157.622 152.249 158.051C152.547 158.2 152.873 158.383 153.226 158.581C154.618 159.361 156.467 160.397 158.621 160.62C159.413 162.626 161.689 167.763 164.866 169.673C177.25 199.751 206.765 237.453 210.538 242.211C210.779 242.515 210.918 242.689 210.938 242.713L212.783 241.228C212.766 241.206 212.657 241.07 212.472 240.838C209.198 236.715 180.688 200.411 167.882 170.723C170.249 171.289 172.838 171.488 175.288 171.488C180.554 171.488 185.165 170.586 185.475 170.523L185.011 168.201C184.894 168.224 173.223 170.504 166.303 167.761C164.265 166.717 162.377 163.285 161.299 160.868C166.521 160.857 169.966 156.416 170.128 156.203L168.245 154.768C168.209 154.814 164.602 159.423 159.715 158.324L159.713 158.335C159.628 158.316 159.544 158.295 159.455 158.295C157.562 158.295 155.799 157.308 154.384 156.515C153.995 156.297 153.636 156.096 153.309 155.933C152.849 155.702 151.731 154.363 150.833 153.287C149.229 151.364 147.411 149.185 145.614 148.224C143.81 147.259 140.474 142.234 140.63 139.554C140.674 138.806 140.978 138.585 141.301 138.459C141.784 138.268 142.439 138.186 143.209 138.188C144.608 138.719 146.206 139.606 146.801 141.015C147.198 141.953 148.055 142.679 149.351 143.173C150.836 143.74 152.726 143.928 154.336 143.928C155.921 143.928 157.233 143.745 157.621 143.562C158.002 143.381 158.23 143.022 158.245 142.576C158.26 142.14 158.056 141.607 157.741 141.078C159.876 141.03 163.547 141.106 166.134 142.009C169.233 143.091 174.814 149.877 176.703 152.4C176.813 152.547 176.956 152.667 177.12 152.749C193.318 160.874 202.154 176.095 204.777 181.232C204.924 183.599 205.571 199.161 198.382 212.655L199.637 213.324C205.683 201.974 206.322 189.203 206.273 183.639C206.978 184.097 210.309 186.439 216.422 193.442C222.701 200.633 238.07 208.583 242.706 210.886C243.443 211.252 243.919 211.481 244.033 211.535L245.053 209.397C244.855 209.303 225.162 199.851 218.207 191.884ZM156.786 142.337C155.327 142.629 149.114 142.837 148.11 140.462C147.445 138.887 145.94 137.848 144.487 137.181C148.988 137.211 152.858 138.957 155.027 140.179C155.703 140.56 156.59 141.776 156.786 142.337ZM41.1155 107.215C44.3111 109.08 47.8156 113.802 48.092 114.828C47.5898 115.798 45.231 118.343 44.488 118.714C43.0962 118.276 34.8118 113.517 31.8621 107.981C31.7762 107.82 31.8366 107.684 31.8803 107.616C31.9185 107.558 32.0373 107.426 32.2379 107.436C34.0977 107.564 36.7558 107.531 38.8591 106.662C39.3595 106.456 40.1404 106.646 41.1155 107.215ZM156.835 208.804C156.484 213.315 149.572 218.252 146.251 220.624C144.404 221.943 143.912 222.31 143.694 222.855C143.465 223.429 142.346 225.03 141.624 225.984L142.748 226.834C143.289 227.946 143.954 229.359 144.7 230.974C142.669 230.571 139.922 230.025 139.247 229.881C139.12 229.797 138.86 229.574 138.647 229.392C137.576 228.473 135.791 226.943 133.047 226.541C129.747 225.542 127.75 222.822 127.112 218.453C127.098 218.361 127.087 218.282 127.076 218.217C127.136 217.81 127.855 216.618 128.622 215.658C128.887 215.387 130.685 213.577 132.947 212.006C135.368 210.324 147.681 203.129 149.98 202.127C151.493 201.466 153.193 201.639 154.526 202.588C156.232 203.802 157.052 206.01 156.835 208.804ZM123.306 194.366C127.423 192.63 130.3 191.703 132.204 191.089C133.601 190.638 134.445 190.366 135.04 190.026C136.21 189.357 142.897 186.656 144.608 186.218C145.993 185.864 149.137 186.81 150.467 190.689C151.91 194.898 150.878 199.062 148.992 199.974C146.458 201.097 134.13 208.3 131.595 210.061C129.941 211.21 128.542 212.452 127.706 213.241C124.577 213.346 120.199 212.981 119.098 211.766C116.921 209.361 115.676 206.497 116.019 205.543C116.143 205.197 116.242 204.749 116.368 204.181C116.955 201.532 118.049 196.61 123.261 194.387L123.262 194.387C123.262 194.387 123.263 194.386 123.263 194.386C123.278 194.38 123.291 194.372 123.306 194.366ZM122.776 171.451C125.405 170.358 127.889 169.325 129.138 169.032C131.997 168.36 134.437 170.313 135.097 171.98C135.893 173.99 137.224 177.354 135.584 180.51C133.634 184.262 125.476 187.47 122.497 188.39C121.894 188.576 121.543 189.202 121.699 189.814C121.977 190.907 121.703 191.981 121.466 192.62C119.727 193.508 118.413 194.649 117.408 195.886C114.909 195.172 110.31 192.535 108.161 186.712C106.082 181.078 109.162 176.881 110.139 175.742C113.271 175.404 118.306 173.31 122.776 171.451Z" fill="#34539B"/>
    <path d="M144.259 211.565L144.305 211.67C144.57 212.292 146.37 214.606 147.728 214.606C147.749 214.606 147.77 214.605 147.791 214.604C148.457 214.568 155.14 211.795 155.547 210.635C155.8 209.91 155.968 207.398 154.878 205.48C153.986 203.91 153.09 203.052 152.059 202.778C150.888 202.467 147.861 204.066 145.613 205.79C143.673 207.278 143.217 209.221 144.259 211.565ZM146.478 206.918C149.041 204.951 151.232 204.151 151.671 204.151C151.68 204.151 151.688 204.151 151.695 204.152C152.324 204.319 152.961 204.983 153.643 206.181C154.428 207.564 154.367 209.494 154.231 210.073C153.446 210.782 148.468 213.097 147.726 213.185C147.24 213.141 145.837 211.64 145.612 211.113L145.558 210.988C145.038 209.82 144.674 208.302 146.478 206.918Z" fill="#34539B"/>
    <path d="M141.061 200.584C141.359 200.584 141.656 200.555 141.946 200.498C143.837 200.126 148.65 198.693 148.854 198.632C149.172 198.537 149.382 198.235 149.36 197.904C149.349 197.751 149.104 194.125 148.663 192.299C148.209 190.416 146.545 187.815 146.474 187.705C146.3 187.433 145.963 187.314 145.656 187.414C145.041 187.614 139.602 189.418 138.05 190.905C136.417 192.469 135.815 193.669 136.558 196.644C137.255 199.433 139.194 200.584 141.061 200.584ZM139.033 191.931C140.043 190.964 143.701 189.582 145.567 188.942C146.048 189.746 146.988 191.417 147.282 192.632C147.596 193.932 147.813 196.339 147.899 197.432C146.561 197.825 143.132 198.816 141.672 199.104C140.337 199.366 138.559 198.789 137.937 196.3C137.322 193.842 137.725 193.184 139.033 191.931Z" fill="#34539B"/>
    <path d="M124.792 183.359C124.8 183.359 124.808 183.359 124.817 183.359C125.802 183.359 132.34 181.616 134.336 181.078C134.616 181.002 134.823 180.763 134.856 180.474C134.87 180.361 135.167 177.675 134.286 174.527C133.353 171.195 130.184 169.738 130.05 169.678C129.88 169.601 129.687 169.595 129.513 169.659C128.33 170.094 122.387 172.36 121.545 174.246C120.739 176.052 120.628 177.531 121.136 179.7C121.673 181.991 123.639 183.318 124.792 183.359ZM122.843 174.825C123.226 173.967 126.647 172.257 129.712 171.101C130.395 171.481 132.302 172.714 132.917 174.91C133.514 177.042 133.517 178.975 133.478 179.837C130.087 180.745 125.433 181.929 124.842 181.939C124.323 181.92 122.906 181.026 122.52 179.376C122.085 177.523 122.17 176.332 122.843 174.825Z" fill="#34539B"/>
    <path d="M152.958 127.788C146.582 122.74 132.08 119.266 121.672 118.561C111.59 117.877 93.4185 111.508 93.2361 111.443L92.7637 112.784C93.5156 113.049 111.3 119.282 121.576 119.978C131.77 120.67 145.924 124.032 152.076 128.903L152.958 127.788Z" fill="#34539B"/>
    <path d="M68.0469 104.996L69.0836 105.968C69.1348 105.913 74.2697 100.476 78.9483 98.6378L78.4285 97.3154C73.4497 99.2713 68.2651 104.763 68.0469 104.996Z" fill="#34539B"/>
    <path d="M116.298 71.0329L115.867 69.6787C112.085 70.8843 105.744 70.2662 105.681 70.2598L105.539 71.6735C105.674 71.6871 107.331 71.849 109.463 71.849C111.616 71.849 114.256 71.6837 116.298 71.0329Z" fill="#34539B"/>
    <path d="M96.9229 87.6299C92.1792 88.2436 86.1741 91.7352 85.9209 91.8835L86.639 93.1099C86.6986 93.0749 92.645 89.6164 97.1051 89.039L96.9229 87.6299Z" fill="#34539B"/>
    <path d="M115.927 87.0051L116.259 85.6237C111.407 84.4566 103.395 85.6807 103.057 85.7333L103.275 87.1372C103.355 87.125 111.345 85.9035 115.927 87.0051Z" fill="#34539B"/>
    <path d="M133.869 89.9316C131.61 88.7356 122.481 85.9405 122.094 85.8223L121.679 87.1811C121.772 87.2097 131.064 90.0542 133.204 91.1875L133.869 89.9316Z" fill="#34539B"/>
    <path d="M155.027 140.179C152.857 138.956 148.987 137.21 144.486 137.181C145.94 137.847 147.444 138.887 148.11 140.461C149.113 142.836 155.326 142.628 156.785 142.336C156.589 141.775 155.702 140.559 155.027 140.179Z" fill="white"/>
    <path d="M32.2377 107.435C32.037 107.425 31.9182 107.557 31.8801 107.615C31.8364 107.683 31.776 107.82 31.8618 107.981C34.8116 113.516 43.096 118.275 44.4877 118.713C45.2308 118.342 47.5896 115.797 48.0918 114.827C47.8154 113.801 44.3108 109.079 41.1153 107.214C40.1401 106.645 39.3593 106.455 38.8588 106.661C36.7556 107.53 34.0976 107.563 32.2377 107.435Z" fill="white"/>
    <path opacity="0.2" d="M141.764 221.306C169.891 221.306 192.692 198.505 192.692 170.378C192.692 142.251 169.891 119.449 141.764 119.449C113.636 119.449 90.835 142.251 90.835 170.378C90.835 198.505 113.636 221.306 141.764 221.306Z" fill="#0075FF"/>
</svg>
