<svg width="1440" height="766" viewBox="0 0 1440 766" fill="none" xmlns="http://www.w3.org/2000/svg" xmlns:xlink="http://www.w3.org/1999/xlink">
    <g clip-path="url(#clip0_8119_10407)">
        <rect width="1440" height="765" transform="translate(0 0.541992)" fill="#E8F0FF"/>
        <path d="M32.2109 189.19V360.088C32.2109 382.835 43.2114 403.988 61.3387 416.091L199.535 508.364C217.663 520.467 228.663 541.619 228.663 564.366V813.707" stroke="white" stroke-width="4" stroke-miterlimit="10"/>
        <path d="M32.2158 -4V233.609C32.2158 256.357 43.2163 277.509 61.3436 289.612L199.54 381.885C217.667 393.989 228.668 415.139 228.668 437.888V757.244" stroke="white" stroke-width="4" stroke-miterlimit="10"/>
        <path d="M77.3623 300.31L372.578 497.423C392.241 510.553 404.175 533.497 404.175 558.173V813.707" stroke="white" stroke-width="4" stroke-miterlimit="10"/>
        <path d="M41.0439 509.263C41.0439 514.563 37.0009 518.859 32.0125 518.859C27.0242 518.859 22.9811 514.563 22.9811 509.263C22.9811 503.962 27.0242 499.666 32.0125 499.666C37.0009 499.666 41.0439 503.962 41.0439 509.263Z" fill="white"/>
        <path d="M41.0439 645.402C41.0439 650.703 37.0009 654.999 32.0125 654.999C27.0242 654.999 22.9811 650.703 22.9811 645.402C22.9811 640.102 27.0242 635.806 32.0125 635.806C37.0009 635.806 41.0439 640.102 41.0439 645.402Z" fill="white"/>
        <path d="M41.042 149.462C41.042 154.762 36.9989 159.059 32.0106 159.059C27.0222 159.059 22.9792 154.762 22.9792 149.462C22.9792 144.161 27.0222 139.865 32.0106 139.865C36.9989 139.865 41.042 144.161 41.042 149.462Z" fill="white"/>
        <path d="M154.406 346.942C154.406 351.239 151.129 354.722 147.085 354.722C143.041 354.722 139.764 351.239 139.764 346.942C139.764 342.645 143.041 339.163 147.085 339.163C151.129 339.163 154.406 342.645 154.406 346.942Z" fill="white"/>
        <path d="M412.999 549.047C412.999 554.347 408.956 558.644 403.968 558.644C398.98 558.644 394.936 554.347 394.936 549.047C394.936 543.746 398.98 539.45 403.968 539.45C408.956 539.45 412.999 543.746 412.999 549.047Z" fill="white"/>
        <path d="M413 681.704C413 687.005 408.957 691.301 403.969 691.301C398.981 691.301 394.937 687.005 394.937 681.704C394.937 676.404 398.981 672.107 403.969 672.107C408.957 672.107 413 676.404 413 681.704Z" fill="white"/>
        <path d="M41.0439 109.915C41.0439 115.216 37.0009 119.512 32.0125 119.512C27.0242 119.512 22.9811 115.216 22.9811 109.915C22.9811 104.614 27.0242 100.318 32.0125 100.318C37.0009 100.318 41.0439 104.614 41.0439 109.915Z" fill="white"/>
        <path d="M-263 -4V38.8829C-263 71.0872 -247.425 101.031 -221.764 118.166L-9.02035 260.213C16.6421 277.348 32.2159 307.292 32.2159 339.496V509.443" stroke="white" stroke-width="4" stroke-miterlimit="10"/>
        <path d="M32.2148 813.706V645.584" stroke="white" stroke-width="4" stroke-miterlimit="10"/>
    </g>
</svg>
